%TF.GenerationSoftware,KiCad,Pcbnew,8.0.6*%
%TF.CreationDate,2024-12-15T14:25:42+01:00*%
%TF.ProjectId,PCB1_Mainboard,50434231-5f4d-4616-996e-626f6172642e,1.0*%
%TF.SameCoordinates,Original*%
%TF.FileFunction,Copper,L1,Top*%
%TF.FilePolarity,Positive*%
%FSLAX46Y46*%
G04 Gerber Fmt 4.6, Leading zero omitted, Abs format (unit mm)*
G04 Created by KiCad (PCBNEW 8.0.6) date 2024-12-15 14:25:42*
%MOMM*%
%LPD*%
G01*
G04 APERTURE LIST*
G04 Aperture macros list*
%AMRoundRect*
0 Rectangle with rounded corners*
0 $1 Rounding radius*
0 $2 $3 $4 $5 $6 $7 $8 $9 X,Y pos of 4 corners*
0 Add a 4 corners polygon primitive as box body*
4,1,4,$2,$3,$4,$5,$6,$7,$8,$9,$2,$3,0*
0 Add four circle primitives for the rounded corners*
1,1,$1+$1,$2,$3*
1,1,$1+$1,$4,$5*
1,1,$1+$1,$6,$7*
1,1,$1+$1,$8,$9*
0 Add four rect primitives between the rounded corners*
20,1,$1+$1,$2,$3,$4,$5,0*
20,1,$1+$1,$4,$5,$6,$7,0*
20,1,$1+$1,$6,$7,$8,$9,0*
20,1,$1+$1,$8,$9,$2,$3,0*%
G04 Aperture macros list end*
%TA.AperFunction,ComponentPad*%
%ADD10C,1.600000*%
%TD*%
%TA.AperFunction,ComponentPad*%
%ADD11O,1.600000X1.600000*%
%TD*%
%TA.AperFunction,ComponentPad*%
%ADD12R,1.800000X1.800000*%
%TD*%
%TA.AperFunction,ComponentPad*%
%ADD13C,1.800000*%
%TD*%
%TA.AperFunction,ComponentPad*%
%ADD14RoundRect,0.250000X0.750000X-0.600000X0.750000X0.600000X-0.750000X0.600000X-0.750000X-0.600000X0*%
%TD*%
%TA.AperFunction,ComponentPad*%
%ADD15O,2.000000X1.700000*%
%TD*%
%TA.AperFunction,ComponentPad*%
%ADD16R,2.200000X2.200000*%
%TD*%
%TA.AperFunction,ComponentPad*%
%ADD17O,2.200000X2.200000*%
%TD*%
%TA.AperFunction,ComponentPad*%
%ADD18R,1.600000X1.600000*%
%TD*%
%TA.AperFunction,ComponentPad*%
%ADD19R,1.500000X1.500000*%
%TD*%
%TA.AperFunction,ComponentPad*%
%ADD20C,1.500000*%
%TD*%
%TA.AperFunction,ComponentPad*%
%ADD21R,1.700000X1.700000*%
%TD*%
%TA.AperFunction,ComponentPad*%
%ADD22O,1.700000X1.700000*%
%TD*%
%TA.AperFunction,ComponentPad*%
%ADD23R,2.000000X2.000000*%
%TD*%
%TA.AperFunction,ComponentPad*%
%ADD24C,2.000000*%
%TD*%
%TA.AperFunction,ViaPad*%
%ADD25C,1.000000*%
%TD*%
%TA.AperFunction,Conductor*%
%ADD26C,0.508000*%
%TD*%
G04 APERTURE END LIST*
D10*
%TO.P,R7,1*%
%TO.N,Net-(U2-PD6)*%
X75565000Y-53340000D03*
D11*
%TO.P,R7,2*%
%TO.N,Net-(D8-K)*%
X75565000Y-43180000D03*
%TD*%
D12*
%TO.P,D4,1,K*%
%TO.N,GND*%
X64780000Y-36830000D03*
D13*
%TO.P,D4,2,A*%
%TO.N,Net-(D4-A)*%
X62240000Y-36830000D03*
%TD*%
D14*
%TO.P,J1,1,Pin_1*%
%TO.N,GND*%
X24130000Y-50800000D03*
D15*
%TO.P,J1,2,Pin_2*%
%TO.N,/PCB1: Signalaufbereitung/CARRERA_PWR*%
X24130000Y-48300000D03*
%TD*%
D16*
%TO.P,D1,1,K*%
%TO.N,Net-(D1-K)*%
X29845000Y-38735000D03*
D17*
%TO.P,D1,2,A*%
%TO.N,/PCB1: Signalaufbereitung/CARRERA_PWR*%
X29845000Y-28575000D03*
%TD*%
D12*
%TO.P,D8,1,K*%
%TO.N,Net-(D8-K)*%
X75560000Y-38735000D03*
D13*
%TO.P,D8,2,A*%
%TO.N,/PCB1: Mikrocontroller/PWR_5V_uC*%
X78100000Y-38735000D03*
%TD*%
D10*
%TO.P,C6,1*%
%TO.N,/PCB1: Mikrocontroller/PWR_5V_uC*%
X88900000Y-26670000D03*
%TO.P,C6,2*%
%TO.N,GND*%
X83900000Y-26670000D03*
%TD*%
D18*
%TO.P,C4,1*%
%TO.N,/PCB1: Mikrocontroller/PWR_5V_uC*%
X64140000Y-29250000D03*
D10*
%TO.P,C4,2*%
%TO.N,GND*%
X64140000Y-31750000D03*
%TD*%
%TO.P,R5,1*%
%TO.N,/PCB1: Mikrocontroller/PWR_5V_uC*%
X64770000Y-53340000D03*
D11*
%TO.P,R5,2*%
%TO.N,Net-(J2-Pin_5)*%
X64770000Y-43180000D03*
%TD*%
D10*
%TO.P,R2,1*%
%TO.N,Net-(D4-A)*%
X57790000Y-38100000D03*
D11*
%TO.P,R2,2*%
%TO.N,/PCB1: Mikrocontroller/PWR_5V_uC*%
X47630000Y-38100000D03*
%TD*%
D10*
%TO.P,C2,1*%
%TO.N,Net-(D2-A1)*%
X47630000Y-29290000D03*
%TO.P,C2,2*%
%TO.N,GND*%
X47630000Y-34290000D03*
%TD*%
D16*
%TO.P,D2,1,A1*%
%TO.N,Net-(D2-A1)*%
X33655000Y-24765000D03*
D17*
%TO.P,D2,2,A2*%
%TO.N,GND*%
X43815000Y-24765000D03*
%TD*%
D10*
%TO.P,R3,1*%
%TO.N,Net-(D5-K)*%
X35560000Y-43180000D03*
D11*
%TO.P,R3,2*%
%TO.N,/PCB1: Mikrocontroller/CARRERA_MANCHESTER*%
X35560000Y-53340000D03*
%TD*%
D10*
%TO.P,R6,1*%
%TO.N,Net-(D7-K)*%
X69850000Y-43180000D03*
D11*
%TO.P,R6,2*%
%TO.N,Net-(U2-PD5)*%
X69850000Y-53340000D03*
%TD*%
D19*
%TO.P,U1,1,VO*%
%TO.N,/PCB1: Mikrocontroller/PWR_5V_uC*%
X55885000Y-30520000D03*
D20*
%TO.P,U1,2,GND*%
%TO.N,GND*%
X53345000Y-33060000D03*
%TO.P,U1,3,VI*%
%TO.N,Net-(D2-A1)*%
X50805000Y-30520000D03*
%TD*%
D10*
%TO.P,C3,1*%
%TO.N,/PCB1: Mikrocontroller/PWR_5V_uC*%
X59060000Y-29250000D03*
%TO.P,C3,2*%
%TO.N,GND*%
X59060000Y-34250000D03*
%TD*%
D16*
%TO.P,D3,1,K*%
%TO.N,Net-(D2-A1)*%
X50800000Y-24765000D03*
D17*
%TO.P,D3,2,A*%
%TO.N,/PCB1: Mikrocontroller/PWR_5V_uC*%
X60960000Y-24765000D03*
%TD*%
D10*
%TO.P,R4,1*%
%TO.N,/PCB1: Mikrocontroller/CARRERA_MANCHESTER*%
X39370000Y-53340000D03*
D11*
%TO.P,R4,2*%
%TO.N,GND*%
X39370000Y-43180000D03*
%TD*%
D12*
%TO.P,D7,1,K*%
%TO.N,Net-(D7-K)*%
X69845000Y-38735000D03*
D13*
%TO.P,D7,2,A*%
%TO.N,/PCB1: Mikrocontroller/PWR_5V_uC*%
X72385000Y-38735000D03*
%TD*%
D18*
%TO.P,D5,1,K*%
%TO.N,Net-(D5-K)*%
X31750000Y-53340000D03*
D11*
%TO.P,D5,2,A*%
%TO.N,/PCB1: Signalaufbereitung/CARRERA_PWR*%
X31750000Y-43180000D03*
%TD*%
D18*
%TO.P,U2,1,PA2/~{RESET}*%
%TO.N,Net-(J2-Pin_5)*%
X81290000Y-30485000D03*
D11*
%TO.P,U2,2,PD0*%
%TO.N,unconnected-(U2-PD0-Pad2)*%
X81290000Y-33025000D03*
%TO.P,U2,3,PD1*%
%TO.N,unconnected-(U2-PD1-Pad3)*%
X81290000Y-35565000D03*
%TO.P,U2,4,PA1/XTAL2*%
%TO.N,unconnected-(U2-PA1{slash}XTAL2-Pad4)*%
X81290000Y-38105000D03*
%TO.P,U2,5,PA0/XTAL1*%
%TO.N,unconnected-(U2-PA0{slash}XTAL1-Pad5)*%
X81290000Y-40645000D03*
%TO.P,U2,6,PD2*%
%TO.N,/PCB1: Mikrocontroller/CARRERA_MANCHESTER*%
X81290000Y-43185000D03*
%TO.P,U2,7,PD3*%
%TO.N,unconnected-(U2-PD3-Pad7)*%
X81290000Y-45725000D03*
%TO.P,U2,8,PD4*%
%TO.N,unconnected-(U2-PD4-Pad8)*%
X81290000Y-48265000D03*
%TO.P,U2,9,PD5*%
%TO.N,Net-(U2-PD5)*%
X81290000Y-50805000D03*
%TO.P,U2,10,GND*%
%TO.N,GND*%
X81290000Y-53345000D03*
%TO.P,U2,11,PD6*%
%TO.N,Net-(U2-PD6)*%
X88910000Y-53345000D03*
%TO.P,U2,12,PB0*%
%TO.N,/PCB1: Mikrocontroller/AMPEL_GE*%
X88910000Y-50805000D03*
%TO.P,U2,13,PB1*%
%TO.N,/PCB1: Mikrocontroller/AMPEL_GN*%
X88910000Y-48265000D03*
%TO.P,U2,14,PB2*%
%TO.N,/PCB1: Mikrocontroller/AMPEL_RT5*%
X88910000Y-45725000D03*
%TO.P,U2,15,PB3*%
%TO.N,/PCB1: Mikrocontroller/AMPEL_RT4*%
X88910000Y-43185000D03*
%TO.P,U2,16,PB4*%
%TO.N,/PCB1: Mikrocontroller/AMPEL_RT3*%
X88910000Y-40645000D03*
%TO.P,U2,17,PB5*%
%TO.N,/PCB1: Mikrocontroller/AMPEL_RT2_MOSI*%
X88910000Y-38105000D03*
%TO.P,U2,18,PB6*%
%TO.N,/PCB1: Mikrocontroller/AMPEL_RT1_MISO*%
X88910000Y-35565000D03*
%TO.P,U2,19,PB7*%
%TO.N,Net-(J2-Pin_3)*%
X88910000Y-33025000D03*
%TO.P,U2,20,VCC*%
%TO.N,/PCB1: Mikrocontroller/PWR_5V_uC*%
X88910000Y-30485000D03*
%TD*%
D21*
%TO.P,J3,1,Pin_1*%
%TO.N,Net-(D7-K)*%
X71135000Y-33585000D03*
D22*
%TO.P,J3,2,Pin_2*%
%TO.N,Net-(D8-K)*%
X73675000Y-33585000D03*
%TO.P,J3,3,Pin_3*%
%TO.N,GND*%
X76215000Y-33585000D03*
%TD*%
D10*
%TO.P,C5,1*%
%TO.N,/PCB1: Mikrocontroller/CARRERA_MANCHESTER*%
X43180000Y-53260000D03*
%TO.P,C5,2*%
%TO.N,GND*%
X43180000Y-48260000D03*
%TD*%
D23*
%TO.P,C1,1*%
%TO.N,Net-(D2-A1)*%
X40640000Y-30512323D03*
D24*
%TO.P,C1,2*%
%TO.N,GND*%
X40640000Y-35512323D03*
%TD*%
D10*
%TO.P,R1,1*%
%TO.N,Net-(D1-K)*%
X33655000Y-38735000D03*
D11*
%TO.P,R1,2*%
%TO.N,Net-(D2-A1)*%
X33655000Y-28575000D03*
%TD*%
D21*
%TO.P,J2,1,Pin_1*%
%TO.N,/PCB1: Mikrocontroller/AMPEL_RT1_MISO*%
X59040000Y-42545000D03*
D22*
%TO.P,J2,2,Pin_2*%
%TO.N,/PCB1: Mikrocontroller/PWR_5V_uC*%
X59040000Y-45085000D03*
%TO.P,J2,3,Pin_3*%
%TO.N,Net-(J2-Pin_3)*%
X56500000Y-42545000D03*
%TO.P,J2,4,Pin_4*%
%TO.N,/PCB1: Mikrocontroller/AMPEL_RT2_MOSI*%
X56500000Y-45085000D03*
%TO.P,J2,5,Pin_5*%
%TO.N,Net-(J2-Pin_5)*%
X53960000Y-42545000D03*
%TO.P,J2,6,Pin_6*%
%TO.N,GND*%
X53960000Y-45085000D03*
%TD*%
D18*
%TO.P,D6,1,K*%
%TO.N,/PCB1: Mikrocontroller/CARRERA_MANCHESTER*%
X46990000Y-53340000D03*
D11*
%TO.P,D6,2,A*%
%TO.N,GND*%
X46990000Y-43180000D03*
%TD*%
D21*
%TO.P,J4,1,Pin_1*%
%TO.N,/PCB1: Signalaufbereitung/CARRERA_PWR*%
X95250000Y-27940000D03*
D22*
%TO.P,J4,2,Pin_2*%
%TO.N,GND*%
X95250000Y-30480000D03*
%TO.P,J4,3,Pin_3*%
X95250000Y-33020000D03*
%TO.P,J4,4,Pin_4*%
%TO.N,/PCB1: Mikrocontroller/AMPEL_RT1_MISO*%
X95250000Y-35560000D03*
%TO.P,J4,5,Pin_5*%
%TO.N,/PCB1: Mikrocontroller/AMPEL_RT2_MOSI*%
X95250000Y-38100000D03*
%TO.P,J4,6,Pin_6*%
%TO.N,/PCB1: Mikrocontroller/AMPEL_RT3*%
X95250000Y-40640000D03*
%TO.P,J4,7,Pin_7*%
%TO.N,/PCB1: Mikrocontroller/AMPEL_RT4*%
X95250000Y-43180000D03*
%TO.P,J4,8,Pin_8*%
%TO.N,/PCB1: Mikrocontroller/AMPEL_RT5*%
X95250000Y-45720000D03*
%TO.P,J4,9,Pin_9*%
%TO.N,/PCB1: Mikrocontroller/AMPEL_GN*%
X95250000Y-48260000D03*
%TO.P,J4,10,Pin_10*%
%TO.N,/PCB1: Mikrocontroller/AMPEL_GE*%
X95250000Y-50800000D03*
%TD*%
D21*
%TO.P,J5,1,Pin_1*%
%TO.N,unconnected-(J5-Pin_1-Pad1)*%
X24130000Y-27940000D03*
D22*
%TO.P,J5,2,Pin_2*%
%TO.N,unconnected-(J5-Pin_2-Pad2)*%
X24130000Y-30480000D03*
%TO.P,J5,3,Pin_3*%
%TO.N,unconnected-(J5-Pin_3-Pad3)*%
X24130000Y-33020000D03*
%TO.P,J5,4,Pin_4*%
%TO.N,unconnected-(J5-Pin_4-Pad4)*%
X24130000Y-35560000D03*
%TO.P,J5,5,Pin_5*%
%TO.N,unconnected-(J5-Pin_5-Pad5)*%
X24130000Y-38100000D03*
%TD*%
D25*
%TO.N,GND*%
X83820000Y-53340000D03*
X29210000Y-48260000D03*
X22225000Y-52705000D03*
X64140000Y-34290000D03*
X45085000Y-45085000D03*
X46990000Y-40640000D03*
X41275000Y-41275000D03*
X43815000Y-27305000D03*
X85725000Y-28575000D03*
X50795000Y-33020000D03*
X41275000Y-45085000D03*
X68580000Y-33655000D03*
X83820000Y-29210000D03*
X92075000Y-29845000D03*
X73025000Y-53340000D03*
X48895000Y-45085000D03*
X72390000Y-36195000D03*
X53975000Y-52070000D03*
X39370000Y-45720000D03*
X41275000Y-24765000D03*
X45085000Y-41275000D03*
X40640000Y-38100000D03*
X29845000Y-31750000D03*
X66680000Y-30480000D03*
X53335000Y-30480000D03*
X59055000Y-52070000D03*
X41910000Y-43180000D03*
X38735000Y-33655000D03*
X51435000Y-45085000D03*
X53975000Y-47625000D03*
X62235000Y-33655000D03*
X37465000Y-41275000D03*
X39370000Y-40640000D03*
X41275000Y-50205000D03*
X43180000Y-50840000D03*
X97155000Y-22225000D03*
X24130000Y-53340000D03*
X33655000Y-35560000D03*
X38100000Y-35560000D03*
X40640000Y-33020000D03*
X51430000Y-34925000D03*
X26035000Y-52705000D03*
X45085000Y-50205000D03*
X24130000Y-42545000D03*
X46990000Y-45720000D03*
X26670000Y-50800000D03*
X22225000Y-56515000D03*
X61600000Y-31750000D03*
X45720000Y-48300000D03*
X86360000Y-26670000D03*
X53335000Y-35560000D03*
X64775000Y-25400000D03*
X81280000Y-26670000D03*
X65410000Y-40005000D03*
X67564000Y-42926000D03*
X45720000Y-26670000D03*
X33655000Y-31750000D03*
X42545000Y-33655000D03*
X37465000Y-45085000D03*
X52070000Y-43180000D03*
X49530000Y-43180000D03*
X44450000Y-43180000D03*
X21590000Y-50800000D03*
X66045000Y-33655000D03*
X92075000Y-33020000D03*
X76835000Y-36195000D03*
X48895000Y-41275000D03*
X22225000Y-22225000D03*
X42545000Y-37465000D03*
X55880000Y-46990000D03*
X78740000Y-53340000D03*
X92075000Y-26670000D03*
X40640000Y-48300000D03*
X52070000Y-46990000D03*
X46355000Y-24765000D03*
X97155000Y-56515000D03*
X81915000Y-28575000D03*
X38735000Y-37465000D03*
X43180000Y-35560000D03*
X41910000Y-26670000D03*
X83820000Y-51435000D03*
X73660000Y-27305000D03*
%TD*%
D26*
%TO.N,Net-(J2-Pin_5)*%
X69215000Y-30485000D02*
X67315000Y-32385000D01*
X81290000Y-30485000D02*
X69215000Y-30485000D01*
X67310000Y-41275000D02*
X65405000Y-43180000D01*
X67315000Y-32385000D02*
X67315000Y-41275000D01*
X67315000Y-41275000D02*
X67310000Y-41275000D01*
X65405000Y-43180000D02*
X64770000Y-43180000D01*
%TO.N,Net-(J2-Pin_3)*%
X84455000Y-33020000D02*
X88270000Y-33020000D01*
X63500000Y-44450000D02*
X82550000Y-44450000D01*
X56500000Y-41305000D02*
X57165000Y-40640000D01*
X62230000Y-43180000D02*
X63500000Y-44450000D01*
X57165000Y-40640000D02*
X61595000Y-40640000D01*
X62230000Y-41275000D02*
X62230000Y-43180000D01*
X56500000Y-42610000D02*
X56500000Y-41305000D01*
X83820000Y-33655000D02*
X84455000Y-33020000D01*
X83820000Y-43180000D02*
X83820000Y-33655000D01*
X82550000Y-44450000D02*
X83820000Y-43180000D01*
X61595000Y-40640000D02*
X62230000Y-41275000D01*
%TO.N,/PCB1: Mikrocontroller/AMPEL_RT1_MISO*%
X85090000Y-45720000D02*
X83820000Y-46990000D01*
X62230000Y-46990000D02*
X60960000Y-45720000D01*
X88910000Y-35565000D02*
X88905000Y-35560000D01*
X60960000Y-45720000D02*
X60960000Y-43180000D01*
X86360000Y-35560000D02*
X85090000Y-36830000D01*
X60325000Y-42545000D02*
X59040000Y-42545000D01*
X88905000Y-35560000D02*
X86360000Y-35560000D01*
X85090000Y-36830000D02*
X85090000Y-45720000D01*
X60960000Y-43180000D02*
X60325000Y-42545000D01*
X83820000Y-46990000D02*
X62230000Y-46990000D01*
%TO.N,/PCB1: Mikrocontroller/AMPEL_RT2_MOSI*%
X60880000Y-49530000D02*
X56500000Y-45150000D01*
X85090000Y-49530000D02*
X60880000Y-49530000D01*
X88275000Y-38105000D02*
X86990000Y-38105000D01*
X86360000Y-38735000D02*
X86360000Y-48260000D01*
X86360000Y-48260000D02*
X85090000Y-49530000D01*
X86990000Y-38105000D02*
X86360000Y-38735000D01*
%TD*%
%TA.AperFunction,Conductor*%
%TO.N,GND*%
G36*
X79927180Y-31267502D02*
G01*
X79973673Y-31321158D01*
X79984337Y-31360032D01*
X79988009Y-31394196D01*
X79988011Y-31394204D01*
X80039110Y-31531202D01*
X80039112Y-31531207D01*
X80126738Y-31648261D01*
X80243792Y-31735887D01*
X80243794Y-31735888D01*
X80243796Y-31735889D01*
X80319472Y-31764115D01*
X80370924Y-31783306D01*
X80380799Y-31786989D01*
X80390191Y-31787998D01*
X80455784Y-31815163D01*
X80496279Y-31873479D01*
X80498817Y-31944430D01*
X80462593Y-32005490D01*
X80449010Y-32016483D01*
X80445708Y-32018795D01*
X80445697Y-32018804D01*
X80283804Y-32180697D01*
X80283799Y-32180703D01*
X80152477Y-32368250D01*
X80055717Y-32575753D01*
X80055715Y-32575759D01*
X80009552Y-32748041D01*
X79996457Y-32796913D01*
X79976502Y-33025000D01*
X79996457Y-33253087D01*
X80006348Y-33290000D01*
X80055715Y-33474240D01*
X80055717Y-33474246D01*
X80152477Y-33681749D01*
X80262585Y-33839000D01*
X80283802Y-33869300D01*
X80445700Y-34031198D01*
X80633251Y-34162523D01*
X80668359Y-34178894D01*
X80672457Y-34180805D01*
X80725742Y-34227722D01*
X80745203Y-34295999D01*
X80724661Y-34363959D01*
X80672457Y-34409195D01*
X80633250Y-34427477D01*
X80445703Y-34558799D01*
X80445697Y-34558804D01*
X80283804Y-34720697D01*
X80283799Y-34720703D01*
X80152477Y-34908250D01*
X80055717Y-35115753D01*
X80055715Y-35115759D01*
X80012862Y-35275690D01*
X79996457Y-35336913D01*
X79976502Y-35565000D01*
X79996455Y-35793069D01*
X79996457Y-35793086D01*
X80055715Y-36014240D01*
X80055717Y-36014246D01*
X80141897Y-36199061D01*
X80152477Y-36221749D01*
X80283802Y-36409300D01*
X80445700Y-36571198D01*
X80633251Y-36702523D01*
X80668359Y-36718894D01*
X80672457Y-36720805D01*
X80725742Y-36767722D01*
X80745203Y-36835999D01*
X80724661Y-36903959D01*
X80672457Y-36949195D01*
X80633250Y-36967477D01*
X80445703Y-37098799D01*
X80445697Y-37098804D01*
X80283804Y-37260697D01*
X80283799Y-37260703D01*
X80152477Y-37448250D01*
X80055717Y-37655753D01*
X80055715Y-37655759D01*
X80036143Y-37728804D01*
X79996457Y-37876913D01*
X79976502Y-38105000D01*
X79996019Y-38328086D01*
X79996457Y-38333086D01*
X80052600Y-38542616D01*
X80055716Y-38554243D01*
X80152477Y-38761749D01*
X80283802Y-38949300D01*
X80445700Y-39111198D01*
X80633251Y-39242523D01*
X80668359Y-39258894D01*
X80672457Y-39260805D01*
X80725742Y-39307722D01*
X80745203Y-39375999D01*
X80724661Y-39443959D01*
X80672457Y-39489195D01*
X80633250Y-39507477D01*
X80445703Y-39638799D01*
X80445697Y-39638804D01*
X80283804Y-39800697D01*
X80283799Y-39800703D01*
X80152477Y-39988250D01*
X80055717Y-40195753D01*
X80055715Y-40195759D01*
X79996457Y-40416913D01*
X79976502Y-40645000D01*
X79996457Y-40873086D01*
X80055715Y-41094240D01*
X80055717Y-41094246D01*
X80118973Y-41229900D01*
X80152477Y-41301749D01*
X80283802Y-41489300D01*
X80445700Y-41651198D01*
X80633251Y-41782523D01*
X80668359Y-41798894D01*
X80672457Y-41800805D01*
X80725742Y-41847722D01*
X80745203Y-41915999D01*
X80724661Y-41983959D01*
X80672457Y-42029195D01*
X80633250Y-42047477D01*
X80445703Y-42178799D01*
X80445697Y-42178804D01*
X80283804Y-42340697D01*
X80283799Y-42340703D01*
X80152477Y-42528250D01*
X80055717Y-42735753D01*
X80055715Y-42735759D01*
X80011421Y-42901066D01*
X79996457Y-42956913D01*
X79976502Y-43185000D01*
X79996457Y-43413087D01*
X80027486Y-43528891D01*
X80025797Y-43599865D01*
X79986003Y-43658661D01*
X79920739Y-43686609D01*
X79905780Y-43687500D01*
X76947881Y-43687500D01*
X76879760Y-43667498D01*
X76833267Y-43613842D01*
X76823163Y-43543568D01*
X76826174Y-43528889D01*
X76837301Y-43487362D01*
X76858543Y-43408087D01*
X76878498Y-43180000D01*
X76858543Y-42951913D01*
X76799284Y-42730757D01*
X76702523Y-42523251D01*
X76571198Y-42335700D01*
X76409300Y-42173802D01*
X76221749Y-42042477D01*
X76213879Y-42038807D01*
X76014246Y-41945717D01*
X76014240Y-41945715D01*
X75899610Y-41915000D01*
X75793087Y-41886457D01*
X75565000Y-41866502D01*
X75336913Y-41886457D01*
X75115759Y-41945715D01*
X75115753Y-41945717D01*
X74908250Y-42042477D01*
X74720703Y-42173799D01*
X74720697Y-42173804D01*
X74558804Y-42335697D01*
X74558799Y-42335703D01*
X74427477Y-42523250D01*
X74330717Y-42730753D01*
X74330715Y-42730759D01*
X74278400Y-42926000D01*
X74271457Y-42951913D01*
X74251502Y-43180000D01*
X74271457Y-43408087D01*
X74288691Y-43472405D01*
X74303826Y-43528889D01*
X74302136Y-43599866D01*
X74262342Y-43658661D01*
X74197077Y-43686609D01*
X74182119Y-43687500D01*
X71232881Y-43687500D01*
X71164760Y-43667498D01*
X71118267Y-43613842D01*
X71108163Y-43543568D01*
X71111174Y-43528889D01*
X71122301Y-43487362D01*
X71143543Y-43408087D01*
X71163498Y-43180000D01*
X71143543Y-42951913D01*
X71084284Y-42730757D01*
X70987523Y-42523251D01*
X70856198Y-42335700D01*
X70694300Y-42173802D01*
X70506749Y-42042477D01*
X70498879Y-42038807D01*
X70299246Y-41945717D01*
X70299240Y-41945715D01*
X70184610Y-41915000D01*
X70078087Y-41886457D01*
X69850000Y-41866502D01*
X69621913Y-41886457D01*
X69400759Y-41945715D01*
X69400753Y-41945717D01*
X69193250Y-42042477D01*
X69005703Y-42173799D01*
X69005697Y-42173804D01*
X68843804Y-42335697D01*
X68843799Y-42335703D01*
X68712477Y-42523250D01*
X68615717Y-42730753D01*
X68615715Y-42730759D01*
X68563400Y-42926000D01*
X68556457Y-42951913D01*
X68536502Y-43180000D01*
X68556457Y-43408087D01*
X68573691Y-43472405D01*
X68588826Y-43528889D01*
X68587136Y-43599866D01*
X68547342Y-43658661D01*
X68482077Y-43686609D01*
X68467119Y-43687500D01*
X66280027Y-43687500D01*
X66211906Y-43667498D01*
X66165413Y-43613842D01*
X66155309Y-43543568D01*
X66184803Y-43478988D01*
X66190932Y-43472405D01*
X66932584Y-42730753D01*
X67777224Y-41886112D01*
X67796312Y-41870447D01*
X67801065Y-41867272D01*
X67907272Y-41761065D01*
X67990718Y-41636179D01*
X68048197Y-41497413D01*
X68077500Y-41350100D01*
X68077500Y-37786350D01*
X68436500Y-37786350D01*
X68436500Y-39683649D01*
X68443009Y-39744196D01*
X68443011Y-39744204D01*
X68494110Y-39881202D01*
X68494112Y-39881207D01*
X68581738Y-39998261D01*
X68698792Y-40085887D01*
X68698794Y-40085888D01*
X68698796Y-40085889D01*
X68750243Y-40105078D01*
X68835795Y-40136988D01*
X68835803Y-40136990D01*
X68896350Y-40143499D01*
X68896355Y-40143499D01*
X68896362Y-40143500D01*
X68896368Y-40143500D01*
X70793632Y-40143500D01*
X70793638Y-40143500D01*
X70793645Y-40143499D01*
X70793649Y-40143499D01*
X70854196Y-40136990D01*
X70854199Y-40136989D01*
X70854201Y-40136989D01*
X70991204Y-40085889D01*
X70997459Y-40081207D01*
X71108261Y-39998261D01*
X71195886Y-39881208D01*
X71195885Y-39881208D01*
X71195889Y-39881204D01*
X71219258Y-39818547D01*
X71261804Y-39761715D01*
X71328325Y-39736904D01*
X71397699Y-39751996D01*
X71423294Y-39771996D01*
X71423946Y-39771289D01*
X71427778Y-39774817D01*
X71463646Y-39802734D01*
X71611983Y-39918190D01*
X71817273Y-40029287D01*
X72038049Y-40105080D01*
X72268288Y-40143500D01*
X72268292Y-40143500D01*
X72501708Y-40143500D01*
X72501712Y-40143500D01*
X72731951Y-40105080D01*
X72952727Y-40029287D01*
X73158017Y-39918190D01*
X73342220Y-39774818D01*
X73354283Y-39761715D01*
X73500314Y-39603083D01*
X73568438Y-39498811D01*
X73627984Y-39407669D01*
X73721749Y-39193907D01*
X73779051Y-38967626D01*
X73798327Y-38735000D01*
X73779051Y-38502374D01*
X73734916Y-38328087D01*
X73721750Y-38276096D01*
X73721747Y-38276089D01*
X73688406Y-38200080D01*
X73627984Y-38062331D01*
X73595878Y-38013189D01*
X73500314Y-37866916D01*
X73426148Y-37786350D01*
X74151500Y-37786350D01*
X74151500Y-39683649D01*
X74158009Y-39744196D01*
X74158011Y-39744204D01*
X74209110Y-39881202D01*
X74209112Y-39881207D01*
X74296738Y-39998261D01*
X74413792Y-40085887D01*
X74413794Y-40085888D01*
X74413796Y-40085889D01*
X74465243Y-40105078D01*
X74550795Y-40136988D01*
X74550803Y-40136990D01*
X74611350Y-40143499D01*
X74611355Y-40143499D01*
X74611362Y-40143500D01*
X74611368Y-40143500D01*
X76508632Y-40143500D01*
X76508638Y-40143500D01*
X76508645Y-40143499D01*
X76508649Y-40143499D01*
X76569196Y-40136990D01*
X76569199Y-40136989D01*
X76569201Y-40136989D01*
X76706204Y-40085889D01*
X76712459Y-40081207D01*
X76823261Y-39998261D01*
X76910886Y-39881208D01*
X76910885Y-39881208D01*
X76910889Y-39881204D01*
X76934258Y-39818547D01*
X76976804Y-39761715D01*
X77043325Y-39736904D01*
X77112699Y-39751996D01*
X77138294Y-39771996D01*
X77138946Y-39771289D01*
X77142778Y-39774817D01*
X77178646Y-39802734D01*
X77326983Y-39918190D01*
X77532273Y-40029287D01*
X77753049Y-40105080D01*
X77983288Y-40143500D01*
X77983292Y-40143500D01*
X78216708Y-40143500D01*
X78216712Y-40143500D01*
X78446951Y-40105080D01*
X78667727Y-40029287D01*
X78873017Y-39918190D01*
X79057220Y-39774818D01*
X79069283Y-39761715D01*
X79215314Y-39603083D01*
X79283438Y-39498811D01*
X79342984Y-39407669D01*
X79436749Y-39193907D01*
X79494051Y-38967626D01*
X79513327Y-38735000D01*
X79494051Y-38502374D01*
X79449916Y-38328087D01*
X79436750Y-38276096D01*
X79436747Y-38276089D01*
X79403406Y-38200080D01*
X79342984Y-38062331D01*
X79310878Y-38013189D01*
X79215314Y-37866916D01*
X79057225Y-37695186D01*
X79057221Y-37695182D01*
X78965118Y-37623496D01*
X78873017Y-37551810D01*
X78667727Y-37440713D01*
X78667724Y-37440712D01*
X78667723Y-37440711D01*
X78446955Y-37364921D01*
X78446948Y-37364919D01*
X78348411Y-37348476D01*
X78216712Y-37326500D01*
X77983288Y-37326500D01*
X77868066Y-37345727D01*
X77753051Y-37364919D01*
X77753044Y-37364921D01*
X77532276Y-37440711D01*
X77532273Y-37440713D01*
X77326985Y-37551809D01*
X77326983Y-37551810D01*
X77142778Y-37695182D01*
X77138946Y-37698711D01*
X77137581Y-37697228D01*
X77084129Y-37729333D01*
X77013165Y-37727180D01*
X76954630Y-37687003D01*
X76934258Y-37651449D01*
X76910889Y-37588797D01*
X76910887Y-37588792D01*
X76823261Y-37471738D01*
X76706207Y-37384112D01*
X76706202Y-37384110D01*
X76569204Y-37333011D01*
X76569196Y-37333009D01*
X76508649Y-37326500D01*
X76508638Y-37326500D01*
X74611362Y-37326500D01*
X74611350Y-37326500D01*
X74550803Y-37333009D01*
X74550795Y-37333011D01*
X74413797Y-37384110D01*
X74413792Y-37384112D01*
X74296738Y-37471738D01*
X74209112Y-37588792D01*
X74209110Y-37588797D01*
X74158011Y-37725795D01*
X74158009Y-37725803D01*
X74151500Y-37786350D01*
X73426148Y-37786350D01*
X73342225Y-37695186D01*
X73342221Y-37695182D01*
X73250118Y-37623496D01*
X73158017Y-37551810D01*
X72952727Y-37440713D01*
X72952724Y-37440712D01*
X72952723Y-37440711D01*
X72731955Y-37364921D01*
X72731948Y-37364919D01*
X72633411Y-37348476D01*
X72501712Y-37326500D01*
X72268288Y-37326500D01*
X72153066Y-37345727D01*
X72038051Y-37364919D01*
X72038044Y-37364921D01*
X71817276Y-37440711D01*
X71817273Y-37440713D01*
X71611985Y-37551809D01*
X71611983Y-37551810D01*
X71427778Y-37695182D01*
X71423946Y-37698711D01*
X71422581Y-37697228D01*
X71369129Y-37729333D01*
X71298165Y-37727180D01*
X71239630Y-37687003D01*
X71219258Y-37651449D01*
X71195889Y-37588797D01*
X71195887Y-37588792D01*
X71108261Y-37471738D01*
X70991207Y-37384112D01*
X70991202Y-37384110D01*
X70854204Y-37333011D01*
X70854196Y-37333009D01*
X70793649Y-37326500D01*
X70793638Y-37326500D01*
X68896362Y-37326500D01*
X68896350Y-37326500D01*
X68835803Y-37333009D01*
X68835795Y-37333011D01*
X68698797Y-37384110D01*
X68698792Y-37384112D01*
X68581738Y-37471738D01*
X68494112Y-37588792D01*
X68494110Y-37588797D01*
X68443011Y-37725795D01*
X68443009Y-37725803D01*
X68436500Y-37786350D01*
X68077500Y-37786350D01*
X68077500Y-32753028D01*
X68097078Y-32686350D01*
X69776500Y-32686350D01*
X69776500Y-34483649D01*
X69783009Y-34544196D01*
X69783011Y-34544204D01*
X69834110Y-34681202D01*
X69834112Y-34681207D01*
X69921738Y-34798261D01*
X70038792Y-34885887D01*
X70038794Y-34885888D01*
X70038796Y-34885889D01*
X70092600Y-34905957D01*
X70175795Y-34936988D01*
X70175803Y-34936990D01*
X70236350Y-34943499D01*
X70236355Y-34943499D01*
X70236362Y-34943500D01*
X70236368Y-34943500D01*
X72033632Y-34943500D01*
X72033638Y-34943500D01*
X72033645Y-34943499D01*
X72033649Y-34943499D01*
X72094196Y-34936990D01*
X72094199Y-34936989D01*
X72094201Y-34936989D01*
X72231204Y-34885889D01*
X72233350Y-34884283D01*
X72348261Y-34798261D01*
X72435886Y-34681208D01*
X72435885Y-34681208D01*
X72435889Y-34681204D01*
X72479999Y-34562939D01*
X72522545Y-34506107D01*
X72589066Y-34481296D01*
X72658440Y-34496388D01*
X72690753Y-34521635D01*
X72728779Y-34562942D01*
X72751762Y-34587908D01*
X72806331Y-34630381D01*
X72929424Y-34726189D01*
X73127426Y-34833342D01*
X73127427Y-34833342D01*
X73127428Y-34833343D01*
X73239227Y-34871723D01*
X73340365Y-34906444D01*
X73562431Y-34943500D01*
X73562435Y-34943500D01*
X73787565Y-34943500D01*
X73787569Y-34943500D01*
X74009635Y-34906444D01*
X74222574Y-34833342D01*
X74420576Y-34726189D01*
X74598240Y-34587906D01*
X74750722Y-34422268D01*
X74839816Y-34285898D01*
X74893819Y-34239810D01*
X74964167Y-34230235D01*
X75028524Y-34260212D01*
X75050782Y-34285898D01*
X75139674Y-34421958D01*
X75292097Y-34587534D01*
X75469698Y-34725767D01*
X75469699Y-34725768D01*
X75667628Y-34832882D01*
X75667630Y-34832883D01*
X75880483Y-34905955D01*
X75880492Y-34905957D01*
X75961000Y-34919391D01*
X75961000Y-34015702D01*
X76022007Y-34050925D01*
X76149174Y-34085000D01*
X76280826Y-34085000D01*
X76407993Y-34050925D01*
X76469000Y-34015702D01*
X76469000Y-34919390D01*
X76549507Y-34905957D01*
X76549516Y-34905955D01*
X76762369Y-34832883D01*
X76762371Y-34832882D01*
X76960300Y-34725768D01*
X76960301Y-34725767D01*
X77137902Y-34587534D01*
X77290325Y-34421958D01*
X77413419Y-34233548D01*
X77503820Y-34027456D01*
X77503823Y-34027449D01*
X77551544Y-33839000D01*
X76645703Y-33839000D01*
X76680925Y-33777993D01*
X76715000Y-33650826D01*
X76715000Y-33519174D01*
X76680925Y-33392007D01*
X76645703Y-33331000D01*
X77551544Y-33331000D01*
X77551544Y-33330999D01*
X77503823Y-33142550D01*
X77503820Y-33142543D01*
X77413419Y-32936451D01*
X77290325Y-32748041D01*
X77137902Y-32582465D01*
X76960301Y-32444232D01*
X76960300Y-32444231D01*
X76762371Y-32337117D01*
X76762369Y-32337116D01*
X76549512Y-32264043D01*
X76549501Y-32264040D01*
X76469000Y-32250606D01*
X76469000Y-33154297D01*
X76407993Y-33119075D01*
X76280826Y-33085000D01*
X76149174Y-33085000D01*
X76022007Y-33119075D01*
X75961000Y-33154297D01*
X75961000Y-32250607D01*
X75960999Y-32250606D01*
X75880498Y-32264040D01*
X75880487Y-32264043D01*
X75667630Y-32337116D01*
X75667628Y-32337117D01*
X75469699Y-32444231D01*
X75469698Y-32444232D01*
X75292097Y-32582465D01*
X75139670Y-32748045D01*
X75050780Y-32884101D01*
X74996776Y-32930189D01*
X74926428Y-32939764D01*
X74862071Y-32909786D01*
X74839816Y-32884101D01*
X74782017Y-32795632D01*
X74750724Y-32747734D01*
X74750720Y-32747729D01*
X74621220Y-32607057D01*
X74598240Y-32582094D01*
X74598239Y-32582093D01*
X74598237Y-32582091D01*
X74478367Y-32488792D01*
X74420576Y-32443811D01*
X74222574Y-32336658D01*
X74222572Y-32336657D01*
X74222571Y-32336656D01*
X74009639Y-32263557D01*
X74009630Y-32263555D01*
X73932029Y-32250606D01*
X73787569Y-32226500D01*
X73562431Y-32226500D01*
X73417971Y-32250606D01*
X73340369Y-32263555D01*
X73340360Y-32263557D01*
X73127428Y-32336656D01*
X73127426Y-32336658D01*
X72959149Y-32427725D01*
X72929426Y-32443810D01*
X72929424Y-32443811D01*
X72751762Y-32582091D01*
X72690754Y-32648363D01*
X72629901Y-32684933D01*
X72558936Y-32682798D01*
X72500391Y-32642636D01*
X72479999Y-32607057D01*
X72455265Y-32540744D01*
X72435889Y-32488796D01*
X72435888Y-32488794D01*
X72435887Y-32488792D01*
X72348261Y-32371738D01*
X72231207Y-32284112D01*
X72231202Y-32284110D01*
X72094204Y-32233011D01*
X72094196Y-32233009D01*
X72033649Y-32226500D01*
X72033638Y-32226500D01*
X70236362Y-32226500D01*
X70236350Y-32226500D01*
X70175803Y-32233009D01*
X70175795Y-32233011D01*
X70038797Y-32284110D01*
X70038792Y-32284112D01*
X69921738Y-32371738D01*
X69834112Y-32488792D01*
X69834110Y-32488797D01*
X69783011Y-32625795D01*
X69783009Y-32625803D01*
X69776500Y-32686350D01*
X68097078Y-32686350D01*
X68097502Y-32684907D01*
X68114405Y-32663933D01*
X69493933Y-31284405D01*
X69556245Y-31250379D01*
X69583028Y-31247500D01*
X79859059Y-31247500D01*
X79927180Y-31267502D01*
G37*
%TD.AperFunction*%
%TA.AperFunction,Conductor*%
G36*
X95504000Y-32589297D02*
G01*
X95442993Y-32554075D01*
X95315826Y-32520000D01*
X95184174Y-32520000D01*
X95057007Y-32554075D01*
X94996000Y-32589297D01*
X94996000Y-30910702D01*
X95057007Y-30945925D01*
X95184174Y-30980000D01*
X95315826Y-30980000D01*
X95442993Y-30945925D01*
X95504000Y-30910702D01*
X95504000Y-32589297D01*
G37*
%TD.AperFunction*%
%TA.AperFunction,Conductor*%
G36*
X98991621Y-20350502D02*
G01*
X99038114Y-20404158D01*
X99049500Y-20456500D01*
X99049500Y-58283500D01*
X99029498Y-58351621D01*
X98975842Y-58398114D01*
X98923500Y-58409500D01*
X20456500Y-58409500D01*
X20388379Y-58389498D01*
X20341886Y-58335842D01*
X20330500Y-58283500D01*
X20330500Y-52491350D01*
X30441500Y-52491350D01*
X30441500Y-54188649D01*
X30448009Y-54249196D01*
X30448011Y-54249204D01*
X30499110Y-54386202D01*
X30499112Y-54386207D01*
X30586738Y-54503261D01*
X30703792Y-54590887D01*
X30703794Y-54590888D01*
X30703796Y-54590889D01*
X30762875Y-54612924D01*
X30840795Y-54641988D01*
X30840803Y-54641990D01*
X30901350Y-54648499D01*
X30901355Y-54648499D01*
X30901362Y-54648500D01*
X30901368Y-54648500D01*
X32598632Y-54648500D01*
X32598638Y-54648500D01*
X32598645Y-54648499D01*
X32598649Y-54648499D01*
X32659196Y-54641990D01*
X32659199Y-54641989D01*
X32659201Y-54641989D01*
X32796204Y-54590889D01*
X32811707Y-54579284D01*
X32913261Y-54503261D01*
X33000887Y-54386207D01*
X33000887Y-54386206D01*
X33000889Y-54386204D01*
X33051989Y-54249201D01*
X33058500Y-54188638D01*
X33058500Y-53340000D01*
X34246502Y-53340000D01*
X34266457Y-53568087D01*
X34267797Y-53573087D01*
X34325715Y-53789240D01*
X34325717Y-53789246D01*
X34422477Y-53996749D01*
X34553802Y-54184300D01*
X34715700Y-54346198D01*
X34903251Y-54477523D01*
X35110757Y-54574284D01*
X35331913Y-54633543D01*
X35560000Y-54653498D01*
X35788087Y-54633543D01*
X36009243Y-54574284D01*
X36216749Y-54477523D01*
X36404300Y-54346198D01*
X36566198Y-54184300D01*
X36697523Y-53996749D01*
X36794284Y-53789243D01*
X36853543Y-53568087D01*
X36873498Y-53340000D01*
X38056502Y-53340000D01*
X38076457Y-53568087D01*
X38077797Y-53573087D01*
X38135715Y-53789240D01*
X38135717Y-53789246D01*
X38232477Y-53996749D01*
X38363802Y-54184300D01*
X38525700Y-54346198D01*
X38713251Y-54477523D01*
X38920757Y-54574284D01*
X39141913Y-54633543D01*
X39370000Y-54653498D01*
X39598087Y-54633543D01*
X39819243Y-54574284D01*
X40026749Y-54477523D01*
X40214300Y-54346198D01*
X40376198Y-54184300D01*
X40507523Y-53996749D01*
X40604284Y-53789243D01*
X40663543Y-53568087D01*
X40683498Y-53340000D01*
X40676499Y-53260000D01*
X41866502Y-53260000D01*
X41886457Y-53488086D01*
X41945715Y-53709240D01*
X41945717Y-53709246D01*
X41985350Y-53794240D01*
X42042477Y-53916749D01*
X42173802Y-54104300D01*
X42335700Y-54266198D01*
X42523251Y-54397523D01*
X42730757Y-54494284D01*
X42951913Y-54553543D01*
X43180000Y-54573498D01*
X43408087Y-54553543D01*
X43629243Y-54494284D01*
X43836749Y-54397523D01*
X44024300Y-54266198D01*
X44186198Y-54104300D01*
X44317523Y-53916749D01*
X44414284Y-53709243D01*
X44473543Y-53488087D01*
X44493498Y-53260000D01*
X44473543Y-53031913D01*
X44414284Y-52810757D01*
X44317523Y-52603251D01*
X44239169Y-52491350D01*
X45681500Y-52491350D01*
X45681500Y-54188649D01*
X45688009Y-54249196D01*
X45688011Y-54249204D01*
X45739110Y-54386202D01*
X45739112Y-54386207D01*
X45826738Y-54503261D01*
X45943792Y-54590887D01*
X45943794Y-54590888D01*
X45943796Y-54590889D01*
X46002875Y-54612924D01*
X46080795Y-54641988D01*
X46080803Y-54641990D01*
X46141350Y-54648499D01*
X46141355Y-54648499D01*
X46141362Y-54648500D01*
X46141368Y-54648500D01*
X47838632Y-54648500D01*
X47838638Y-54648500D01*
X47838645Y-54648499D01*
X47838649Y-54648499D01*
X47899196Y-54641990D01*
X47899199Y-54641989D01*
X47899201Y-54641989D01*
X48036204Y-54590889D01*
X48051707Y-54579284D01*
X48153261Y-54503261D01*
X48240887Y-54386207D01*
X48240887Y-54386206D01*
X48240889Y-54386204D01*
X48291989Y-54249201D01*
X48298500Y-54188638D01*
X48298500Y-53340000D01*
X63456502Y-53340000D01*
X63476457Y-53568087D01*
X63477797Y-53573087D01*
X63535715Y-53789240D01*
X63535717Y-53789246D01*
X63632477Y-53996749D01*
X63763802Y-54184300D01*
X63925700Y-54346198D01*
X64113251Y-54477523D01*
X64320757Y-54574284D01*
X64541913Y-54633543D01*
X64770000Y-54653498D01*
X64998087Y-54633543D01*
X65219243Y-54574284D01*
X65426749Y-54477523D01*
X65614300Y-54346198D01*
X65776198Y-54184300D01*
X65907523Y-53996749D01*
X66004284Y-53789243D01*
X66063543Y-53568087D01*
X66083498Y-53340000D01*
X68536502Y-53340000D01*
X68556457Y-53568087D01*
X68557797Y-53573087D01*
X68615715Y-53789240D01*
X68615717Y-53789246D01*
X68712477Y-53996749D01*
X68843802Y-54184300D01*
X69005700Y-54346198D01*
X69193251Y-54477523D01*
X69400757Y-54574284D01*
X69621913Y-54633543D01*
X69850000Y-54653498D01*
X70078087Y-54633543D01*
X70299243Y-54574284D01*
X70506749Y-54477523D01*
X70694300Y-54346198D01*
X70856198Y-54184300D01*
X70987523Y-53996749D01*
X71084284Y-53789243D01*
X71143543Y-53568087D01*
X71163498Y-53340000D01*
X74251502Y-53340000D01*
X74271457Y-53568087D01*
X74272797Y-53573087D01*
X74330715Y-53789240D01*
X74330717Y-53789246D01*
X74427477Y-53996749D01*
X74558802Y-54184300D01*
X74720700Y-54346198D01*
X74908251Y-54477523D01*
X75115757Y-54574284D01*
X75336913Y-54633543D01*
X75565000Y-54653498D01*
X75793087Y-54633543D01*
X76014243Y-54574284D01*
X76221749Y-54477523D01*
X76409300Y-54346198D01*
X76571198Y-54184300D01*
X76702523Y-53996749D01*
X76799284Y-53789243D01*
X76858543Y-53568087D01*
X76878498Y-53340000D01*
X76858543Y-53111913D01*
X76799284Y-52890757D01*
X76702523Y-52683251D01*
X76571198Y-52495700D01*
X76409300Y-52333802D01*
X76295048Y-52253802D01*
X76221749Y-52202477D01*
X76014246Y-52105717D01*
X76014240Y-52105715D01*
X75896897Y-52074273D01*
X75793087Y-52046457D01*
X75565000Y-52026502D01*
X75336913Y-52046457D01*
X75115759Y-52105715D01*
X75115753Y-52105717D01*
X74908250Y-52202477D01*
X74720703Y-52333799D01*
X74720697Y-52333804D01*
X74558804Y-52495697D01*
X74558799Y-52495703D01*
X74427477Y-52683250D01*
X74330717Y-52890753D01*
X74330715Y-52890759D01*
X74308877Y-52972259D01*
X74271457Y-53111913D01*
X74251502Y-53340000D01*
X71163498Y-53340000D01*
X71143543Y-53111913D01*
X71084284Y-52890757D01*
X70987523Y-52683251D01*
X70856198Y-52495700D01*
X70694300Y-52333802D01*
X70580048Y-52253802D01*
X70506749Y-52202477D01*
X70299246Y-52105717D01*
X70299240Y-52105715D01*
X70181897Y-52074273D01*
X70078087Y-52046457D01*
X69850000Y-52026502D01*
X69621913Y-52046457D01*
X69400759Y-52105715D01*
X69400753Y-52105717D01*
X69193250Y-52202477D01*
X69005703Y-52333799D01*
X69005697Y-52333804D01*
X68843804Y-52495697D01*
X68843799Y-52495703D01*
X68712477Y-52683250D01*
X68615717Y-52890753D01*
X68615715Y-52890759D01*
X68593877Y-52972259D01*
X68556457Y-53111913D01*
X68536502Y-53340000D01*
X66083498Y-53340000D01*
X66063543Y-53111913D01*
X66004284Y-52890757D01*
X65907523Y-52683251D01*
X65776198Y-52495700D01*
X65614300Y-52333802D01*
X65500048Y-52253802D01*
X65426749Y-52202477D01*
X65219246Y-52105717D01*
X65219240Y-52105715D01*
X65101897Y-52074273D01*
X64998087Y-52046457D01*
X64770000Y-52026502D01*
X64541913Y-52046457D01*
X64320759Y-52105715D01*
X64320753Y-52105717D01*
X64113250Y-52202477D01*
X63925703Y-52333799D01*
X63925697Y-52333804D01*
X63763804Y-52495697D01*
X63763799Y-52495703D01*
X63632477Y-52683250D01*
X63535717Y-52890753D01*
X63535715Y-52890759D01*
X63513877Y-52972259D01*
X63476457Y-53111913D01*
X63456502Y-53340000D01*
X48298500Y-53340000D01*
X48298500Y-52491362D01*
X48298499Y-52491350D01*
X48291990Y-52430803D01*
X48291988Y-52430795D01*
X48257676Y-52338804D01*
X48240889Y-52293796D01*
X48240888Y-52293794D01*
X48240887Y-52293792D01*
X48153261Y-52176738D01*
X48036207Y-52089112D01*
X48036202Y-52089110D01*
X47899204Y-52038011D01*
X47899196Y-52038009D01*
X47838649Y-52031500D01*
X47838638Y-52031500D01*
X46141362Y-52031500D01*
X46141350Y-52031500D01*
X46080803Y-52038009D01*
X46080795Y-52038011D01*
X45943797Y-52089110D01*
X45943792Y-52089112D01*
X45826738Y-52176738D01*
X45739112Y-52293792D01*
X45739110Y-52293797D01*
X45688011Y-52430795D01*
X45688009Y-52430803D01*
X45681500Y-52491350D01*
X44239169Y-52491350D01*
X44186198Y-52415700D01*
X44024300Y-52253802D01*
X43836749Y-52122477D01*
X43733375Y-52074273D01*
X43629246Y-52025717D01*
X43629240Y-52025715D01*
X43528154Y-51998629D01*
X43408087Y-51966457D01*
X43180000Y-51946502D01*
X42951913Y-51966457D01*
X42730759Y-52025715D01*
X42730753Y-52025717D01*
X42523250Y-52122477D01*
X42335703Y-52253799D01*
X42335697Y-52253804D01*
X42173804Y-52415697D01*
X42173799Y-52415703D01*
X42042477Y-52603250D01*
X41945717Y-52810753D01*
X41945715Y-52810759D01*
X41886457Y-53031913D01*
X41866502Y-53260000D01*
X40676499Y-53260000D01*
X40663543Y-53111913D01*
X40604284Y-52890757D01*
X40507523Y-52683251D01*
X40376198Y-52495700D01*
X40214300Y-52333802D01*
X40100048Y-52253802D01*
X40026749Y-52202477D01*
X39819246Y-52105717D01*
X39819240Y-52105715D01*
X39701897Y-52074273D01*
X39598087Y-52046457D01*
X39370000Y-52026502D01*
X39141913Y-52046457D01*
X38920759Y-52105715D01*
X38920753Y-52105717D01*
X38713250Y-52202477D01*
X38525703Y-52333799D01*
X38525697Y-52333804D01*
X38363804Y-52495697D01*
X38363799Y-52495703D01*
X38232477Y-52683250D01*
X38135717Y-52890753D01*
X38135715Y-52890759D01*
X38113877Y-52972259D01*
X38076457Y-53111913D01*
X38056502Y-53340000D01*
X36873498Y-53340000D01*
X36853543Y-53111913D01*
X36794284Y-52890757D01*
X36697523Y-52683251D01*
X36566198Y-52495700D01*
X36404300Y-52333802D01*
X36290048Y-52253802D01*
X36216749Y-52202477D01*
X36009246Y-52105717D01*
X36009240Y-52105715D01*
X35891897Y-52074273D01*
X35788087Y-52046457D01*
X35560000Y-52026502D01*
X35331913Y-52046457D01*
X35110759Y-52105715D01*
X35110753Y-52105717D01*
X34903250Y-52202477D01*
X34715703Y-52333799D01*
X34715697Y-52333804D01*
X34553804Y-52495697D01*
X34553799Y-52495703D01*
X34422477Y-52683250D01*
X34325717Y-52890753D01*
X34325715Y-52890759D01*
X34303877Y-52972259D01*
X34266457Y-53111913D01*
X34246502Y-53340000D01*
X33058500Y-53340000D01*
X33058500Y-52491362D01*
X33058499Y-52491350D01*
X33051990Y-52430803D01*
X33051988Y-52430795D01*
X33017676Y-52338804D01*
X33000889Y-52293796D01*
X33000888Y-52293794D01*
X33000887Y-52293792D01*
X32913261Y-52176738D01*
X32796207Y-52089112D01*
X32796202Y-52089110D01*
X32659204Y-52038011D01*
X32659196Y-52038009D01*
X32598649Y-52031500D01*
X32598638Y-52031500D01*
X30901362Y-52031500D01*
X30901350Y-52031500D01*
X30840803Y-52038009D01*
X30840795Y-52038011D01*
X30703797Y-52089110D01*
X30703792Y-52089112D01*
X30586738Y-52176738D01*
X30499112Y-52293792D01*
X30499110Y-52293797D01*
X30448011Y-52430795D01*
X30448009Y-52430803D01*
X30441500Y-52491350D01*
X20330500Y-52491350D01*
X20330500Y-48193084D01*
X22621500Y-48193084D01*
X22621500Y-48406916D01*
X22654951Y-48618116D01*
X22654952Y-48618121D01*
X22703488Y-48767500D01*
X22721028Y-48821483D01*
X22818106Y-49012009D01*
X22943794Y-49185004D01*
X22943796Y-49185006D01*
X22943798Y-49185009D01*
X23074468Y-49315679D01*
X23108494Y-49377991D01*
X23103429Y-49448806D01*
X23060882Y-49505642D01*
X23051520Y-49512015D01*
X22906660Y-49601365D01*
X22906654Y-49601370D01*
X22781370Y-49726654D01*
X22781365Y-49726660D01*
X22688342Y-49877474D01*
X22632606Y-50045678D01*
X22632605Y-50045681D01*
X22622000Y-50149483D01*
X22622000Y-50546000D01*
X23699297Y-50546000D01*
X23664075Y-50607007D01*
X23630000Y-50734174D01*
X23630000Y-50865826D01*
X23664075Y-50992993D01*
X23699297Y-51054000D01*
X22622000Y-51054000D01*
X22622000Y-51450516D01*
X22632605Y-51554318D01*
X22632606Y-51554321D01*
X22688342Y-51722525D01*
X22781365Y-51873339D01*
X22781370Y-51873345D01*
X22906654Y-51998629D01*
X22906660Y-51998634D01*
X23057474Y-52091657D01*
X23225678Y-52147393D01*
X23225681Y-52147394D01*
X23329483Y-52157999D01*
X23329483Y-52158000D01*
X23876000Y-52158000D01*
X23876000Y-51230702D01*
X23937007Y-51265925D01*
X24064174Y-51300000D01*
X24195826Y-51300000D01*
X24322993Y-51265925D01*
X24384000Y-51230702D01*
X24384000Y-52158000D01*
X24930517Y-52158000D01*
X24930516Y-52157999D01*
X25034318Y-52147394D01*
X25034321Y-52147393D01*
X25202525Y-52091657D01*
X25353339Y-51998634D01*
X25353345Y-51998629D01*
X25478629Y-51873345D01*
X25478634Y-51873339D01*
X25571657Y-51722525D01*
X25627393Y-51554321D01*
X25627394Y-51554318D01*
X25637999Y-51450516D01*
X25638000Y-51450516D01*
X25638000Y-51054000D01*
X24560703Y-51054000D01*
X24595925Y-50992993D01*
X24630000Y-50865826D01*
X24630000Y-50734174D01*
X24595925Y-50607007D01*
X24560703Y-50546000D01*
X25638000Y-50546000D01*
X25638000Y-50149483D01*
X25627394Y-50045681D01*
X25627393Y-50045678D01*
X25571657Y-49877474D01*
X25478634Y-49726660D01*
X25478629Y-49726654D01*
X25353345Y-49601370D01*
X25353339Y-49601365D01*
X25208479Y-49512015D01*
X25161001Y-49459229D01*
X25149598Y-49389154D01*
X25177890Y-49324039D01*
X25185520Y-49315689D01*
X25316206Y-49185004D01*
X25441894Y-49012009D01*
X25538972Y-48821483D01*
X25605049Y-48618116D01*
X25638500Y-48406916D01*
X25638500Y-48260000D01*
X41867004Y-48260000D01*
X41886951Y-48488002D01*
X41946186Y-48709068D01*
X41946188Y-48709073D01*
X42042913Y-48916501D01*
X42092899Y-48987888D01*
X42780000Y-48300788D01*
X42780000Y-48312661D01*
X42807259Y-48414394D01*
X42859920Y-48505606D01*
X42934394Y-48580080D01*
X43025606Y-48632741D01*
X43127339Y-48660000D01*
X43139210Y-48660000D01*
X42452110Y-49347098D01*
X42452110Y-49347100D01*
X42523498Y-49397086D01*
X42730926Y-49493811D01*
X42730931Y-49493813D01*
X42951999Y-49553048D01*
X42951995Y-49553048D01*
X43180000Y-49572995D01*
X43408002Y-49553048D01*
X43629068Y-49493813D01*
X43629073Y-49493811D01*
X43836497Y-49397088D01*
X43907888Y-49347099D01*
X43907888Y-49347097D01*
X43220791Y-48660000D01*
X43232661Y-48660000D01*
X43334394Y-48632741D01*
X43425606Y-48580080D01*
X43500080Y-48505606D01*
X43552741Y-48414394D01*
X43580000Y-48312661D01*
X43580000Y-48300791D01*
X44267097Y-48987888D01*
X44267099Y-48987888D01*
X44317088Y-48916497D01*
X44413811Y-48709073D01*
X44413813Y-48709068D01*
X44473048Y-48488002D01*
X44492995Y-48260000D01*
X44473048Y-48031997D01*
X44413813Y-47810931D01*
X44413811Y-47810926D01*
X44317086Y-47603498D01*
X44267100Y-47532110D01*
X44267098Y-47532110D01*
X43580000Y-48219208D01*
X43580000Y-48207339D01*
X43552741Y-48105606D01*
X43500080Y-48014394D01*
X43425606Y-47939920D01*
X43334394Y-47887259D01*
X43232661Y-47860000D01*
X43220790Y-47860000D01*
X43907888Y-47172899D01*
X43907888Y-47172898D01*
X43836501Y-47122913D01*
X43629073Y-47026188D01*
X43629068Y-47026186D01*
X43408000Y-46966951D01*
X43408004Y-46966951D01*
X43180000Y-46947004D01*
X42951997Y-46966951D01*
X42730931Y-47026186D01*
X42730926Y-47026188D01*
X42523500Y-47122913D01*
X42452109Y-47172900D01*
X43139209Y-47860000D01*
X43127339Y-47860000D01*
X43025606Y-47887259D01*
X42934394Y-47939920D01*
X42859920Y-48014394D01*
X42807259Y-48105606D01*
X42780000Y-48207339D01*
X42780000Y-48219209D01*
X42092900Y-47532109D01*
X42042913Y-47603500D01*
X41946188Y-47810926D01*
X41946186Y-47810931D01*
X41886951Y-48031997D01*
X41867004Y-48260000D01*
X25638500Y-48260000D01*
X25638500Y-48193084D01*
X25605049Y-47981884D01*
X25538972Y-47778517D01*
X25441894Y-47587991D01*
X25316206Y-47414996D01*
X25316203Y-47414993D01*
X25316201Y-47414990D01*
X25165009Y-47263798D01*
X25165006Y-47263796D01*
X25165004Y-47263794D01*
X24992009Y-47138106D01*
X24801483Y-47041028D01*
X24801480Y-47041027D01*
X24801478Y-47041026D01*
X24598120Y-46974952D01*
X24598123Y-46974952D01*
X24547606Y-46966951D01*
X24386916Y-46941500D01*
X23873084Y-46941500D01*
X23661884Y-46974951D01*
X23661878Y-46974952D01*
X23458521Y-47041026D01*
X23458515Y-47041029D01*
X23267987Y-47138108D01*
X23094993Y-47263796D01*
X23094990Y-47263798D01*
X22943798Y-47414990D01*
X22943796Y-47414993D01*
X22818108Y-47587987D01*
X22721029Y-47778515D01*
X22721026Y-47778521D01*
X22654952Y-47981878D01*
X22654951Y-47981883D01*
X22654951Y-47981884D01*
X22621500Y-48193084D01*
X20330500Y-48193084D01*
X20330500Y-43180000D01*
X30436502Y-43180000D01*
X30456457Y-43408087D01*
X30473691Y-43472405D01*
X30515715Y-43629240D01*
X30515717Y-43629246D01*
X30612477Y-43836749D01*
X30738879Y-44017270D01*
X30743802Y-44024300D01*
X30905700Y-44186198D01*
X31093251Y-44317523D01*
X31300757Y-44414284D01*
X31521913Y-44473543D01*
X31750000Y-44493498D01*
X31978087Y-44473543D01*
X32199243Y-44414284D01*
X32406749Y-44317523D01*
X32594300Y-44186198D01*
X32756198Y-44024300D01*
X32887523Y-43836749D01*
X32984284Y-43629243D01*
X33043543Y-43408087D01*
X33063498Y-43180000D01*
X34246502Y-43180000D01*
X34266457Y-43408087D01*
X34283691Y-43472405D01*
X34325715Y-43629240D01*
X34325717Y-43629246D01*
X34422477Y-43836749D01*
X34548879Y-44017270D01*
X34553802Y-44024300D01*
X34715700Y-44186198D01*
X34903251Y-44317523D01*
X35110757Y-44414284D01*
X35331913Y-44473543D01*
X35560000Y-44493498D01*
X35788087Y-44473543D01*
X36009243Y-44414284D01*
X36216749Y-44317523D01*
X36404300Y-44186198D01*
X36566198Y-44024300D01*
X36697523Y-43836749D01*
X36794284Y-43629243D01*
X36853543Y-43408087D01*
X36873498Y-43180000D01*
X36853543Y-42951913D01*
X36846600Y-42926000D01*
X38083917Y-42926000D01*
X39058314Y-42926000D01*
X39049920Y-42934394D01*
X38997259Y-43025606D01*
X38970000Y-43127339D01*
X38970000Y-43232661D01*
X38997259Y-43334394D01*
X39049920Y-43425606D01*
X39058314Y-43434000D01*
X38083918Y-43434000D01*
X38136186Y-43629068D01*
X38136188Y-43629073D01*
X38232912Y-43836498D01*
X38364184Y-44023974D01*
X38364189Y-44023980D01*
X38526019Y-44185810D01*
X38526025Y-44185815D01*
X38713501Y-44317087D01*
X38920926Y-44413811D01*
X38920931Y-44413813D01*
X39116000Y-44466081D01*
X39116000Y-43491686D01*
X39124394Y-43500080D01*
X39215606Y-43552741D01*
X39317339Y-43580000D01*
X39422661Y-43580000D01*
X39524394Y-43552741D01*
X39615606Y-43500080D01*
X39624000Y-43491686D01*
X39624000Y-44466081D01*
X39819068Y-44413813D01*
X39819073Y-44413811D01*
X40026498Y-44317087D01*
X40213974Y-44185815D01*
X40213980Y-44185810D01*
X40375810Y-44023980D01*
X40375815Y-44023974D01*
X40507087Y-43836498D01*
X40603811Y-43629073D01*
X40603813Y-43629068D01*
X40656082Y-43434000D01*
X39681686Y-43434000D01*
X39690080Y-43425606D01*
X39742741Y-43334394D01*
X39770000Y-43232661D01*
X39770000Y-43127339D01*
X39742741Y-43025606D01*
X39690080Y-42934394D01*
X39681686Y-42926000D01*
X40656082Y-42926000D01*
X45703917Y-42926000D01*
X46678314Y-42926000D01*
X46669920Y-42934394D01*
X46617259Y-43025606D01*
X46590000Y-43127339D01*
X46590000Y-43232661D01*
X46617259Y-43334394D01*
X46669920Y-43425606D01*
X46678314Y-43434000D01*
X45703918Y-43434000D01*
X45756186Y-43629068D01*
X45756188Y-43629073D01*
X45852912Y-43836498D01*
X45984184Y-44023974D01*
X45984189Y-44023980D01*
X46146019Y-44185810D01*
X46146025Y-44185815D01*
X46333501Y-44317087D01*
X46540926Y-44413811D01*
X46540931Y-44413813D01*
X46736000Y-44466081D01*
X46736000Y-43491686D01*
X46744394Y-43500080D01*
X46835606Y-43552741D01*
X46937339Y-43580000D01*
X47042661Y-43580000D01*
X47144394Y-43552741D01*
X47235606Y-43500080D01*
X47244000Y-43491686D01*
X47244000Y-44466081D01*
X47439068Y-44413813D01*
X47439073Y-44413811D01*
X47646498Y-44317087D01*
X47833974Y-44185815D01*
X47833980Y-44185810D01*
X47995810Y-44023980D01*
X47995815Y-44023974D01*
X48127087Y-43836498D01*
X48223811Y-43629073D01*
X48223813Y-43629068D01*
X48276082Y-43434000D01*
X47301686Y-43434000D01*
X47310080Y-43425606D01*
X47362741Y-43334394D01*
X47390000Y-43232661D01*
X47390000Y-43127339D01*
X47362741Y-43025606D01*
X47310080Y-42934394D01*
X47301686Y-42926000D01*
X48276082Y-42926000D01*
X48223813Y-42730931D01*
X48223811Y-42730926D01*
X48137112Y-42545000D01*
X52596844Y-42545000D01*
X52612236Y-42730753D01*
X52615437Y-42769375D01*
X52670702Y-42987612D01*
X52670703Y-42987613D01*
X52670704Y-42987616D01*
X52755091Y-43180000D01*
X52761141Y-43193793D01*
X52884275Y-43382265D01*
X52884279Y-43382270D01*
X53036762Y-43547908D01*
X53077994Y-43580000D01*
X53214424Y-43686189D01*
X53248205Y-43704470D01*
X53298596Y-43754482D01*
X53313949Y-43823799D01*
X53289389Y-43890412D01*
X53248209Y-43926096D01*
X53214704Y-43944228D01*
X53214698Y-43944232D01*
X53037097Y-44082465D01*
X52884674Y-44248041D01*
X52761580Y-44436451D01*
X52671179Y-44642543D01*
X52671176Y-44642550D01*
X52623455Y-44830999D01*
X52623456Y-44831000D01*
X53529297Y-44831000D01*
X53494075Y-44892007D01*
X53460000Y-45019174D01*
X53460000Y-45150826D01*
X53494075Y-45277993D01*
X53529297Y-45339000D01*
X52623455Y-45339000D01*
X52671176Y-45527449D01*
X52671179Y-45527456D01*
X52761580Y-45733548D01*
X52884674Y-45921958D01*
X53037097Y-46087534D01*
X53214698Y-46225767D01*
X53214699Y-46225768D01*
X53412628Y-46332882D01*
X53412630Y-46332883D01*
X53625483Y-46405955D01*
X53625492Y-46405957D01*
X53706000Y-46419391D01*
X53706000Y-45515702D01*
X53767007Y-45550925D01*
X53894174Y-45585000D01*
X54025826Y-45585000D01*
X54152993Y-45550925D01*
X54214000Y-45515702D01*
X54214000Y-46419390D01*
X54294507Y-46405957D01*
X54294516Y-46405955D01*
X54507369Y-46332883D01*
X54507371Y-46332882D01*
X54705300Y-46225768D01*
X54705301Y-46225767D01*
X54882902Y-46087534D01*
X55035327Y-45921955D01*
X55124217Y-45785899D01*
X55178220Y-45739810D01*
X55248568Y-45730235D01*
X55312925Y-45760212D01*
X55335183Y-45785898D01*
X55424279Y-45922270D01*
X55576762Y-46087908D01*
X55631331Y-46130381D01*
X55754424Y-46226189D01*
X55952426Y-46333342D01*
X55952427Y-46333342D01*
X55952428Y-46333343D01*
X56055685Y-46368791D01*
X56165365Y-46406444D01*
X56387431Y-46443500D01*
X56387435Y-46443500D01*
X56612566Y-46443500D01*
X56612569Y-46443500D01*
X56636517Y-46439503D01*
X56706997Y-46448018D01*
X56746351Y-46474689D01*
X60287728Y-50016065D01*
X60393935Y-50122272D01*
X60518821Y-50205718D01*
X60657587Y-50263197D01*
X60804900Y-50292500D01*
X79908459Y-50292500D01*
X79976580Y-50312502D01*
X80023073Y-50366158D01*
X80033177Y-50436432D01*
X80030166Y-50451107D01*
X80004740Y-50546000D01*
X79996457Y-50576913D01*
X79976502Y-50805000D01*
X79996457Y-51033086D01*
X80055715Y-51254240D01*
X80055717Y-51254246D01*
X80146435Y-51448791D01*
X80152477Y-51461749D01*
X80283802Y-51649300D01*
X80445700Y-51811198D01*
X80633251Y-51942523D01*
X80672457Y-51960805D01*
X80673047Y-51961080D01*
X80726332Y-52007996D01*
X80745794Y-52076273D01*
X80725253Y-52144233D01*
X80673051Y-52189468D01*
X80633504Y-52207910D01*
X80446025Y-52339184D01*
X80446019Y-52339189D01*
X80284189Y-52501019D01*
X80284184Y-52501025D01*
X80152912Y-52688501D01*
X80056188Y-52895926D01*
X80003917Y-53091000D01*
X80978314Y-53091000D01*
X80969920Y-53099394D01*
X80917259Y-53190606D01*
X80890000Y-53292339D01*
X80890000Y-53397661D01*
X80917259Y-53499394D01*
X80969920Y-53590606D01*
X80978314Y-53599000D01*
X80003918Y-53599000D01*
X80056186Y-53794068D01*
X80056188Y-53794073D01*
X80152912Y-54001498D01*
X80284184Y-54188974D01*
X80284189Y-54188980D01*
X80446019Y-54350810D01*
X80446025Y-54350815D01*
X80633501Y-54482087D01*
X80840926Y-54578811D01*
X80840931Y-54578813D01*
X81036000Y-54631081D01*
X81036000Y-53656686D01*
X81044394Y-53665080D01*
X81135606Y-53717741D01*
X81237339Y-53745000D01*
X81342661Y-53745000D01*
X81444394Y-53717741D01*
X81535606Y-53665080D01*
X81544000Y-53656686D01*
X81544000Y-54631081D01*
X81739068Y-54578813D01*
X81739073Y-54578811D01*
X81946498Y-54482087D01*
X82133974Y-54350815D01*
X82133980Y-54350810D01*
X82295810Y-54188980D01*
X82295815Y-54188974D01*
X82427087Y-54001498D01*
X82523811Y-53794073D01*
X82523813Y-53794068D01*
X82576082Y-53599000D01*
X81601686Y-53599000D01*
X81610080Y-53590606D01*
X81662741Y-53499394D01*
X81690000Y-53397661D01*
X81690000Y-53292339D01*
X81662741Y-53190606D01*
X81610080Y-53099394D01*
X81601686Y-53091000D01*
X82576082Y-53091000D01*
X82523812Y-52895926D01*
X82427087Y-52688501D01*
X82295815Y-52501025D01*
X82295810Y-52501019D01*
X82133980Y-52339189D01*
X82133974Y-52339184D01*
X81946497Y-52207911D01*
X81906949Y-52189469D01*
X81853665Y-52142551D01*
X81834205Y-52074273D01*
X81854748Y-52006314D01*
X81906950Y-51961081D01*
X81946749Y-51942523D01*
X82134300Y-51811198D01*
X82296198Y-51649300D01*
X82427523Y-51461749D01*
X82524284Y-51254243D01*
X82583543Y-51033087D01*
X82603498Y-50805000D01*
X82583543Y-50576913D01*
X82549834Y-50451110D01*
X82551524Y-50380135D01*
X82591318Y-50321339D01*
X82656583Y-50293391D01*
X82671541Y-50292500D01*
X85165100Y-50292500D01*
X85312413Y-50263197D01*
X85451179Y-50205718D01*
X85576065Y-50122273D01*
X86952272Y-48746065D01*
X87035718Y-48621179D01*
X87093197Y-48482413D01*
X87122500Y-48335100D01*
X87122500Y-39103028D01*
X87142502Y-39034907D01*
X87159405Y-39013933D01*
X87268933Y-38904405D01*
X87331245Y-38870379D01*
X87358028Y-38867500D01*
X87780933Y-38867500D01*
X87849054Y-38887502D01*
X87884146Y-38921229D01*
X87903802Y-38949300D01*
X88065700Y-39111198D01*
X88253251Y-39242523D01*
X88288359Y-39258894D01*
X88292457Y-39260805D01*
X88345742Y-39307722D01*
X88365203Y-39375999D01*
X88344661Y-39443959D01*
X88292457Y-39489195D01*
X88253250Y-39507477D01*
X88065703Y-39638799D01*
X88065697Y-39638804D01*
X87903804Y-39800697D01*
X87903799Y-39800703D01*
X87772477Y-39988250D01*
X87675717Y-40195753D01*
X87675715Y-40195759D01*
X87616457Y-40416913D01*
X87596502Y-40645000D01*
X87616457Y-40873086D01*
X87675715Y-41094240D01*
X87675717Y-41094246D01*
X87738973Y-41229900D01*
X87772477Y-41301749D01*
X87903802Y-41489300D01*
X88065700Y-41651198D01*
X88253251Y-41782523D01*
X88288359Y-41798894D01*
X88292457Y-41800805D01*
X88345742Y-41847722D01*
X88365203Y-41915999D01*
X88344661Y-41983959D01*
X88292457Y-42029195D01*
X88253250Y-42047477D01*
X88065703Y-42178799D01*
X88065697Y-42178804D01*
X87903804Y-42340697D01*
X87903799Y-42340703D01*
X87772477Y-42528250D01*
X87675717Y-42735753D01*
X87675715Y-42735759D01*
X87631421Y-42901066D01*
X87616457Y-42956913D01*
X87596502Y-43185000D01*
X87616457Y-43413087D01*
X87622061Y-43434000D01*
X87675715Y-43634240D01*
X87675717Y-43634246D01*
X87772477Y-43841749D01*
X87900072Y-44023974D01*
X87903802Y-44029300D01*
X88065700Y-44191198D01*
X88253251Y-44322523D01*
X88288359Y-44338894D01*
X88292457Y-44340805D01*
X88345742Y-44387722D01*
X88365203Y-44455999D01*
X88344661Y-44523959D01*
X88292457Y-44569195D01*
X88253250Y-44587477D01*
X88065703Y-44718799D01*
X88065697Y-44718804D01*
X87903804Y-44880697D01*
X87903799Y-44880703D01*
X87772477Y-45068250D01*
X87675717Y-45275753D01*
X87675715Y-45275759D01*
X87641310Y-45404162D01*
X87616457Y-45496913D01*
X87596502Y-45725000D01*
X87616457Y-45953087D01*
X87628000Y-45996166D01*
X87675715Y-46174240D01*
X87675717Y-46174246D01*
X87772477Y-46381749D01*
X87871806Y-46523606D01*
X87903802Y-46569300D01*
X88065700Y-46731198D01*
X88253251Y-46862523D01*
X88288359Y-46878894D01*
X88292457Y-46880805D01*
X88345742Y-46927722D01*
X88365203Y-46995999D01*
X88344661Y-47063959D01*
X88292457Y-47109195D01*
X88253250Y-47127477D01*
X88065703Y-47258799D01*
X88065697Y-47258804D01*
X87903804Y-47420697D01*
X87903799Y-47420703D01*
X87772477Y-47608250D01*
X87675717Y-47815753D01*
X87675715Y-47815759D01*
X87663861Y-47860000D01*
X87616457Y-48036913D01*
X87596502Y-48265000D01*
X87616457Y-48493087D01*
X87639767Y-48580080D01*
X87675715Y-48714240D01*
X87675717Y-48714246D01*
X87725723Y-48821484D01*
X87772477Y-48921749D01*
X87903802Y-49109300D01*
X88065700Y-49271198D01*
X88253251Y-49402523D01*
X88288359Y-49418894D01*
X88292457Y-49420805D01*
X88345742Y-49467722D01*
X88365203Y-49535999D01*
X88344661Y-49603959D01*
X88292457Y-49649195D01*
X88253250Y-49667477D01*
X88065703Y-49798799D01*
X88065697Y-49798804D01*
X87903804Y-49960697D01*
X87903799Y-49960703D01*
X87772477Y-50148250D01*
X87675717Y-50355753D01*
X87675715Y-50355759D01*
X87616457Y-50576913D01*
X87596502Y-50805000D01*
X87616457Y-51033086D01*
X87675715Y-51254240D01*
X87675717Y-51254246D01*
X87766435Y-51448791D01*
X87772477Y-51461749D01*
X87903802Y-51649300D01*
X88065700Y-51811198D01*
X88253251Y-51942523D01*
X88288359Y-51958894D01*
X88292457Y-51960805D01*
X88345742Y-52007722D01*
X88365203Y-52075999D01*
X88344661Y-52143959D01*
X88292457Y-52189195D01*
X88253250Y-52207477D01*
X88065703Y-52338799D01*
X88065697Y-52338804D01*
X87903804Y-52500697D01*
X87903799Y-52500703D01*
X87772477Y-52688250D01*
X87675717Y-52895753D01*
X87675715Y-52895759D01*
X87639233Y-53031913D01*
X87616457Y-53116913D01*
X87596502Y-53345000D01*
X87616457Y-53573087D01*
X87641107Y-53665080D01*
X87675715Y-53794240D01*
X87675717Y-53794246D01*
X87772477Y-54001749D01*
X87844285Y-54104302D01*
X87903802Y-54189300D01*
X88065700Y-54351198D01*
X88253251Y-54482523D01*
X88460757Y-54579284D01*
X88681913Y-54638543D01*
X88910000Y-54658498D01*
X89138087Y-54638543D01*
X89359243Y-54579284D01*
X89566749Y-54482523D01*
X89754300Y-54351198D01*
X89916198Y-54189300D01*
X90047523Y-54001749D01*
X90144284Y-53794243D01*
X90203543Y-53573087D01*
X90223498Y-53345000D01*
X90203543Y-53116913D01*
X90144284Y-52895757D01*
X90047523Y-52688251D01*
X89916198Y-52500700D01*
X89754300Y-52338802D01*
X89747159Y-52333802D01*
X89690019Y-52293792D01*
X89566749Y-52207477D01*
X89556026Y-52202477D01*
X89527543Y-52189195D01*
X89474258Y-52142279D01*
X89454796Y-52074002D01*
X89475337Y-52006042D01*
X89527543Y-51960805D01*
X89529997Y-51959660D01*
X89566749Y-51942523D01*
X89754300Y-51811198D01*
X89916198Y-51649300D01*
X90047523Y-51461749D01*
X90144284Y-51254243D01*
X90203543Y-51033087D01*
X90223498Y-50805000D01*
X90203543Y-50576913D01*
X90144284Y-50355757D01*
X90047523Y-50148251D01*
X89916198Y-49960700D01*
X89754300Y-49798802D01*
X89751856Y-49797091D01*
X89651262Y-49726654D01*
X89566749Y-49667477D01*
X89548162Y-49658810D01*
X89527543Y-49649195D01*
X89474258Y-49602279D01*
X89454796Y-49534002D01*
X89475337Y-49466042D01*
X89527543Y-49420805D01*
X89531015Y-49419186D01*
X89566749Y-49402523D01*
X89754300Y-49271198D01*
X89916198Y-49109300D01*
X90047523Y-48921749D01*
X90144284Y-48714243D01*
X90203543Y-48493087D01*
X90223498Y-48265000D01*
X90203543Y-48036913D01*
X90144284Y-47815757D01*
X90047523Y-47608251D01*
X89916198Y-47420700D01*
X89754300Y-47258802D01*
X89751856Y-47257091D01*
X89691998Y-47215177D01*
X89566749Y-47127477D01*
X89556961Y-47122913D01*
X89527543Y-47109195D01*
X89474258Y-47062279D01*
X89454796Y-46994002D01*
X89475337Y-46926042D01*
X89527543Y-46880805D01*
X89531015Y-46879186D01*
X89566749Y-46862523D01*
X89754300Y-46731198D01*
X89916198Y-46569300D01*
X90047523Y-46381749D01*
X90144284Y-46174243D01*
X90203543Y-45953087D01*
X90223498Y-45725000D01*
X90203543Y-45496913D01*
X90144284Y-45275757D01*
X90047523Y-45068251D01*
X89916198Y-44880700D01*
X89754300Y-44718802D01*
X89751856Y-44717091D01*
X89611875Y-44619075D01*
X89566749Y-44587477D01*
X89548162Y-44578810D01*
X89527543Y-44569195D01*
X89474258Y-44522279D01*
X89454796Y-44454002D01*
X89475337Y-44386042D01*
X89527543Y-44340805D01*
X89531015Y-44339186D01*
X89566749Y-44322523D01*
X89754300Y-44191198D01*
X89916198Y-44029300D01*
X90047523Y-43841749D01*
X90144284Y-43634243D01*
X90203543Y-43413087D01*
X90223498Y-43185000D01*
X90203543Y-42956913D01*
X90144284Y-42735757D01*
X90047523Y-42528251D01*
X89916198Y-42340700D01*
X89754300Y-42178802D01*
X89751856Y-42177091D01*
X89645164Y-42102384D01*
X89566749Y-42047477D01*
X89556026Y-42042477D01*
X89527543Y-42029195D01*
X89474258Y-41982279D01*
X89454796Y-41914002D01*
X89475337Y-41846042D01*
X89527543Y-41800805D01*
X89531015Y-41799186D01*
X89566749Y-41782523D01*
X89754300Y-41651198D01*
X89916198Y-41489300D01*
X90047523Y-41301749D01*
X90144284Y-41094243D01*
X90203543Y-40873087D01*
X90223498Y-40645000D01*
X90203543Y-40416913D01*
X90144284Y-40195757D01*
X90047523Y-39988251D01*
X89916198Y-39800700D01*
X89754300Y-39638802D01*
X89751856Y-39637091D01*
X89669325Y-39579302D01*
X89566749Y-39507477D01*
X89548162Y-39498810D01*
X89527543Y-39489195D01*
X89474258Y-39442279D01*
X89454796Y-39374002D01*
X89475337Y-39306042D01*
X89527543Y-39260805D01*
X89531015Y-39259186D01*
X89566749Y-39242523D01*
X89754300Y-39111198D01*
X89916198Y-38949300D01*
X90047523Y-38761749D01*
X90144284Y-38554243D01*
X90203543Y-38333087D01*
X90223498Y-38105000D01*
X90203543Y-37876913D01*
X90144284Y-37655757D01*
X90047523Y-37448251D01*
X89916198Y-37260700D01*
X89754300Y-37098802D01*
X89751856Y-37097091D01*
X89618472Y-37003694D01*
X89566749Y-36967477D01*
X89556026Y-36962477D01*
X89527543Y-36949195D01*
X89474258Y-36902279D01*
X89454796Y-36834002D01*
X89475337Y-36766042D01*
X89527543Y-36720805D01*
X89531015Y-36719186D01*
X89566749Y-36702523D01*
X89754300Y-36571198D01*
X89916198Y-36409300D01*
X90047523Y-36221749D01*
X90144284Y-36014243D01*
X90203543Y-35793087D01*
X90223498Y-35565000D01*
X90223061Y-35560000D01*
X93886844Y-35560000D01*
X93902328Y-35746863D01*
X93905437Y-35784375D01*
X93960702Y-36002612D01*
X93960703Y-36002613D01*
X93960704Y-36002616D01*
X93993811Y-36078093D01*
X94051141Y-36208793D01*
X94174275Y-36397265D01*
X94174279Y-36397270D01*
X94326762Y-36562908D01*
X94337413Y-36571198D01*
X94504424Y-36701189D01*
X94537680Y-36719186D01*
X94588071Y-36769200D01*
X94603423Y-36838516D01*
X94578862Y-36905129D01*
X94537680Y-36940813D01*
X94504426Y-36958810D01*
X94504424Y-36958811D01*
X94326762Y-37097091D01*
X94174279Y-37262729D01*
X94174275Y-37262734D01*
X94051141Y-37451206D01*
X93960703Y-37657386D01*
X93960702Y-37657387D01*
X93905437Y-37875624D01*
X93905436Y-37875630D01*
X93905436Y-37875632D01*
X93886844Y-38100000D01*
X93902236Y-38285753D01*
X93905437Y-38324375D01*
X93960702Y-38542612D01*
X93960703Y-38542613D01*
X93960704Y-38542616D01*
X94045091Y-38735000D01*
X94051141Y-38748793D01*
X94174275Y-38937265D01*
X94174279Y-38937270D01*
X94326762Y-39102908D01*
X94337413Y-39111198D01*
X94504424Y-39241189D01*
X94537680Y-39259186D01*
X94588071Y-39309200D01*
X94603423Y-39378516D01*
X94578862Y-39445129D01*
X94537680Y-39480813D01*
X94504426Y-39498810D01*
X94504424Y-39498811D01*
X94326762Y-39637091D01*
X94174279Y-39802729D01*
X94174275Y-39802734D01*
X94051141Y-39991206D01*
X93960703Y-40197386D01*
X93960702Y-40197387D01*
X93905437Y-40415624D01*
X93905436Y-40415630D01*
X93905436Y-40415632D01*
X93886844Y-40640000D01*
X93901671Y-40818935D01*
X93905437Y-40864375D01*
X93960702Y-41082612D01*
X93960703Y-41082613D01*
X93960704Y-41082616D01*
X94025308Y-41229900D01*
X94051141Y-41288793D01*
X94174275Y-41477265D01*
X94174279Y-41477270D01*
X94326762Y-41642908D01*
X94337413Y-41651198D01*
X94504424Y-41781189D01*
X94537680Y-41799186D01*
X94588071Y-41849200D01*
X94603423Y-41918516D01*
X94578862Y-41985129D01*
X94537680Y-42020813D01*
X94504426Y-42038810D01*
X94504424Y-42038811D01*
X94326762Y-42177091D01*
X94174279Y-42342729D01*
X94174275Y-42342734D01*
X94051141Y-42531206D01*
X93960703Y-42737386D01*
X93960702Y-42737387D01*
X93905437Y-42955624D01*
X93905436Y-42955630D01*
X93905436Y-42955632D01*
X93886844Y-43180000D01*
X93903604Y-43382265D01*
X93905437Y-43404375D01*
X93960702Y-43622612D01*
X93960703Y-43622613D01*
X93960704Y-43622616D01*
X94020203Y-43758261D01*
X94051141Y-43828793D01*
X94174275Y-44017265D01*
X94174279Y-44017270D01*
X94326762Y-44182908D01*
X94337413Y-44191198D01*
X94504424Y-44321189D01*
X94537680Y-44339186D01*
X94588071Y-44389200D01*
X94603423Y-44458516D01*
X94578862Y-44525129D01*
X94537680Y-44560813D01*
X94504426Y-44578810D01*
X94504424Y-44578811D01*
X94326762Y-44717091D01*
X94174279Y-44882729D01*
X94174275Y-44882734D01*
X94051141Y-45071206D01*
X93960703Y-45277386D01*
X93960702Y-45277387D01*
X93905437Y-45495624D01*
X93905436Y-45495630D01*
X93905436Y-45495632D01*
X93905330Y-45496913D01*
X93886844Y-45720000D01*
X93905437Y-45944375D01*
X93960702Y-46162612D01*
X93960703Y-46162613D01*
X93960704Y-46162616D01*
X94035590Y-46333341D01*
X94051141Y-46368793D01*
X94174275Y-46557265D01*
X94174279Y-46557270D01*
X94326762Y-46722908D01*
X94337413Y-46731198D01*
X94504424Y-46861189D01*
X94537680Y-46879186D01*
X94588071Y-46929200D01*
X94603423Y-46998516D01*
X94578862Y-47065129D01*
X94537680Y-47100813D01*
X94504426Y-47118810D01*
X94504424Y-47118811D01*
X94326762Y-47257091D01*
X94174279Y-47422729D01*
X94174275Y-47422734D01*
X94051141Y-47611206D01*
X93960703Y-47817386D01*
X93960702Y-47817387D01*
X93905437Y-48035624D01*
X93905436Y-48035630D01*
X93905436Y-48035632D01*
X93886844Y-48260000D01*
X93905274Y-48482415D01*
X93905437Y-48484375D01*
X93960702Y-48702612D01*
X93960703Y-48702613D01*
X93960704Y-48702616D01*
X94012844Y-48821484D01*
X94051141Y-48908793D01*
X94174275Y-49097265D01*
X94174279Y-49097270D01*
X94326762Y-49262908D01*
X94337413Y-49271198D01*
X94504424Y-49401189D01*
X94537680Y-49419186D01*
X94588071Y-49469200D01*
X94603423Y-49538516D01*
X94578862Y-49605129D01*
X94537680Y-49640813D01*
X94504426Y-49658810D01*
X94504424Y-49658811D01*
X94326762Y-49797091D01*
X94174279Y-49962729D01*
X94174275Y-49962734D01*
X94051141Y-50151206D01*
X93960703Y-50357386D01*
X93960702Y-50357387D01*
X93905437Y-50575624D01*
X93905436Y-50575630D01*
X93905436Y-50575632D01*
X93886844Y-50800000D01*
X93902836Y-50992993D01*
X93905437Y-51024375D01*
X93960702Y-51242612D01*
X93960703Y-51242613D01*
X93960704Y-51242616D01*
X93970928Y-51265925D01*
X94051141Y-51448793D01*
X94174275Y-51637265D01*
X94174279Y-51637270D01*
X94326762Y-51802908D01*
X94337413Y-51811198D01*
X94504424Y-51941189D01*
X94702426Y-52048342D01*
X94702427Y-52048342D01*
X94702428Y-52048343D01*
X94777171Y-52074002D01*
X94915365Y-52121444D01*
X95137431Y-52158500D01*
X95137435Y-52158500D01*
X95362565Y-52158500D01*
X95362569Y-52158500D01*
X95584635Y-52121444D01*
X95797574Y-52048342D01*
X95995576Y-51941189D01*
X96173240Y-51802906D01*
X96325722Y-51637268D01*
X96448860Y-51448791D01*
X96539296Y-51242616D01*
X96594564Y-51024368D01*
X96613156Y-50800000D01*
X96594564Y-50575632D01*
X96550063Y-50399901D01*
X96539297Y-50357387D01*
X96539296Y-50357386D01*
X96539296Y-50357384D01*
X96448860Y-50151209D01*
X96429953Y-50122269D01*
X96325724Y-49962734D01*
X96325720Y-49962729D01*
X96174812Y-49798802D01*
X96173240Y-49797094D01*
X96173239Y-49797093D01*
X96173237Y-49797091D01*
X96082740Y-49726654D01*
X95995576Y-49658811D01*
X95995001Y-49658500D01*
X95962320Y-49640814D01*
X95911929Y-49590802D01*
X95896576Y-49521485D01*
X95921136Y-49454872D01*
X95962320Y-49419186D01*
X95995576Y-49401189D01*
X96173240Y-49262906D01*
X96325722Y-49097268D01*
X96448860Y-48908791D01*
X96539296Y-48702616D01*
X96594564Y-48484368D01*
X96613156Y-48260000D01*
X96594564Y-48035632D01*
X96594562Y-48035624D01*
X96539297Y-47817387D01*
X96539296Y-47817386D01*
X96539296Y-47817384D01*
X96448860Y-47611209D01*
X96397182Y-47532110D01*
X96325724Y-47422734D01*
X96325720Y-47422729D01*
X96209570Y-47296559D01*
X96173240Y-47257094D01*
X96173239Y-47257093D01*
X96173237Y-47257091D01*
X96091382Y-47193381D01*
X95995576Y-47118811D01*
X95962319Y-47100813D01*
X95911929Y-47050802D01*
X95896576Y-46981485D01*
X95921136Y-46914872D01*
X95962320Y-46879186D01*
X95995576Y-46861189D01*
X96173240Y-46722906D01*
X96325722Y-46557268D01*
X96448860Y-46368791D01*
X96539296Y-46162616D01*
X96594564Y-45944368D01*
X96613156Y-45720000D01*
X96594564Y-45495632D01*
X96568323Y-45392007D01*
X96539297Y-45277387D01*
X96539296Y-45277386D01*
X96539296Y-45277384D01*
X96448860Y-45071209D01*
X96374244Y-44957000D01*
X96325724Y-44882734D01*
X96325720Y-44882729D01*
X96174812Y-44718802D01*
X96173240Y-44717094D01*
X96173239Y-44717093D01*
X96173237Y-44717091D01*
X96077254Y-44642384D01*
X95995576Y-44578811D01*
X95962319Y-44560813D01*
X95911929Y-44510802D01*
X95896576Y-44441485D01*
X95921136Y-44374872D01*
X95962320Y-44339186D01*
X95995576Y-44321189D01*
X96173240Y-44182906D01*
X96325722Y-44017268D01*
X96448860Y-43828791D01*
X96539296Y-43622616D01*
X96594564Y-43404368D01*
X96613156Y-43180000D01*
X96594564Y-42955632D01*
X96594562Y-42955624D01*
X96539297Y-42737387D01*
X96539296Y-42737386D01*
X96539296Y-42737384D01*
X96448860Y-42531209D01*
X96375933Y-42419585D01*
X96325724Y-42342734D01*
X96325720Y-42342729D01*
X96174812Y-42178802D01*
X96173240Y-42177094D01*
X96173239Y-42177093D01*
X96173237Y-42177091D01*
X96091382Y-42113381D01*
X95995576Y-42038811D01*
X95962319Y-42020813D01*
X95911929Y-41970802D01*
X95896576Y-41901485D01*
X95921136Y-41834872D01*
X95962320Y-41799186D01*
X95995576Y-41781189D01*
X96173240Y-41642906D01*
X96325722Y-41477268D01*
X96448860Y-41288791D01*
X96539296Y-41082616D01*
X96594564Y-40864368D01*
X96613156Y-40640000D01*
X96594564Y-40415632D01*
X96576298Y-40343500D01*
X96539297Y-40197387D01*
X96539296Y-40197386D01*
X96539296Y-40197384D01*
X96448860Y-39991209D01*
X96418145Y-39944196D01*
X96325724Y-39802734D01*
X96325720Y-39802729D01*
X96174812Y-39638802D01*
X96173240Y-39637094D01*
X96173239Y-39637093D01*
X96173237Y-39637091D01*
X96091382Y-39573381D01*
X95995576Y-39498811D01*
X95962319Y-39480813D01*
X95911929Y-39430802D01*
X95896576Y-39361485D01*
X95921136Y-39294872D01*
X95962320Y-39259186D01*
X95995576Y-39241189D01*
X96173240Y-39102906D01*
X96325722Y-38937268D01*
X96448860Y-38748791D01*
X96539296Y-38542616D01*
X96594564Y-38324368D01*
X96613156Y-38100000D01*
X96594564Y-37875632D01*
X96592875Y-37868961D01*
X96539297Y-37657387D01*
X96539296Y-37657386D01*
X96539296Y-37657384D01*
X96448860Y-37451209D01*
X96434534Y-37429281D01*
X96325724Y-37262734D01*
X96325720Y-37262729D01*
X96174812Y-37098802D01*
X96173240Y-37097094D01*
X96173239Y-37097093D01*
X96173237Y-37097091D01*
X96080595Y-37024985D01*
X95995576Y-36958811D01*
X95962319Y-36940813D01*
X95911929Y-36890802D01*
X95896576Y-36821485D01*
X95921136Y-36754872D01*
X95962320Y-36719186D01*
X95995576Y-36701189D01*
X96173240Y-36562906D01*
X96325722Y-36397268D01*
X96448860Y-36208791D01*
X96539296Y-36002616D01*
X96594564Y-35784368D01*
X96613156Y-35560000D01*
X96594564Y-35335632D01*
X96579385Y-35275690D01*
X96539297Y-35117387D01*
X96539296Y-35117386D01*
X96539296Y-35117384D01*
X96448860Y-34911209D01*
X96397987Y-34833342D01*
X96325724Y-34722734D01*
X96325720Y-34722729D01*
X96201262Y-34587534D01*
X96173240Y-34557094D01*
X96173239Y-34557093D01*
X96173237Y-34557091D01*
X96071624Y-34478002D01*
X95995576Y-34418811D01*
X95961792Y-34400528D01*
X95911402Y-34350516D01*
X95896050Y-34281199D01*
X95920610Y-34214586D01*
X95961793Y-34178901D01*
X95995300Y-34160767D01*
X95995301Y-34160767D01*
X96172902Y-34022534D01*
X96325325Y-33856958D01*
X96448419Y-33668548D01*
X96538820Y-33462456D01*
X96538823Y-33462449D01*
X96586544Y-33274000D01*
X95680703Y-33274000D01*
X95715925Y-33212993D01*
X95750000Y-33085826D01*
X95750000Y-32954174D01*
X95715925Y-32827007D01*
X95680703Y-32766000D01*
X96586544Y-32766000D01*
X96586544Y-32765999D01*
X96538823Y-32577550D01*
X96538820Y-32577543D01*
X96448419Y-32371451D01*
X96325325Y-32183041D01*
X96172902Y-32017465D01*
X95995301Y-31879232D01*
X95995300Y-31879231D01*
X95961267Y-31860814D01*
X95910876Y-31810801D01*
X95895524Y-31741484D01*
X95920085Y-31674871D01*
X95961267Y-31639186D01*
X95995300Y-31620768D01*
X95995301Y-31620767D01*
X96172902Y-31482534D01*
X96325325Y-31316958D01*
X96448419Y-31128548D01*
X96538820Y-30922456D01*
X96538823Y-30922449D01*
X96586544Y-30734000D01*
X95680703Y-30734000D01*
X95715925Y-30672993D01*
X95750000Y-30545826D01*
X95750000Y-30414174D01*
X95715925Y-30287007D01*
X95680703Y-30226000D01*
X96586544Y-30226000D01*
X96586544Y-30225999D01*
X96538823Y-30037550D01*
X96538820Y-30037543D01*
X96448419Y-29831451D01*
X96325325Y-29643041D01*
X96182018Y-29487367D01*
X96150598Y-29423702D01*
X96158585Y-29353156D01*
X96203444Y-29298127D01*
X96230679Y-29283977D01*
X96346204Y-29240889D01*
X96463261Y-29153261D01*
X96466405Y-29149061D01*
X96550887Y-29036207D01*
X96550887Y-29036206D01*
X96550889Y-29036204D01*
X96601989Y-28899201D01*
X96608500Y-28838638D01*
X96608500Y-27041362D01*
X96602053Y-26981391D01*
X96601990Y-26980803D01*
X96601988Y-26980795D01*
X96550889Y-26843797D01*
X96550887Y-26843792D01*
X96463261Y-26726738D01*
X96346207Y-26639112D01*
X96346202Y-26639110D01*
X96209204Y-26588011D01*
X96209196Y-26588009D01*
X96148649Y-26581500D01*
X96148638Y-26581500D01*
X94351362Y-26581500D01*
X94351350Y-26581500D01*
X94290803Y-26588009D01*
X94290795Y-26588011D01*
X94153797Y-26639110D01*
X94153792Y-26639112D01*
X94036738Y-26726738D01*
X93949112Y-26843792D01*
X93949110Y-26843797D01*
X93898011Y-26980795D01*
X93898009Y-26980803D01*
X93891500Y-27041350D01*
X93891500Y-28838649D01*
X93898009Y-28899196D01*
X93898011Y-28899204D01*
X93949110Y-29036202D01*
X93949112Y-29036207D01*
X94036738Y-29153261D01*
X94153792Y-29240887D01*
X94153796Y-29240889D01*
X94269312Y-29283975D01*
X94326148Y-29326522D01*
X94350958Y-29393042D01*
X94335866Y-29462416D01*
X94317981Y-29487367D01*
X94174674Y-29643041D01*
X94051580Y-29831451D01*
X93961179Y-30037543D01*
X93961176Y-30037550D01*
X93913455Y-30225999D01*
X93913456Y-30226000D01*
X94819297Y-30226000D01*
X94784075Y-30287007D01*
X94750000Y-30414174D01*
X94750000Y-30545826D01*
X94784075Y-30672993D01*
X94819297Y-30734000D01*
X93913455Y-30734000D01*
X93961176Y-30922449D01*
X93961179Y-30922456D01*
X94051580Y-31128548D01*
X94174674Y-31316958D01*
X94327097Y-31482534D01*
X94504698Y-31620767D01*
X94504699Y-31620768D01*
X94538734Y-31639187D01*
X94589123Y-31689201D01*
X94604475Y-31758518D01*
X94579913Y-31825130D01*
X94538734Y-31860813D01*
X94504699Y-31879231D01*
X94504698Y-31879232D01*
X94327097Y-32017465D01*
X94174674Y-32183041D01*
X94051580Y-32371451D01*
X93961179Y-32577543D01*
X93961176Y-32577550D01*
X93913455Y-32765999D01*
X93913456Y-32766000D01*
X94819297Y-32766000D01*
X94784075Y-32827007D01*
X94750000Y-32954174D01*
X94750000Y-33085826D01*
X94784075Y-33212993D01*
X94819297Y-33274000D01*
X93913455Y-33274000D01*
X93961176Y-33462449D01*
X93961179Y-33462456D01*
X94051580Y-33668548D01*
X94174674Y-33856958D01*
X94327097Y-34022534D01*
X94504698Y-34160767D01*
X94504704Y-34160771D01*
X94538207Y-34178902D01*
X94588597Y-34228915D01*
X94603949Y-34298232D01*
X94579388Y-34364845D01*
X94538207Y-34400528D01*
X94504430Y-34418807D01*
X94504424Y-34418811D01*
X94326762Y-34557091D01*
X94174279Y-34722729D01*
X94174275Y-34722734D01*
X94051141Y-34911206D01*
X93960703Y-35117386D01*
X93960702Y-35117387D01*
X93905437Y-35335624D01*
X93905436Y-35335630D01*
X93905436Y-35335632D01*
X93886844Y-35560000D01*
X90223061Y-35560000D01*
X90203543Y-35336913D01*
X90144284Y-35115757D01*
X90047523Y-34908251D01*
X89916198Y-34720700D01*
X89754300Y-34558802D01*
X89751856Y-34557091D01*
X89664047Y-34495606D01*
X89566749Y-34427477D01*
X89555582Y-34422270D01*
X89527543Y-34409195D01*
X89474258Y-34362279D01*
X89454796Y-34294002D01*
X89475337Y-34226042D01*
X89527543Y-34180805D01*
X89531626Y-34178901D01*
X89566749Y-34162523D01*
X89754300Y-34031198D01*
X89916198Y-33869300D01*
X90047523Y-33681749D01*
X90144284Y-33474243D01*
X90203543Y-33253087D01*
X90223498Y-33025000D01*
X90203543Y-32796913D01*
X90144284Y-32575757D01*
X90047523Y-32368251D01*
X89916198Y-32180700D01*
X89754300Y-32018802D01*
X89754291Y-32018796D01*
X89648086Y-31944430D01*
X89566749Y-31887477D01*
X89549067Y-31879232D01*
X89527543Y-31869195D01*
X89474258Y-31822279D01*
X89454796Y-31754002D01*
X89475337Y-31686042D01*
X89527543Y-31640805D01*
X89531015Y-31639186D01*
X89566749Y-31622523D01*
X89754300Y-31491198D01*
X89916198Y-31329300D01*
X90047523Y-31141749D01*
X90144284Y-30934243D01*
X90203543Y-30713087D01*
X90223498Y-30485000D01*
X90203543Y-30256913D01*
X90144284Y-30035757D01*
X90047523Y-29828251D01*
X89916198Y-29640700D01*
X89754300Y-29478802D01*
X89753277Y-29478086D01*
X89566749Y-29347477D01*
X89359246Y-29250717D01*
X89359240Y-29250715D01*
X89265771Y-29225670D01*
X89138087Y-29191457D01*
X88910000Y-29171502D01*
X88681913Y-29191457D01*
X88460759Y-29250715D01*
X88460753Y-29250717D01*
X88253250Y-29347477D01*
X88065703Y-29478799D01*
X88065697Y-29478804D01*
X87903804Y-29640697D01*
X87903799Y-29640703D01*
X87772477Y-29828250D01*
X87675717Y-30035753D01*
X87675715Y-30035759D01*
X87616457Y-30256913D01*
X87596502Y-30485000D01*
X87616457Y-30713086D01*
X87675715Y-30934240D01*
X87675717Y-30934246D01*
X87716688Y-31022109D01*
X87772477Y-31141749D01*
X87903802Y-31329300D01*
X88065700Y-31491198D01*
X88253251Y-31622523D01*
X88276279Y-31633261D01*
X88292457Y-31640805D01*
X88345742Y-31687722D01*
X88365203Y-31755999D01*
X88344661Y-31823959D01*
X88292457Y-31869195D01*
X88253250Y-31887477D01*
X88065703Y-32018799D01*
X88065697Y-32018804D01*
X87903804Y-32180697D01*
X87903797Y-32180706D01*
X87887646Y-32203772D01*
X87832189Y-32248100D01*
X87784434Y-32257500D01*
X84379898Y-32257500D01*
X84232586Y-32286803D01*
X84232583Y-32286804D01*
X84191943Y-32303636D01*
X84191943Y-32303637D01*
X84112229Y-32336656D01*
X84093821Y-32344281D01*
X83968939Y-32427724D01*
X83968937Y-32427725D01*
X83227726Y-33168935D01*
X83179235Y-33241509D01*
X83146835Y-33290000D01*
X83146834Y-33290000D01*
X83144283Y-33293819D01*
X83144280Y-33293823D01*
X83086806Y-33432575D01*
X83086803Y-33432585D01*
X83057500Y-33579896D01*
X83057500Y-42811970D01*
X83037498Y-42880091D01*
X83020595Y-42901065D01*
X82805276Y-43116384D01*
X82742964Y-43150410D01*
X82672149Y-43145345D01*
X82615313Y-43102798D01*
X82590661Y-43038272D01*
X82583543Y-42956913D01*
X82524284Y-42735757D01*
X82427523Y-42528251D01*
X82296198Y-42340700D01*
X82134300Y-42178802D01*
X82131856Y-42177091D01*
X82025164Y-42102384D01*
X81946749Y-42047477D01*
X81936026Y-42042477D01*
X81907543Y-42029195D01*
X81854258Y-41982279D01*
X81834796Y-41914002D01*
X81855337Y-41846042D01*
X81907543Y-41800805D01*
X81911015Y-41799186D01*
X81946749Y-41782523D01*
X82134300Y-41651198D01*
X82296198Y-41489300D01*
X82427523Y-41301749D01*
X82524284Y-41094243D01*
X82583543Y-40873087D01*
X82603498Y-40645000D01*
X82583543Y-40416913D01*
X82524284Y-40195757D01*
X82427523Y-39988251D01*
X82296198Y-39800700D01*
X82134300Y-39638802D01*
X82131856Y-39637091D01*
X82049325Y-39579302D01*
X81946749Y-39507477D01*
X81928162Y-39498810D01*
X81907543Y-39489195D01*
X81854258Y-39442279D01*
X81834796Y-39374002D01*
X81855337Y-39306042D01*
X81907543Y-39260805D01*
X81911015Y-39259186D01*
X81946749Y-39242523D01*
X82134300Y-39111198D01*
X82296198Y-38949300D01*
X82427523Y-38761749D01*
X82524284Y-38554243D01*
X82583543Y-38333087D01*
X82603498Y-38105000D01*
X82583543Y-37876913D01*
X82524284Y-37655757D01*
X82427523Y-37448251D01*
X82296198Y-37260700D01*
X82134300Y-37098802D01*
X82131856Y-37097091D01*
X81998472Y-37003694D01*
X81946749Y-36967477D01*
X81936026Y-36962477D01*
X81907543Y-36949195D01*
X81854258Y-36902279D01*
X81834796Y-36834002D01*
X81855337Y-36766042D01*
X81907543Y-36720805D01*
X81911015Y-36719186D01*
X81946749Y-36702523D01*
X82134300Y-36571198D01*
X82296198Y-36409300D01*
X82427523Y-36221749D01*
X82524284Y-36014243D01*
X82583543Y-35793087D01*
X82603498Y-35565000D01*
X82583543Y-35336913D01*
X82524284Y-35115757D01*
X82427523Y-34908251D01*
X82296198Y-34720700D01*
X82134300Y-34558802D01*
X82131856Y-34557091D01*
X82044047Y-34495606D01*
X81946749Y-34427477D01*
X81935582Y-34422270D01*
X81907543Y-34409195D01*
X81854258Y-34362279D01*
X81834796Y-34294002D01*
X81855337Y-34226042D01*
X81907543Y-34180805D01*
X81911626Y-34178901D01*
X81946749Y-34162523D01*
X82134300Y-34031198D01*
X82296198Y-33869300D01*
X82427523Y-33681749D01*
X82524284Y-33474243D01*
X82583543Y-33253087D01*
X82603498Y-33025000D01*
X82583543Y-32796913D01*
X82524284Y-32575757D01*
X82427523Y-32368251D01*
X82296198Y-32180700D01*
X82134300Y-32018802D01*
X82134295Y-32018799D01*
X82134292Y-32018796D01*
X82130995Y-32016487D01*
X82086669Y-31961028D01*
X82079363Y-31890409D01*
X82111396Y-31827049D01*
X82172599Y-31791067D01*
X82189801Y-31787999D01*
X82199201Y-31786989D01*
X82209076Y-31783306D01*
X82239417Y-31771989D01*
X82336204Y-31735889D01*
X82356245Y-31720887D01*
X82453261Y-31648261D01*
X82540887Y-31531207D01*
X82540887Y-31531206D01*
X82540889Y-31531204D01*
X82591989Y-31394201D01*
X82593602Y-31379204D01*
X82598499Y-31333649D01*
X82598500Y-31333632D01*
X82598500Y-29636367D01*
X82598499Y-29636350D01*
X82591990Y-29575803D01*
X82591988Y-29575795D01*
X82555811Y-29478804D01*
X82540889Y-29438796D01*
X82540888Y-29438794D01*
X82540887Y-29438792D01*
X82453261Y-29321738D01*
X82336207Y-29234112D01*
X82336202Y-29234110D01*
X82199204Y-29183011D01*
X82199196Y-29183009D01*
X82138649Y-29176500D01*
X82138638Y-29176500D01*
X80441362Y-29176500D01*
X80441350Y-29176500D01*
X80380803Y-29183009D01*
X80380795Y-29183011D01*
X80243797Y-29234110D01*
X80243792Y-29234112D01*
X80126738Y-29321738D01*
X80039112Y-29438792D01*
X80039110Y-29438797D01*
X79988011Y-29575795D01*
X79988009Y-29575803D01*
X79984337Y-29609968D01*
X79957168Y-29675561D01*
X79898850Y-29716052D01*
X79859059Y-29722500D01*
X69139896Y-29722500D01*
X69022049Y-29745942D01*
X68992587Y-29751803D01*
X68992586Y-29751803D01*
X68992583Y-29751804D01*
X68926150Y-29779321D01*
X68926151Y-29779322D01*
X68853820Y-29809282D01*
X68728934Y-29892727D01*
X68728930Y-29892730D01*
X66722730Y-31898930D01*
X66722727Y-31898934D01*
X66647517Y-32011497D01*
X66647515Y-32011499D01*
X66639281Y-32023820D01*
X66581805Y-32162580D01*
X66581803Y-32162585D01*
X66552500Y-32309896D01*
X66552500Y-40901971D01*
X66532498Y-40970092D01*
X66515595Y-40991066D01*
X65514664Y-41991996D01*
X65452352Y-42026022D01*
X65381536Y-42020957D01*
X65372319Y-42017096D01*
X65219246Y-41945717D01*
X65219240Y-41945715D01*
X65104610Y-41915000D01*
X64998087Y-41886457D01*
X64770000Y-41866502D01*
X64541913Y-41886457D01*
X64320759Y-41945715D01*
X64320753Y-41945717D01*
X64113250Y-42042477D01*
X63925703Y-42173799D01*
X63925697Y-42173804D01*
X63763804Y-42335697D01*
X63763799Y-42335703D01*
X63632477Y-42523250D01*
X63535717Y-42730753D01*
X63535715Y-42730759D01*
X63506778Y-42838754D01*
X63481152Y-42934394D01*
X63476456Y-42951918D01*
X63468131Y-43047066D01*
X63442268Y-43113184D01*
X63384764Y-43154823D01*
X63313877Y-43158763D01*
X63253515Y-43125178D01*
X63231135Y-43102798D01*
X63029403Y-42901065D01*
X62995379Y-42838754D01*
X62992500Y-42811971D01*
X62992500Y-41199899D01*
X62992499Y-41199896D01*
X62963197Y-41052587D01*
X62963195Y-41052583D01*
X62963193Y-41052575D01*
X62941904Y-41001180D01*
X62941903Y-41001179D01*
X62937714Y-40991066D01*
X62905719Y-40913821D01*
X62822273Y-40788935D01*
X62081065Y-40047727D01*
X62053467Y-40029287D01*
X61956179Y-39964282D01*
X61817414Y-39906803D01*
X61670103Y-39877500D01*
X61670100Y-39877500D01*
X57089900Y-39877500D01*
X57089896Y-39877500D01*
X56942585Y-39906803D01*
X56942584Y-39906804D01*
X56803820Y-39964282D01*
X56678934Y-40047727D01*
X56678930Y-40047730D01*
X55907730Y-40818930D01*
X55907727Y-40818934D01*
X55846880Y-40910000D01*
X55824283Y-40943819D01*
X55766804Y-41082584D01*
X55766803Y-41082585D01*
X55737500Y-41229896D01*
X55737500Y-41355385D01*
X55717498Y-41423506D01*
X55688892Y-41454816D01*
X55576760Y-41542094D01*
X55424279Y-41707729D01*
X55335483Y-41843643D01*
X55281479Y-41889731D01*
X55211131Y-41899306D01*
X55146774Y-41869329D01*
X55124517Y-41843643D01*
X55035720Y-41707729D01*
X54883237Y-41542091D01*
X54751309Y-41439407D01*
X54705576Y-41403811D01*
X54507574Y-41296658D01*
X54507572Y-41296657D01*
X54507571Y-41296656D01*
X54294639Y-41223557D01*
X54294630Y-41223555D01*
X54250476Y-41216187D01*
X54072569Y-41186500D01*
X53847431Y-41186500D01*
X53699211Y-41211233D01*
X53625369Y-41223555D01*
X53625360Y-41223557D01*
X53412428Y-41296656D01*
X53412426Y-41296658D01*
X53214426Y-41403810D01*
X53214424Y-41403811D01*
X53036762Y-41542091D01*
X52884279Y-41707729D01*
X52884275Y-41707734D01*
X52761141Y-41896206D01*
X52670703Y-42102386D01*
X52670702Y-42102387D01*
X52615437Y-42320624D01*
X52615436Y-42320630D01*
X52615436Y-42320632D01*
X52596844Y-42545000D01*
X48137112Y-42545000D01*
X48127087Y-42523501D01*
X47995815Y-42336025D01*
X47995810Y-42336019D01*
X47833980Y-42174189D01*
X47833974Y-42174184D01*
X47646498Y-42042912D01*
X47439073Y-41946188D01*
X47439071Y-41946187D01*
X47244000Y-41893917D01*
X47244000Y-42868314D01*
X47235606Y-42859920D01*
X47144394Y-42807259D01*
X47042661Y-42780000D01*
X46937339Y-42780000D01*
X46835606Y-42807259D01*
X46744394Y-42859920D01*
X46736000Y-42868314D01*
X46736000Y-41893917D01*
X46735999Y-41893917D01*
X46540928Y-41946187D01*
X46540926Y-41946188D01*
X46333501Y-42042912D01*
X46146025Y-42174184D01*
X46146019Y-42174189D01*
X45984189Y-42336019D01*
X45984184Y-42336025D01*
X45852912Y-42523501D01*
X45756188Y-42730926D01*
X45756186Y-42730931D01*
X45703917Y-42926000D01*
X40656082Y-42926000D01*
X40603813Y-42730931D01*
X40603811Y-42730926D01*
X40507087Y-42523501D01*
X40375815Y-42336025D01*
X40375810Y-42336019D01*
X40213980Y-42174189D01*
X40213974Y-42174184D01*
X40026498Y-42042912D01*
X39819073Y-41946188D01*
X39819071Y-41946187D01*
X39624000Y-41893917D01*
X39624000Y-42868314D01*
X39615606Y-42859920D01*
X39524394Y-42807259D01*
X39422661Y-42780000D01*
X39317339Y-42780000D01*
X39215606Y-42807259D01*
X39124394Y-42859920D01*
X39116000Y-42868314D01*
X39116000Y-41893917D01*
X39115999Y-41893917D01*
X38920928Y-41946187D01*
X38920926Y-41946188D01*
X38713501Y-42042912D01*
X38526025Y-42174184D01*
X38526019Y-42174189D01*
X38364189Y-42336019D01*
X38364184Y-42336025D01*
X38232912Y-42523501D01*
X38136188Y-42730926D01*
X38136186Y-42730931D01*
X38083917Y-42926000D01*
X36846600Y-42926000D01*
X36794284Y-42730757D01*
X36697523Y-42523251D01*
X36566198Y-42335700D01*
X36404300Y-42173802D01*
X36216749Y-42042477D01*
X36208879Y-42038807D01*
X36009246Y-41945717D01*
X36009240Y-41945715D01*
X35894610Y-41915000D01*
X35788087Y-41886457D01*
X35560000Y-41866502D01*
X35331913Y-41886457D01*
X35110759Y-41945715D01*
X35110753Y-41945717D01*
X34903250Y-42042477D01*
X34715703Y-42173799D01*
X34715697Y-42173804D01*
X34553804Y-42335697D01*
X34553799Y-42335703D01*
X34422477Y-42523250D01*
X34325717Y-42730753D01*
X34325715Y-42730759D01*
X34273400Y-42926000D01*
X34266457Y-42951913D01*
X34246502Y-43180000D01*
X33063498Y-43180000D01*
X33043543Y-42951913D01*
X32984284Y-42730757D01*
X32887523Y-42523251D01*
X32756198Y-42335700D01*
X32594300Y-42173802D01*
X32406749Y-42042477D01*
X32398879Y-42038807D01*
X32199246Y-41945717D01*
X32199240Y-41945715D01*
X32084610Y-41915000D01*
X31978087Y-41886457D01*
X31750000Y-41866502D01*
X31521913Y-41886457D01*
X31300759Y-41945715D01*
X31300753Y-41945717D01*
X31093250Y-42042477D01*
X30905703Y-42173799D01*
X30905697Y-42173804D01*
X30743804Y-42335697D01*
X30743799Y-42335703D01*
X30612477Y-42523250D01*
X30515717Y-42730753D01*
X30515715Y-42730759D01*
X30463400Y-42926000D01*
X30456457Y-42951913D01*
X30436502Y-43180000D01*
X20330500Y-43180000D01*
X20330500Y-30480000D01*
X22766844Y-30480000D01*
X22782836Y-30672993D01*
X22785437Y-30704375D01*
X22840702Y-30922612D01*
X22840703Y-30922613D01*
X22840704Y-30922616D01*
X22931140Y-31128791D01*
X22931141Y-31128793D01*
X23054275Y-31317265D01*
X23054279Y-31317270D01*
X23206762Y-31482908D01*
X23217413Y-31491198D01*
X23384424Y-31621189D01*
X23417680Y-31639186D01*
X23468071Y-31689200D01*
X23483423Y-31758516D01*
X23458862Y-31825129D01*
X23417680Y-31860813D01*
X23384426Y-31878810D01*
X23384424Y-31878811D01*
X23206762Y-32017091D01*
X23054279Y-32182729D01*
X23054275Y-32182734D01*
X22931141Y-32371206D01*
X22840703Y-32577386D01*
X22840702Y-32577387D01*
X22785437Y-32795624D01*
X22785436Y-32795630D01*
X22785436Y-32795632D01*
X22766844Y-33020000D01*
X22782952Y-33214394D01*
X22785437Y-33244375D01*
X22840702Y-33462612D01*
X22840703Y-33462613D01*
X22840704Y-33462616D01*
X22931140Y-33668791D01*
X22931141Y-33668793D01*
X23054275Y-33857265D01*
X23054279Y-33857270D01*
X23206762Y-34022908D01*
X23217413Y-34031198D01*
X23384424Y-34161189D01*
X23417153Y-34178901D01*
X23417680Y-34179186D01*
X23468071Y-34229200D01*
X23483423Y-34298516D01*
X23458862Y-34365129D01*
X23417680Y-34400813D01*
X23384426Y-34418810D01*
X23384424Y-34418811D01*
X23206762Y-34557091D01*
X23054279Y-34722729D01*
X23054275Y-34722734D01*
X22931141Y-34911206D01*
X22840703Y-35117386D01*
X22840702Y-35117387D01*
X22785437Y-35335624D01*
X22785436Y-35335630D01*
X22785436Y-35335632D01*
X22766844Y-35560000D01*
X22782328Y-35746863D01*
X22785437Y-35784375D01*
X22840702Y-36002612D01*
X22840703Y-36002613D01*
X22840704Y-36002616D01*
X22873811Y-36078093D01*
X22931141Y-36208793D01*
X23054275Y-36397265D01*
X23054279Y-36397270D01*
X23206762Y-36562908D01*
X23217413Y-36571198D01*
X23384424Y-36701189D01*
X23417680Y-36719186D01*
X23468071Y-36769200D01*
X23483423Y-36838516D01*
X23458862Y-36905129D01*
X23417680Y-36940813D01*
X23384426Y-36958810D01*
X23384424Y-36958811D01*
X23206762Y-37097091D01*
X23054279Y-37262729D01*
X23054275Y-37262734D01*
X22931141Y-37451206D01*
X22840703Y-37657386D01*
X22840702Y-37657387D01*
X22785437Y-37875624D01*
X22785436Y-37875630D01*
X22785436Y-37875632D01*
X22766844Y-38100000D01*
X22782236Y-38285753D01*
X22785437Y-38324375D01*
X22840702Y-38542612D01*
X22840703Y-38542613D01*
X22840704Y-38542616D01*
X22925091Y-38735000D01*
X22931141Y-38748793D01*
X23054275Y-38937265D01*
X23054279Y-38937270D01*
X23206762Y-39102908D01*
X23217413Y-39111198D01*
X23384424Y-39241189D01*
X23582426Y-39348342D01*
X23582427Y-39348342D01*
X23582428Y-39348343D01*
X23657171Y-39374002D01*
X23795365Y-39421444D01*
X24017431Y-39458500D01*
X24017435Y-39458500D01*
X24242565Y-39458500D01*
X24242569Y-39458500D01*
X24464635Y-39421444D01*
X24677574Y-39348342D01*
X24875576Y-39241189D01*
X25053240Y-39102906D01*
X25205722Y-38937268D01*
X25328860Y-38748791D01*
X25419296Y-38542616D01*
X25474564Y-38324368D01*
X25493156Y-38100000D01*
X25474564Y-37875632D01*
X25472875Y-37868961D01*
X25419297Y-37657387D01*
X25419296Y-37657386D01*
X25419296Y-37657384D01*
X25388138Y-37586350D01*
X28236500Y-37586350D01*
X28236500Y-39883649D01*
X28243009Y-39944196D01*
X28243011Y-39944204D01*
X28294110Y-40081202D01*
X28294112Y-40081207D01*
X28381738Y-40198261D01*
X28498792Y-40285887D01*
X28498794Y-40285888D01*
X28498796Y-40285889D01*
X28557875Y-40307924D01*
X28635795Y-40336988D01*
X28635803Y-40336990D01*
X28696350Y-40343499D01*
X28696355Y-40343499D01*
X28696362Y-40343500D01*
X28696368Y-40343500D01*
X30993632Y-40343500D01*
X30993638Y-40343500D01*
X30993645Y-40343499D01*
X30993649Y-40343499D01*
X31054196Y-40336990D01*
X31054199Y-40336989D01*
X31054201Y-40336989D01*
X31191204Y-40285889D01*
X31308261Y-40198261D01*
X31349255Y-40143500D01*
X31395887Y-40081207D01*
X31395887Y-40081206D01*
X31395889Y-40081204D01*
X31446989Y-39944201D01*
X31449786Y-39918190D01*
X31453499Y-39883649D01*
X31453500Y-39883632D01*
X31453500Y-38735000D01*
X32341502Y-38735000D01*
X32360250Y-38949296D01*
X32361457Y-38963086D01*
X32420715Y-39184240D01*
X32420717Y-39184246D01*
X32503365Y-39361485D01*
X32517477Y-39391749D01*
X32648802Y-39579300D01*
X32810700Y-39741198D01*
X32998251Y-39872523D01*
X33205757Y-39969284D01*
X33426913Y-40028543D01*
X33655000Y-40048498D01*
X33883087Y-40028543D01*
X34104243Y-39969284D01*
X34311749Y-39872523D01*
X34499300Y-39741198D01*
X34661198Y-39579300D01*
X34792523Y-39391749D01*
X34889284Y-39184243D01*
X34948543Y-38963087D01*
X34968498Y-38735000D01*
X34948543Y-38506913D01*
X34889284Y-38285757D01*
X34802665Y-38100000D01*
X46316502Y-38100000D01*
X46336457Y-38328087D01*
X46337797Y-38333087D01*
X46395715Y-38549240D01*
X46395717Y-38549246D01*
X46492477Y-38756749D01*
X46618879Y-38937270D01*
X46623802Y-38944300D01*
X46785700Y-39106198D01*
X46973251Y-39237523D01*
X47180757Y-39334284D01*
X47401913Y-39393543D01*
X47630000Y-39413498D01*
X47858087Y-39393543D01*
X48079243Y-39334284D01*
X48286749Y-39237523D01*
X48474300Y-39106198D01*
X48636198Y-38944300D01*
X48767523Y-38756749D01*
X48864284Y-38549243D01*
X48923543Y-38328087D01*
X48943498Y-38100000D01*
X56476502Y-38100000D01*
X56496457Y-38328087D01*
X56497797Y-38333087D01*
X56555715Y-38549240D01*
X56555717Y-38549246D01*
X56652477Y-38756749D01*
X56778879Y-38937270D01*
X56783802Y-38944300D01*
X56945700Y-39106198D01*
X57133251Y-39237523D01*
X57340757Y-39334284D01*
X57561913Y-39393543D01*
X57790000Y-39413498D01*
X58018087Y-39393543D01*
X58239243Y-39334284D01*
X58446749Y-39237523D01*
X58634300Y-39106198D01*
X58796198Y-38944300D01*
X58927523Y-38756749D01*
X59024284Y-38549243D01*
X59083543Y-38328087D01*
X59103498Y-38100000D01*
X59083543Y-37871913D01*
X59024284Y-37650757D01*
X58927523Y-37443251D01*
X58796198Y-37255700D01*
X58634300Y-37093802D01*
X58620301Y-37084000D01*
X58446749Y-36962477D01*
X58239246Y-36865717D01*
X58239240Y-36865715D01*
X58124610Y-36835000D01*
X58105950Y-36830000D01*
X60826673Y-36830000D01*
X60837650Y-36962477D01*
X60845950Y-37062633D01*
X60903249Y-37288903D01*
X60903252Y-37288910D01*
X60997015Y-37502668D01*
X61124685Y-37698083D01*
X61282774Y-37869813D01*
X61282778Y-37869817D01*
X61310882Y-37891691D01*
X61466983Y-38013190D01*
X61672273Y-38124287D01*
X61893049Y-38200080D01*
X62123288Y-38238500D01*
X62123292Y-38238500D01*
X62356708Y-38238500D01*
X62356712Y-38238500D01*
X62586951Y-38200080D01*
X62807727Y-38124287D01*
X63013017Y-38013190D01*
X63197220Y-37869818D01*
X63197225Y-37869813D01*
X63201054Y-37866289D01*
X63202321Y-37867665D01*
X63256166Y-37835275D01*
X63327131Y-37837379D01*
X63385694Y-37877516D01*
X63406121Y-37913137D01*
X63429553Y-37975961D01*
X63429555Y-37975965D01*
X63517095Y-38092904D01*
X63634034Y-38180444D01*
X63770906Y-38231494D01*
X63831402Y-38237999D01*
X63831415Y-38238000D01*
X64526000Y-38238000D01*
X64526000Y-37202968D01*
X64606306Y-37249333D01*
X64720756Y-37280000D01*
X64839244Y-37280000D01*
X64953694Y-37249333D01*
X65034000Y-37202968D01*
X65034000Y-38238000D01*
X65728585Y-38238000D01*
X65728597Y-38237999D01*
X65789093Y-38231494D01*
X65925964Y-38180444D01*
X65925965Y-38180444D01*
X66042904Y-38092904D01*
X66130444Y-37975965D01*
X66130444Y-37975964D01*
X66181494Y-37839093D01*
X66187999Y-37778597D01*
X66188000Y-37778585D01*
X66188000Y-37084000D01*
X65152968Y-37084000D01*
X65199333Y-37003694D01*
X65230000Y-36889244D01*
X65230000Y-36770756D01*
X65199333Y-36656306D01*
X65152968Y-36576000D01*
X66188000Y-36576000D01*
X66188000Y-35881414D01*
X66187999Y-35881402D01*
X66181494Y-35820906D01*
X66130444Y-35684035D01*
X66130444Y-35684034D01*
X66042904Y-35567095D01*
X65925965Y-35479555D01*
X65789093Y-35428505D01*
X65728597Y-35422000D01*
X65034000Y-35422000D01*
X65034000Y-36457031D01*
X64953694Y-36410667D01*
X64839244Y-36380000D01*
X64720756Y-36380000D01*
X64606306Y-36410667D01*
X64526000Y-36457031D01*
X64526000Y-35422000D01*
X63831402Y-35422000D01*
X63770906Y-35428505D01*
X63634035Y-35479555D01*
X63634034Y-35479555D01*
X63517095Y-35567095D01*
X63429555Y-35684034D01*
X63429554Y-35684037D01*
X63406121Y-35746863D01*
X63363574Y-35803698D01*
X63297054Y-35828508D01*
X63227680Y-35813416D01*
X63201644Y-35793069D01*
X63201054Y-35793711D01*
X63197221Y-35790182D01*
X63088185Y-35705316D01*
X63013017Y-35646810D01*
X62807727Y-35535713D01*
X62807724Y-35535712D01*
X62807723Y-35535711D01*
X62586955Y-35459921D01*
X62586948Y-35459919D01*
X62488411Y-35443476D01*
X62356712Y-35421500D01*
X62123288Y-35421500D01*
X62008066Y-35440727D01*
X61893051Y-35459919D01*
X61893044Y-35459921D01*
X61672276Y-35535711D01*
X61672273Y-35535713D01*
X61466985Y-35646809D01*
X61466983Y-35646810D01*
X61282778Y-35790182D01*
X61282774Y-35790186D01*
X61124685Y-35961916D01*
X60997015Y-36157331D01*
X60903252Y-36371089D01*
X60903249Y-36371096D01*
X60845950Y-36597366D01*
X60845949Y-36597372D01*
X60845949Y-36597374D01*
X60826673Y-36830000D01*
X58105950Y-36830000D01*
X58018087Y-36806457D01*
X57790000Y-36786502D01*
X57561913Y-36806457D01*
X57340759Y-36865715D01*
X57340753Y-36865717D01*
X57133250Y-36962477D01*
X56945703Y-37093799D01*
X56945697Y-37093804D01*
X56783804Y-37255697D01*
X56783799Y-37255703D01*
X56652477Y-37443250D01*
X56555717Y-37650753D01*
X56555715Y-37650759D01*
X56534803Y-37728804D01*
X56496457Y-37871913D01*
X56476502Y-38100000D01*
X48943498Y-38100000D01*
X48923543Y-37871913D01*
X48864284Y-37650757D01*
X48767523Y-37443251D01*
X48636198Y-37255700D01*
X48474300Y-37093802D01*
X48460301Y-37084000D01*
X48286749Y-36962477D01*
X48079246Y-36865717D01*
X48079240Y-36865715D01*
X47964610Y-36835000D01*
X47858087Y-36806457D01*
X47630000Y-36786502D01*
X47401913Y-36806457D01*
X47180759Y-36865715D01*
X47180753Y-36865717D01*
X46973250Y-36962477D01*
X46785703Y-37093799D01*
X46785697Y-37093804D01*
X46623804Y-37255697D01*
X46623799Y-37255703D01*
X46492477Y-37443250D01*
X46395717Y-37650753D01*
X46395715Y-37650759D01*
X46374803Y-37728804D01*
X46336457Y-37871913D01*
X46316502Y-38100000D01*
X34802665Y-38100000D01*
X34792523Y-38078251D01*
X34661198Y-37890700D01*
X34499300Y-37728802D01*
X34495011Y-37725799D01*
X34311749Y-37597477D01*
X34104246Y-37500717D01*
X34104240Y-37500715D01*
X33996096Y-37471738D01*
X33883087Y-37441457D01*
X33655000Y-37421502D01*
X33426913Y-37441457D01*
X33205759Y-37500715D01*
X33205753Y-37500717D01*
X32998250Y-37597477D01*
X32810703Y-37728799D01*
X32810697Y-37728804D01*
X32648804Y-37890697D01*
X32648799Y-37890703D01*
X32517477Y-38078250D01*
X32420717Y-38285753D01*
X32420715Y-38285759D01*
X32408034Y-38333086D01*
X32361457Y-38506913D01*
X32341502Y-38735000D01*
X31453500Y-38735000D01*
X31453500Y-37586367D01*
X31453499Y-37586350D01*
X31446990Y-37525803D01*
X31446988Y-37525795D01*
X31395889Y-37388797D01*
X31395887Y-37388792D01*
X31308261Y-37271738D01*
X31191207Y-37184112D01*
X31191202Y-37184110D01*
X31054204Y-37133011D01*
X31054196Y-37133009D01*
X30993649Y-37126500D01*
X30993638Y-37126500D01*
X28696362Y-37126500D01*
X28696350Y-37126500D01*
X28635803Y-37133009D01*
X28635795Y-37133011D01*
X28498797Y-37184110D01*
X28498792Y-37184112D01*
X28381738Y-37271738D01*
X28294112Y-37388792D01*
X28294110Y-37388797D01*
X28243011Y-37525795D01*
X28243009Y-37525803D01*
X28236500Y-37586350D01*
X25388138Y-37586350D01*
X25328860Y-37451209D01*
X25314534Y-37429281D01*
X25205724Y-37262734D01*
X25205720Y-37262729D01*
X25054812Y-37098802D01*
X25053240Y-37097094D01*
X25053239Y-37097093D01*
X25053237Y-37097091D01*
X24960595Y-37024985D01*
X24875576Y-36958811D01*
X24842319Y-36940813D01*
X24791929Y-36890802D01*
X24776576Y-36821485D01*
X24801136Y-36754872D01*
X24842320Y-36719186D01*
X24875576Y-36701189D01*
X25053240Y-36562906D01*
X25205722Y-36397268D01*
X25328860Y-36208791D01*
X25419296Y-36002616D01*
X25474564Y-35784368D01*
X25493156Y-35560000D01*
X25489205Y-35512323D01*
X39127337Y-35512323D01*
X39145960Y-35748955D01*
X39201371Y-35979760D01*
X39292208Y-36199061D01*
X39406896Y-36386213D01*
X39406897Y-36386213D01*
X40155841Y-35637269D01*
X40174075Y-35705316D01*
X40239901Y-35819330D01*
X40332993Y-35912422D01*
X40447007Y-35978248D01*
X40515051Y-35996480D01*
X39766107Y-36745424D01*
X39766108Y-36745425D01*
X39953261Y-36860114D01*
X40172562Y-36950951D01*
X40403367Y-37006362D01*
X40640000Y-37024985D01*
X40876632Y-37006362D01*
X41107437Y-36950951D01*
X41326738Y-36860114D01*
X41513890Y-36745425D01*
X41513891Y-36745425D01*
X40764947Y-35996481D01*
X40832993Y-35978248D01*
X40947007Y-35912422D01*
X41040099Y-35819330D01*
X41105925Y-35705316D01*
X41124158Y-35637270D01*
X41873102Y-36386214D01*
X41873102Y-36386213D01*
X41987791Y-36199061D01*
X42078628Y-35979760D01*
X42134039Y-35748955D01*
X42152662Y-35512323D01*
X42134039Y-35275690D01*
X42078628Y-35044885D01*
X41987791Y-34825584D01*
X41873102Y-34638431D01*
X41873101Y-34638430D01*
X41124157Y-35387374D01*
X41105925Y-35319330D01*
X41040099Y-35205316D01*
X40947007Y-35112224D01*
X40832993Y-35046398D01*
X40764946Y-35028164D01*
X41503110Y-34290000D01*
X46317004Y-34290000D01*
X46336951Y-34518002D01*
X46396186Y-34739068D01*
X46396188Y-34739073D01*
X46492913Y-34946501D01*
X46542899Y-35017888D01*
X47230000Y-34330788D01*
X47230000Y-34342661D01*
X47257259Y-34444394D01*
X47309920Y-34535606D01*
X47384394Y-34610080D01*
X47475606Y-34662741D01*
X47577339Y-34690000D01*
X47589210Y-34690000D01*
X46902110Y-35377098D01*
X46902110Y-35377100D01*
X46973498Y-35427086D01*
X47180926Y-35523811D01*
X47180931Y-35523813D01*
X47401999Y-35583048D01*
X47401995Y-35583048D01*
X47630000Y-35602995D01*
X47858002Y-35583048D01*
X48079068Y-35523813D01*
X48079073Y-35523811D01*
X48286497Y-35427088D01*
X48357888Y-35377099D01*
X48357888Y-35377097D01*
X47670791Y-34690000D01*
X47682661Y-34690000D01*
X47784394Y-34662741D01*
X47875606Y-34610080D01*
X47950080Y-34535606D01*
X48002741Y-34444394D01*
X48030000Y-34342661D01*
X48030000Y-34330791D01*
X48717097Y-35017888D01*
X48717099Y-35017888D01*
X48767088Y-34946497D01*
X48863811Y-34739073D01*
X48863813Y-34739068D01*
X48923048Y-34518002D01*
X48942995Y-34290000D01*
X48923048Y-34061997D01*
X48863813Y-33840931D01*
X48863811Y-33840926D01*
X48767086Y-33633498D01*
X48717100Y-33562110D01*
X48717098Y-33562110D01*
X48030000Y-34249208D01*
X48030000Y-34237339D01*
X48002741Y-34135606D01*
X47950080Y-34044394D01*
X47875606Y-33969920D01*
X47784394Y-33917259D01*
X47682661Y-33890000D01*
X47670790Y-33890000D01*
X48357888Y-33202899D01*
X48357888Y-33202898D01*
X48286501Y-33152913D01*
X48087248Y-33060000D01*
X52082195Y-33060000D01*
X52101380Y-33279287D01*
X52158350Y-33491903D01*
X52158352Y-33491907D01*
X52251379Y-33691403D01*
X52293800Y-33751987D01*
X52945000Y-33100788D01*
X52945000Y-33112661D01*
X52972259Y-33214394D01*
X53024920Y-33305606D01*
X53099394Y-33380080D01*
X53190606Y-33432741D01*
X53292339Y-33460000D01*
X53304210Y-33460000D01*
X52653011Y-34111197D01*
X52653011Y-34111198D01*
X52713597Y-34153621D01*
X52913092Y-34246647D01*
X52913096Y-34246649D01*
X53125712Y-34303619D01*
X53345000Y-34322804D01*
X53564287Y-34303619D01*
X53764397Y-34250000D01*
X57747004Y-34250000D01*
X57766951Y-34478002D01*
X57826186Y-34699068D01*
X57826188Y-34699073D01*
X57922913Y-34906501D01*
X57972899Y-34977888D01*
X58660000Y-34290788D01*
X58660000Y-34302661D01*
X58687259Y-34404394D01*
X58739920Y-34495606D01*
X58814394Y-34570080D01*
X58905606Y-34622741D01*
X59007339Y-34650000D01*
X59019210Y-34650000D01*
X58332110Y-35337098D01*
X58332110Y-35337100D01*
X58403498Y-35387086D01*
X58610926Y-35483811D01*
X58610931Y-35483813D01*
X58831999Y-35543048D01*
X58831995Y-35543048D01*
X59060000Y-35562995D01*
X59288002Y-35543048D01*
X59509068Y-35483813D01*
X59509073Y-35483811D01*
X59716497Y-35387088D01*
X59787888Y-35337099D01*
X59787888Y-35337097D01*
X59100791Y-34650000D01*
X59112661Y-34650000D01*
X59214394Y-34622741D01*
X59305606Y-34570080D01*
X59380080Y-34495606D01*
X59432741Y-34404394D01*
X59460000Y-34302661D01*
X59460000Y-34290791D01*
X60147097Y-34977888D01*
X60147099Y-34977888D01*
X60197088Y-34906497D01*
X60293811Y-34699073D01*
X60293813Y-34699068D01*
X60353048Y-34478002D01*
X60372995Y-34250000D01*
X60353048Y-34021997D01*
X60293813Y-33800931D01*
X60293811Y-33800926D01*
X60197086Y-33593498D01*
X60147100Y-33522110D01*
X60147098Y-33522110D01*
X59460000Y-34209208D01*
X59460000Y-34197339D01*
X59432741Y-34095606D01*
X59380080Y-34004394D01*
X59305606Y-33929920D01*
X59214394Y-33877259D01*
X59112661Y-33850000D01*
X59100790Y-33850000D01*
X59787888Y-33162899D01*
X59787888Y-33162898D01*
X59716501Y-33112913D01*
X59509073Y-33016188D01*
X59509068Y-33016186D01*
X59288000Y-32956951D01*
X59288004Y-32956951D01*
X59060000Y-32937004D01*
X58831997Y-32956951D01*
X58610931Y-33016186D01*
X58610926Y-33016188D01*
X58403500Y-33112913D01*
X58332109Y-33162900D01*
X59019209Y-33850000D01*
X59007339Y-33850000D01*
X58905606Y-33877259D01*
X58814394Y-33929920D01*
X58739920Y-34004394D01*
X58687259Y-34095606D01*
X58660000Y-34197339D01*
X58660000Y-34209209D01*
X57972900Y-33522109D01*
X57922913Y-33593500D01*
X57826188Y-33800926D01*
X57826186Y-33800931D01*
X57766951Y-34021997D01*
X57747004Y-34250000D01*
X53764397Y-34250000D01*
X53776903Y-34246649D01*
X53776907Y-34246647D01*
X53976399Y-34153622D01*
X54036987Y-34111197D01*
X54036987Y-34111196D01*
X53385791Y-33460000D01*
X53397661Y-33460000D01*
X53499394Y-33432741D01*
X53590606Y-33380080D01*
X53665080Y-33305606D01*
X53717741Y-33214394D01*
X53745000Y-33112661D01*
X53745000Y-33100791D01*
X54396196Y-33751987D01*
X54396197Y-33751987D01*
X54438622Y-33691399D01*
X54531647Y-33491907D01*
X54531649Y-33491903D01*
X54588619Y-33279287D01*
X54607804Y-33060000D01*
X54588619Y-32840712D01*
X54531649Y-32628096D01*
X54531647Y-32628092D01*
X54438619Y-32428594D01*
X54396199Y-32368011D01*
X54396197Y-32368011D01*
X53745000Y-33019208D01*
X53745000Y-33007339D01*
X53717741Y-32905606D01*
X53665080Y-32814394D01*
X53590606Y-32739920D01*
X53499394Y-32687259D01*
X53397661Y-32660000D01*
X53385790Y-32660000D01*
X54036987Y-32008800D01*
X53976403Y-31966379D01*
X53776907Y-31873352D01*
X53776903Y-31873350D01*
X53564287Y-31816380D01*
X53345000Y-31797195D01*
X53125712Y-31816380D01*
X52913096Y-31873350D01*
X52913092Y-31873352D01*
X52713598Y-31966378D01*
X52653010Y-32008801D01*
X53304209Y-32660000D01*
X53292339Y-32660000D01*
X53190606Y-32687259D01*
X53099394Y-32739920D01*
X53024920Y-32814394D01*
X52972259Y-32905606D01*
X52945000Y-33007339D01*
X52945000Y-33019209D01*
X52293801Y-32368010D01*
X52251378Y-32428598D01*
X52158352Y-32628092D01*
X52158350Y-32628096D01*
X52101380Y-32840712D01*
X52082195Y-33060000D01*
X48087248Y-33060000D01*
X48079073Y-33056188D01*
X48079068Y-33056186D01*
X47858000Y-32996951D01*
X47858004Y-32996951D01*
X47630000Y-32977004D01*
X47401997Y-32996951D01*
X47180931Y-33056186D01*
X47180926Y-33056188D01*
X46973500Y-33152913D01*
X46902109Y-33202900D01*
X47589209Y-33890000D01*
X47577339Y-33890000D01*
X47475606Y-33917259D01*
X47384394Y-33969920D01*
X47309920Y-34044394D01*
X47257259Y-34135606D01*
X47230000Y-34237339D01*
X47230000Y-34249209D01*
X46542900Y-33562109D01*
X46492913Y-33633500D01*
X46396188Y-33840926D01*
X46396186Y-33840931D01*
X46336951Y-34061997D01*
X46317004Y-34290000D01*
X41503110Y-34290000D01*
X41513890Y-34279220D01*
X41513890Y-34279219D01*
X41326738Y-34164531D01*
X41107437Y-34073694D01*
X40876632Y-34018283D01*
X40640000Y-33999660D01*
X40403367Y-34018283D01*
X40172562Y-34073694D01*
X39953266Y-34164529D01*
X39766108Y-34279220D01*
X39766108Y-34279221D01*
X40515052Y-35028165D01*
X40447007Y-35046398D01*
X40332993Y-35112224D01*
X40239901Y-35205316D01*
X40174075Y-35319330D01*
X40155842Y-35387375D01*
X39406898Y-34638431D01*
X39406897Y-34638431D01*
X39292206Y-34825589D01*
X39201371Y-35044885D01*
X39145960Y-35275690D01*
X39127337Y-35512323D01*
X25489205Y-35512323D01*
X25474564Y-35335632D01*
X25459385Y-35275690D01*
X25419297Y-35117387D01*
X25419296Y-35117386D01*
X25419296Y-35117384D01*
X25328860Y-34911209D01*
X25277987Y-34833342D01*
X25205724Y-34722734D01*
X25205720Y-34722729D01*
X25081262Y-34587534D01*
X25053240Y-34557094D01*
X25053239Y-34557093D01*
X25053237Y-34557091D01*
X24951624Y-34478002D01*
X24875576Y-34418811D01*
X24842319Y-34400813D01*
X24791929Y-34350802D01*
X24776576Y-34281485D01*
X24801136Y-34214872D01*
X24842320Y-34179186D01*
X24842847Y-34178901D01*
X24875576Y-34161189D01*
X25053240Y-34022906D01*
X25205722Y-33857268D01*
X25328860Y-33668791D01*
X25419296Y-33462616D01*
X25474564Y-33244368D01*
X25493156Y-33020000D01*
X25474564Y-32795632D01*
X25446525Y-32684907D01*
X25419297Y-32577387D01*
X25419296Y-32577386D01*
X25419296Y-32577384D01*
X25328860Y-32371209D01*
X25306287Y-32336658D01*
X25205724Y-32182734D01*
X25205720Y-32182729D01*
X25054812Y-32018802D01*
X25053240Y-32017094D01*
X25053239Y-32017093D01*
X25053237Y-32017091D01*
X24959882Y-31944430D01*
X24875576Y-31878811D01*
X24842319Y-31860813D01*
X24791929Y-31810802D01*
X24776576Y-31741485D01*
X24801136Y-31674872D01*
X24842320Y-31639186D01*
X24875576Y-31621189D01*
X25053240Y-31482906D01*
X25205722Y-31317268D01*
X25328860Y-31128791D01*
X25419296Y-30922616D01*
X25474564Y-30704368D01*
X25493156Y-30480000D01*
X25474564Y-30255632D01*
X25452527Y-30168609D01*
X25419297Y-30037387D01*
X25419296Y-30037386D01*
X25419296Y-30037384D01*
X25328860Y-29831209D01*
X25257097Y-29721367D01*
X25205724Y-29642734D01*
X25205719Y-29642729D01*
X25203848Y-29640697D01*
X25062524Y-29487179D01*
X25031103Y-29423514D01*
X25039090Y-29352968D01*
X25083948Y-29297939D01*
X25111183Y-29283789D01*
X25226204Y-29240889D01*
X25235259Y-29234111D01*
X25343261Y-29153261D01*
X25430887Y-29036207D01*
X25430887Y-29036206D01*
X25430889Y-29036204D01*
X25481989Y-28899201D01*
X25488500Y-28838638D01*
X25488500Y-28575000D01*
X28231526Y-28575000D01*
X28251391Y-28827403D01*
X28268627Y-28899196D01*
X28310494Y-29073589D01*
X28390243Y-29266119D01*
X28407384Y-29307502D01*
X28539672Y-29523376D01*
X28704102Y-29715898D01*
X28896624Y-29880328D01*
X29112498Y-30012616D01*
X29346409Y-30109505D01*
X29592597Y-30168609D01*
X29845000Y-30188474D01*
X30097403Y-30168609D01*
X30343591Y-30109505D01*
X30577502Y-30012616D01*
X30793376Y-29880328D01*
X30985898Y-29715898D01*
X31150328Y-29523376D01*
X31282616Y-29307502D01*
X31379505Y-29073591D01*
X31438609Y-28827403D01*
X31458474Y-28575000D01*
X32341502Y-28575000D01*
X32361457Y-28803087D01*
X32370983Y-28838638D01*
X32420715Y-29024240D01*
X32420717Y-29024246D01*
X32517477Y-29231749D01*
X32640006Y-29406739D01*
X32648802Y-29419300D01*
X32810700Y-29581198D01*
X32998251Y-29712523D01*
X33205757Y-29809284D01*
X33426913Y-29868543D01*
X33655000Y-29888498D01*
X33883087Y-29868543D01*
X34104243Y-29809284D01*
X34311749Y-29712523D01*
X34499300Y-29581198D01*
X34616825Y-29463673D01*
X39131500Y-29463673D01*
X39131500Y-31560972D01*
X39138009Y-31621519D01*
X39138011Y-31621527D01*
X39189110Y-31758525D01*
X39189112Y-31758530D01*
X39276738Y-31875584D01*
X39393792Y-31963210D01*
X39393794Y-31963211D01*
X39393796Y-31963212D01*
X39433449Y-31978002D01*
X39530795Y-32014311D01*
X39530803Y-32014313D01*
X39591350Y-32020822D01*
X39591355Y-32020822D01*
X39591362Y-32020823D01*
X39591368Y-32020823D01*
X41688632Y-32020823D01*
X41688638Y-32020823D01*
X41688645Y-32020822D01*
X41688649Y-32020822D01*
X41749196Y-32014313D01*
X41749199Y-32014312D01*
X41749201Y-32014312D01*
X41886204Y-31963212D01*
X41889122Y-31961028D01*
X42003261Y-31875584D01*
X42090887Y-31758530D01*
X42090887Y-31758529D01*
X42090889Y-31758527D01*
X42137611Y-31633261D01*
X42141988Y-31621527D01*
X42141990Y-31621519D01*
X42148499Y-31560972D01*
X42148500Y-31560955D01*
X42148500Y-29463690D01*
X42148499Y-29463673D01*
X42141990Y-29403126D01*
X42141988Y-29403118D01*
X42106323Y-29307500D01*
X42099796Y-29290000D01*
X46316502Y-29290000D01*
X46336457Y-29518087D01*
X46345611Y-29552250D01*
X46395715Y-29739240D01*
X46395717Y-29739246D01*
X46492477Y-29946749D01*
X46595793Y-30094300D01*
X46623802Y-30134300D01*
X46785700Y-30296198D01*
X46973251Y-30427523D01*
X47180757Y-30524284D01*
X47401913Y-30583543D01*
X47630000Y-30603498D01*
X47858087Y-30583543D01*
X48079243Y-30524284D01*
X48088430Y-30520000D01*
X49541693Y-30520000D01*
X49545498Y-30563498D01*
X49560885Y-30739370D01*
X49617879Y-30952073D01*
X49617881Y-30952079D01*
X49700283Y-31128791D01*
X49710944Y-31151654D01*
X49792062Y-31267502D01*
X49837251Y-31332038D01*
X49837254Y-31332042D01*
X49992957Y-31487745D01*
X49992961Y-31487748D01*
X49992962Y-31487749D01*
X50173346Y-31614056D01*
X50372924Y-31707120D01*
X50585629Y-31764115D01*
X50805000Y-31783307D01*
X51024371Y-31764115D01*
X51237076Y-31707120D01*
X51436654Y-31614056D01*
X51617038Y-31487749D01*
X51772749Y-31332038D01*
X51899056Y-31151654D01*
X51992120Y-30952076D01*
X52049115Y-30739371D01*
X52068307Y-30520000D01*
X52049115Y-30300629D01*
X51992120Y-30087924D01*
X51899056Y-29888347D01*
X51782123Y-29721350D01*
X54626500Y-29721350D01*
X54626500Y-31318649D01*
X54633009Y-31379196D01*
X54633011Y-31379204D01*
X54684110Y-31516202D01*
X54684112Y-31516207D01*
X54771738Y-31633261D01*
X54888792Y-31720887D01*
X54888794Y-31720888D01*
X54888796Y-31720889D01*
X54947875Y-31742924D01*
X55025795Y-31771988D01*
X55025803Y-31771990D01*
X55086350Y-31778499D01*
X55086355Y-31778499D01*
X55086362Y-31778500D01*
X55086368Y-31778500D01*
X56683632Y-31778500D01*
X56683638Y-31778500D01*
X56683645Y-31778499D01*
X56683649Y-31778499D01*
X56744196Y-31771990D01*
X56744199Y-31771989D01*
X56744201Y-31771989D01*
X56745089Y-31771658D01*
X56765314Y-31764114D01*
X56803155Y-31750000D01*
X62827004Y-31750000D01*
X62846951Y-31978002D01*
X62906186Y-32199068D01*
X62906188Y-32199073D01*
X63002913Y-32406501D01*
X63052899Y-32477888D01*
X63740000Y-31790788D01*
X63740000Y-31802661D01*
X63767259Y-31904394D01*
X63819920Y-31995606D01*
X63894394Y-32070080D01*
X63985606Y-32122741D01*
X64087339Y-32150000D01*
X64099210Y-32150000D01*
X63412110Y-32837098D01*
X63412110Y-32837100D01*
X63483498Y-32887086D01*
X63690926Y-32983811D01*
X63690931Y-32983813D01*
X63911999Y-33043048D01*
X63911995Y-33043048D01*
X64140000Y-33062995D01*
X64368002Y-33043048D01*
X64589068Y-32983813D01*
X64589073Y-32983811D01*
X64796497Y-32887088D01*
X64867888Y-32837099D01*
X64867888Y-32837097D01*
X64180791Y-32150000D01*
X64192661Y-32150000D01*
X64294394Y-32122741D01*
X64385606Y-32070080D01*
X64460080Y-31995606D01*
X64512741Y-31904394D01*
X64540000Y-31802661D01*
X64540000Y-31790791D01*
X65227097Y-32477888D01*
X65227099Y-32477888D01*
X65277088Y-32406497D01*
X65373811Y-32199073D01*
X65373813Y-32199068D01*
X65433048Y-31978002D01*
X65452995Y-31750000D01*
X65433048Y-31521997D01*
X65373813Y-31300931D01*
X65373811Y-31300926D01*
X65277086Y-31093498D01*
X65227100Y-31022110D01*
X65227098Y-31022110D01*
X64540000Y-31709208D01*
X64540000Y-31697339D01*
X64512741Y-31595606D01*
X64460080Y-31504394D01*
X64385606Y-31429920D01*
X64294394Y-31377259D01*
X64192661Y-31350000D01*
X64180790Y-31350000D01*
X64879569Y-30651218D01*
X64884709Y-30625649D01*
X64934108Y-30574657D01*
X64985369Y-30559667D01*
X64985283Y-30558861D01*
X65049196Y-30551990D01*
X65049199Y-30551989D01*
X65049201Y-30551989D01*
X65065725Y-30545826D01*
X65071848Y-30543542D01*
X65186204Y-30500889D01*
X65208389Y-30484282D01*
X65303261Y-30413261D01*
X65390887Y-30296207D01*
X65390887Y-30296206D01*
X65390889Y-30296204D01*
X65441989Y-30159201D01*
X65444667Y-30134296D01*
X65448499Y-30098649D01*
X65448500Y-30098632D01*
X65448500Y-28401367D01*
X65448499Y-28401350D01*
X65441990Y-28340803D01*
X65441988Y-28340795D01*
X65405811Y-28243804D01*
X65390889Y-28203796D01*
X65390888Y-28203794D01*
X65390887Y-28203792D01*
X65303261Y-28086738D01*
X65186207Y-27999112D01*
X65186202Y-27999110D01*
X65049204Y-27948011D01*
X65049196Y-27948009D01*
X64988649Y-27941500D01*
X64988638Y-27941500D01*
X63291362Y-27941500D01*
X63291350Y-27941500D01*
X63230803Y-27948009D01*
X63230795Y-27948011D01*
X63093797Y-27999110D01*
X63093792Y-27999112D01*
X62976738Y-28086738D01*
X62889112Y-28203792D01*
X62889110Y-28203797D01*
X62838011Y-28340795D01*
X62838009Y-28340803D01*
X62831500Y-28401350D01*
X62831500Y-30098649D01*
X62838009Y-30159196D01*
X62838011Y-30159204D01*
X62889110Y-30296202D01*
X62889112Y-30296207D01*
X62976738Y-30413261D01*
X63093792Y-30500887D01*
X63093794Y-30500888D01*
X63093796Y-30500889D01*
X63145034Y-30520000D01*
X63230795Y-30551988D01*
X63230803Y-30551990D01*
X63294717Y-30558861D01*
X63294604Y-30559906D01*
X63357435Y-30582059D01*
X63401000Y-30638118D01*
X63403316Y-30654107D01*
X64099209Y-31350000D01*
X64087339Y-31350000D01*
X63985606Y-31377259D01*
X63894394Y-31429920D01*
X63819920Y-31504394D01*
X63767259Y-31595606D01*
X63740000Y-31697339D01*
X63740000Y-31709209D01*
X63052900Y-31022109D01*
X63002913Y-31093500D01*
X62906188Y-31300926D01*
X62906186Y-31300931D01*
X62846951Y-31521997D01*
X62827004Y-31750000D01*
X56803155Y-31750000D01*
X56881204Y-31720889D01*
X56923536Y-31689200D01*
X56998261Y-31633261D01*
X57085887Y-31516207D01*
X57085887Y-31516206D01*
X57085889Y-31516204D01*
X57131396Y-31394196D01*
X57136988Y-31379204D01*
X57136990Y-31379196D01*
X57143499Y-31318649D01*
X57143500Y-31318632D01*
X57143500Y-29721367D01*
X57143499Y-29721350D01*
X57136990Y-29660803D01*
X57136988Y-29660795D01*
X57085889Y-29523797D01*
X57085887Y-29523792D01*
X56998261Y-29406738D01*
X56881207Y-29319112D01*
X56881202Y-29319110D01*
X56744204Y-29268011D01*
X56744196Y-29268009D01*
X56683649Y-29261500D01*
X56683638Y-29261500D01*
X55086362Y-29261500D01*
X55086350Y-29261500D01*
X55025803Y-29268009D01*
X55025795Y-29268011D01*
X54888797Y-29319110D01*
X54888792Y-29319112D01*
X54771738Y-29406738D01*
X54684112Y-29523792D01*
X54684110Y-29523797D01*
X54633011Y-29660795D01*
X54633009Y-29660803D01*
X54626500Y-29721350D01*
X51782123Y-29721350D01*
X51772749Y-29707962D01*
X51617038Y-29552251D01*
X51575800Y-29523376D01*
X51567903Y-29517846D01*
X51436654Y-29425944D01*
X51422406Y-29419300D01*
X51237079Y-29332881D01*
X51237073Y-29332879D01*
X51077048Y-29290000D01*
X51024371Y-29275885D01*
X50805000Y-29256693D01*
X50585629Y-29275885D01*
X50372926Y-29332879D01*
X50372920Y-29332881D01*
X50173346Y-29425944D01*
X49992965Y-29552248D01*
X49992959Y-29552253D01*
X49837253Y-29707959D01*
X49837248Y-29707965D01*
X49710944Y-29888346D01*
X49617881Y-30087920D01*
X49617879Y-30087926D01*
X49590937Y-30188474D01*
X49560885Y-30300629D01*
X49541693Y-30520000D01*
X48088430Y-30520000D01*
X48286749Y-30427523D01*
X48474300Y-30296198D01*
X48636198Y-30134300D01*
X48767523Y-29946749D01*
X48864284Y-29739243D01*
X48923543Y-29518087D01*
X48943498Y-29290000D01*
X48939998Y-29250000D01*
X57746502Y-29250000D01*
X57765197Y-29463690D01*
X57766457Y-29478086D01*
X57825715Y-29699240D01*
X57825717Y-29699246D01*
X57922477Y-29906749D01*
X58049334Y-30087920D01*
X58053802Y-30094300D01*
X58215700Y-30256198D01*
X58403251Y-30387523D01*
X58610757Y-30484284D01*
X58831913Y-30543543D01*
X59060000Y-30563498D01*
X59288087Y-30543543D01*
X59509243Y-30484284D01*
X59716749Y-30387523D01*
X59904300Y-30256198D01*
X60066198Y-30094300D01*
X60197523Y-29906749D01*
X60294284Y-29699243D01*
X60353543Y-29478087D01*
X60373498Y-29250000D01*
X60353543Y-29021913D01*
X60294284Y-28800757D01*
X60197523Y-28593251D01*
X60066198Y-28405700D01*
X59904300Y-28243802D01*
X59716749Y-28112477D01*
X59509246Y-28015717D01*
X59509240Y-28015715D01*
X59415771Y-27990670D01*
X59288087Y-27956457D01*
X59060000Y-27936502D01*
X58831913Y-27956457D01*
X58610759Y-28015715D01*
X58610753Y-28015717D01*
X58403250Y-28112477D01*
X58215703Y-28243799D01*
X58215697Y-28243804D01*
X58053804Y-28405697D01*
X58053799Y-28405703D01*
X57922477Y-28593250D01*
X57825717Y-28800753D01*
X57825715Y-28800759D01*
X57814999Y-28840753D01*
X57766457Y-29021913D01*
X57746502Y-29250000D01*
X48939998Y-29250000D01*
X48923543Y-29061913D01*
X48864284Y-28840757D01*
X48767523Y-28633251D01*
X48636198Y-28445700D01*
X48474300Y-28283802D01*
X48286749Y-28152477D01*
X48229452Y-28125759D01*
X48079246Y-28055717D01*
X48079240Y-28055715D01*
X47985771Y-28030670D01*
X47858087Y-27996457D01*
X47630000Y-27976502D01*
X47401913Y-27996457D01*
X47180759Y-28055715D01*
X47180753Y-28055717D01*
X46973250Y-28152477D01*
X46785703Y-28283799D01*
X46785697Y-28283804D01*
X46623804Y-28445697D01*
X46623799Y-28445703D01*
X46492477Y-28633250D01*
X46395717Y-28840753D01*
X46395715Y-28840759D01*
X46346551Y-29024243D01*
X46336457Y-29061913D01*
X46316502Y-29290000D01*
X42099796Y-29290000D01*
X42090889Y-29266119D01*
X42090888Y-29266117D01*
X42090887Y-29266115D01*
X42003261Y-29149061D01*
X41886207Y-29061435D01*
X41886202Y-29061433D01*
X41749204Y-29010334D01*
X41749196Y-29010332D01*
X41688649Y-29003823D01*
X41688638Y-29003823D01*
X39591362Y-29003823D01*
X39591350Y-29003823D01*
X39530803Y-29010332D01*
X39530795Y-29010334D01*
X39393797Y-29061433D01*
X39393792Y-29061435D01*
X39276738Y-29149061D01*
X39189112Y-29266115D01*
X39189110Y-29266120D01*
X39138011Y-29403118D01*
X39138009Y-29403126D01*
X39131500Y-29463673D01*
X34616825Y-29463673D01*
X34661198Y-29419300D01*
X34792523Y-29231749D01*
X34889284Y-29024243D01*
X34948543Y-28803087D01*
X34968498Y-28575000D01*
X34948543Y-28346913D01*
X34889284Y-28125757D01*
X34792523Y-27918251D01*
X34661198Y-27730700D01*
X34499300Y-27568802D01*
X34311749Y-27437477D01*
X34226850Y-27397888D01*
X34104246Y-27340717D01*
X34104240Y-27340715D01*
X34010771Y-27315670D01*
X33883087Y-27281457D01*
X33655000Y-27261502D01*
X33426913Y-27281457D01*
X33205759Y-27340715D01*
X33205753Y-27340717D01*
X32998250Y-27437477D01*
X32810703Y-27568799D01*
X32810697Y-27568804D01*
X32648804Y-27730697D01*
X32648799Y-27730703D01*
X32517477Y-27918250D01*
X32420717Y-28125753D01*
X32420715Y-28125759D01*
X32389085Y-28243804D01*
X32361457Y-28346913D01*
X32341502Y-28575000D01*
X31458474Y-28575000D01*
X31438609Y-28322597D01*
X31379505Y-28076409D01*
X31282616Y-27842498D01*
X31150328Y-27626624D01*
X30985898Y-27434102D01*
X30793376Y-27269672D01*
X30577502Y-27137384D01*
X30533699Y-27119240D01*
X30343589Y-27040494D01*
X30175177Y-27000062D01*
X30097403Y-26981391D01*
X29845000Y-26961526D01*
X29592597Y-26981391D01*
X29346410Y-27040494D01*
X29112499Y-27137383D01*
X28896625Y-27269671D01*
X28704102Y-27434102D01*
X28539671Y-27626625D01*
X28407383Y-27842499D01*
X28310494Y-28076410D01*
X28270308Y-28243802D01*
X28251391Y-28322597D01*
X28231526Y-28575000D01*
X25488500Y-28575000D01*
X25488500Y-27041362D01*
X25482053Y-26981391D01*
X25481990Y-26980803D01*
X25481988Y-26980795D01*
X25430889Y-26843797D01*
X25430887Y-26843792D01*
X25343261Y-26726738D01*
X25267468Y-26670000D01*
X82587004Y-26670000D01*
X82606951Y-26898002D01*
X82666186Y-27119068D01*
X82666188Y-27119073D01*
X82762913Y-27326501D01*
X82812899Y-27397888D01*
X83500000Y-26710788D01*
X83500000Y-26722661D01*
X83527259Y-26824394D01*
X83579920Y-26915606D01*
X83654394Y-26990080D01*
X83745606Y-27042741D01*
X83847339Y-27070000D01*
X83859210Y-27070000D01*
X83172110Y-27757098D01*
X83172110Y-27757100D01*
X83243498Y-27807086D01*
X83450926Y-27903811D01*
X83450931Y-27903813D01*
X83671999Y-27963048D01*
X83671995Y-27963048D01*
X83900000Y-27982995D01*
X84128002Y-27963048D01*
X84349068Y-27903813D01*
X84349073Y-27903811D01*
X84556497Y-27807088D01*
X84627888Y-27757099D01*
X84627888Y-27757097D01*
X83940791Y-27070000D01*
X83952661Y-27070000D01*
X84054394Y-27042741D01*
X84145606Y-26990080D01*
X84220080Y-26915606D01*
X84272741Y-26824394D01*
X84300000Y-26722661D01*
X84300000Y-26710791D01*
X84987097Y-27397888D01*
X84987099Y-27397888D01*
X85037088Y-27326497D01*
X85133811Y-27119073D01*
X85133813Y-27119068D01*
X85193048Y-26898002D01*
X85212995Y-26670000D01*
X87586502Y-26670000D01*
X87606457Y-26898086D01*
X87665715Y-27119240D01*
X87665717Y-27119246D01*
X87762477Y-27326749D01*
X87837646Y-27434102D01*
X87893802Y-27514300D01*
X88055700Y-27676198D01*
X88243251Y-27807523D01*
X88450757Y-27904284D01*
X88671913Y-27963543D01*
X88900000Y-27983498D01*
X89128087Y-27963543D01*
X89349243Y-27904284D01*
X89556749Y-27807523D01*
X89744300Y-27676198D01*
X89906198Y-27514300D01*
X90037523Y-27326749D01*
X90134284Y-27119243D01*
X90193543Y-26898087D01*
X90213498Y-26670000D01*
X90193543Y-26441913D01*
X90134284Y-26220757D01*
X90037523Y-26013251D01*
X89906198Y-25825700D01*
X89744300Y-25663802D01*
X89628757Y-25582898D01*
X89556749Y-25532477D01*
X89349246Y-25435717D01*
X89349240Y-25435715D01*
X89255771Y-25410670D01*
X89128087Y-25376457D01*
X88900000Y-25356502D01*
X88671913Y-25376457D01*
X88450759Y-25435715D01*
X88450753Y-25435717D01*
X88243250Y-25532477D01*
X88055703Y-25663799D01*
X88055697Y-25663804D01*
X87893804Y-25825697D01*
X87893799Y-25825703D01*
X87762477Y-26013250D01*
X87665717Y-26220753D01*
X87665715Y-26220759D01*
X87606457Y-26441913D01*
X87586502Y-26670000D01*
X85212995Y-26670000D01*
X85193048Y-26441997D01*
X85133813Y-26220931D01*
X85133811Y-26220926D01*
X85037086Y-26013498D01*
X84987100Y-25942110D01*
X84987098Y-25942110D01*
X84300000Y-26629208D01*
X84300000Y-26617339D01*
X84272741Y-26515606D01*
X84220080Y-26424394D01*
X84145606Y-26349920D01*
X84054394Y-26297259D01*
X83952661Y-26270000D01*
X83940790Y-26270000D01*
X84627888Y-25582899D01*
X84627888Y-25582898D01*
X84556501Y-25532913D01*
X84349073Y-25436188D01*
X84349068Y-25436186D01*
X84128000Y-25376951D01*
X84128004Y-25376951D01*
X83900000Y-25357004D01*
X83671997Y-25376951D01*
X83450931Y-25436186D01*
X83450926Y-25436188D01*
X83243500Y-25532913D01*
X83172109Y-25582900D01*
X83859209Y-26270000D01*
X83847339Y-26270000D01*
X83745606Y-26297259D01*
X83654394Y-26349920D01*
X83579920Y-26424394D01*
X83527259Y-26515606D01*
X83500000Y-26617339D01*
X83500000Y-26629209D01*
X82812900Y-25942109D01*
X82762913Y-26013500D01*
X82666188Y-26220926D01*
X82666186Y-26220931D01*
X82606951Y-26441997D01*
X82587004Y-26670000D01*
X25267468Y-26670000D01*
X25226207Y-26639112D01*
X25226202Y-26639110D01*
X25089204Y-26588011D01*
X25089196Y-26588009D01*
X25028649Y-26581500D01*
X25028638Y-26581500D01*
X23231362Y-26581500D01*
X23231350Y-26581500D01*
X23170803Y-26588009D01*
X23170795Y-26588011D01*
X23033797Y-26639110D01*
X23033792Y-26639112D01*
X22916738Y-26726738D01*
X22829112Y-26843792D01*
X22829110Y-26843797D01*
X22778011Y-26980795D01*
X22778009Y-26980803D01*
X22771500Y-27041350D01*
X22771500Y-28838649D01*
X22778009Y-28899196D01*
X22778011Y-28899204D01*
X22829110Y-29036202D01*
X22829112Y-29036207D01*
X22916738Y-29153261D01*
X23033791Y-29240886D01*
X23033792Y-29240886D01*
X23033796Y-29240889D01*
X23148810Y-29283787D01*
X23205642Y-29326332D01*
X23230453Y-29392852D01*
X23215362Y-29462226D01*
X23197475Y-29487179D01*
X23054280Y-29642729D01*
X23054275Y-29642734D01*
X22931141Y-29831206D01*
X22840703Y-30037386D01*
X22840702Y-30037387D01*
X22785437Y-30255624D01*
X22785436Y-30255630D01*
X22785436Y-30255632D01*
X22766844Y-30480000D01*
X20330500Y-30480000D01*
X20330500Y-23616350D01*
X32046500Y-23616350D01*
X32046500Y-25913649D01*
X32053009Y-25974196D01*
X32053011Y-25974204D01*
X32104110Y-26111202D01*
X32104112Y-26111207D01*
X32191738Y-26228261D01*
X32308792Y-26315887D01*
X32308794Y-26315888D01*
X32308796Y-26315889D01*
X32367875Y-26337924D01*
X32445795Y-26366988D01*
X32445803Y-26366990D01*
X32506350Y-26373499D01*
X32506355Y-26373499D01*
X32506362Y-26373500D01*
X32506368Y-26373500D01*
X34803632Y-26373500D01*
X34803638Y-26373500D01*
X34803645Y-26373499D01*
X34803649Y-26373499D01*
X34864196Y-26366990D01*
X34864199Y-26366989D01*
X34864201Y-26366989D01*
X35001204Y-26315889D01*
X35008016Y-26310790D01*
X35118261Y-26228261D01*
X35205887Y-26111207D01*
X35205887Y-26111206D01*
X35205889Y-26111204D01*
X35256989Y-25974201D01*
X35263500Y-25913638D01*
X35263500Y-24511000D01*
X42222289Y-24511000D01*
X43326562Y-24511000D01*
X43302482Y-24552708D01*
X43265000Y-24692591D01*
X43265000Y-24837409D01*
X43302482Y-24977292D01*
X43326562Y-25019000D01*
X42222289Y-25019000D01*
X42280971Y-25263434D01*
X42377830Y-25497272D01*
X42510077Y-25713079D01*
X42674457Y-25905542D01*
X42866920Y-26069922D01*
X43082727Y-26202169D01*
X43316565Y-26299028D01*
X43561000Y-26357710D01*
X43561000Y-25253438D01*
X43602708Y-25277518D01*
X43742591Y-25315000D01*
X43887409Y-25315000D01*
X44027292Y-25277518D01*
X44069000Y-25253438D01*
X44069000Y-26357709D01*
X44313434Y-26299028D01*
X44547272Y-26202169D01*
X44763079Y-26069922D01*
X44955542Y-25905542D01*
X45119922Y-25713079D01*
X45252169Y-25497272D01*
X45349028Y-25263434D01*
X45407711Y-25019000D01*
X44303438Y-25019000D01*
X44327518Y-24977292D01*
X44365000Y-24837409D01*
X44365000Y-24692591D01*
X44327518Y-24552708D01*
X44303438Y-24511000D01*
X45407711Y-24511000D01*
X45349028Y-24266565D01*
X45252169Y-24032727D01*
X45119922Y-23816920D01*
X44955542Y-23624457D01*
X44946050Y-23616350D01*
X49191500Y-23616350D01*
X49191500Y-25913649D01*
X49198009Y-25974196D01*
X49198011Y-25974204D01*
X49249110Y-26111202D01*
X49249112Y-26111207D01*
X49336738Y-26228261D01*
X49453792Y-26315887D01*
X49453794Y-26315888D01*
X49453796Y-26315889D01*
X49512875Y-26337924D01*
X49590795Y-26366988D01*
X49590803Y-26366990D01*
X49651350Y-26373499D01*
X49651355Y-26373499D01*
X49651362Y-26373500D01*
X49651368Y-26373500D01*
X51948632Y-26373500D01*
X51948638Y-26373500D01*
X51948645Y-26373499D01*
X51948649Y-26373499D01*
X52009196Y-26366990D01*
X52009199Y-26366989D01*
X52009201Y-26366989D01*
X52146204Y-26315889D01*
X52153016Y-26310790D01*
X52263261Y-26228261D01*
X52350887Y-26111207D01*
X52350887Y-26111206D01*
X52350889Y-26111204D01*
X52401989Y-25974201D01*
X52408500Y-25913638D01*
X52408500Y-24765000D01*
X59346526Y-24765000D01*
X59366391Y-25017403D01*
X59385062Y-25095177D01*
X59425494Y-25263589D01*
X59472246Y-25376457D01*
X59522384Y-25497502D01*
X59654672Y-25713376D01*
X59819102Y-25905898D01*
X60011624Y-26070328D01*
X60227498Y-26202616D01*
X60461409Y-26299505D01*
X60707597Y-26358609D01*
X60960000Y-26378474D01*
X61212403Y-26358609D01*
X61458591Y-26299505D01*
X61692502Y-26202616D01*
X61908376Y-26070328D01*
X62100898Y-25905898D01*
X62265328Y-25713376D01*
X62397616Y-25497502D01*
X62494505Y-25263591D01*
X62553609Y-25017403D01*
X62573474Y-24765000D01*
X62553609Y-24512597D01*
X62494505Y-24266409D01*
X62397616Y-24032498D01*
X62265328Y-23816624D01*
X62100898Y-23624102D01*
X61908376Y-23459672D01*
X61692502Y-23327384D01*
X61630590Y-23301739D01*
X61458589Y-23230494D01*
X61290177Y-23190062D01*
X61212403Y-23171391D01*
X60960000Y-23151526D01*
X60707597Y-23171391D01*
X60461410Y-23230494D01*
X60227499Y-23327383D01*
X60011625Y-23459671D01*
X59819102Y-23624102D01*
X59654671Y-23816625D01*
X59522383Y-24032499D01*
X59425494Y-24266410D01*
X59366774Y-24511000D01*
X59366391Y-24512597D01*
X59346526Y-24765000D01*
X52408500Y-24765000D01*
X52408500Y-23616362D01*
X52408499Y-23616350D01*
X52401990Y-23555803D01*
X52401988Y-23555795D01*
X52350889Y-23418797D01*
X52350887Y-23418792D01*
X52263261Y-23301738D01*
X52146207Y-23214112D01*
X52146202Y-23214110D01*
X52009204Y-23163011D01*
X52009196Y-23163009D01*
X51948649Y-23156500D01*
X51948638Y-23156500D01*
X49651362Y-23156500D01*
X49651350Y-23156500D01*
X49590803Y-23163009D01*
X49590795Y-23163011D01*
X49453797Y-23214110D01*
X49453792Y-23214112D01*
X49336738Y-23301738D01*
X49249112Y-23418792D01*
X49249110Y-23418797D01*
X49198011Y-23555795D01*
X49198009Y-23555803D01*
X49191500Y-23616350D01*
X44946050Y-23616350D01*
X44763079Y-23460077D01*
X44547272Y-23327830D01*
X44313434Y-23230971D01*
X44069000Y-23172288D01*
X44069000Y-24276561D01*
X44027292Y-24252482D01*
X43887409Y-24215000D01*
X43742591Y-24215000D01*
X43602708Y-24252482D01*
X43561000Y-24276561D01*
X43561000Y-23172288D01*
X43316565Y-23230971D01*
X43082727Y-23327830D01*
X42866920Y-23460077D01*
X42674457Y-23624457D01*
X42510077Y-23816920D01*
X42377830Y-24032727D01*
X42280971Y-24266565D01*
X42222289Y-24511000D01*
X35263500Y-24511000D01*
X35263500Y-23616362D01*
X35263499Y-23616350D01*
X35256990Y-23555803D01*
X35256988Y-23555795D01*
X35205889Y-23418797D01*
X35205887Y-23418792D01*
X35118261Y-23301738D01*
X35001207Y-23214112D01*
X35001202Y-23214110D01*
X34864204Y-23163011D01*
X34864196Y-23163009D01*
X34803649Y-23156500D01*
X34803638Y-23156500D01*
X32506362Y-23156500D01*
X32506350Y-23156500D01*
X32445803Y-23163009D01*
X32445795Y-23163011D01*
X32308797Y-23214110D01*
X32308792Y-23214112D01*
X32191738Y-23301738D01*
X32104112Y-23418792D01*
X32104110Y-23418797D01*
X32053011Y-23555795D01*
X32053009Y-23555803D01*
X32046500Y-23616350D01*
X20330500Y-23616350D01*
X20330500Y-20456500D01*
X20350502Y-20388379D01*
X20404158Y-20341886D01*
X20456500Y-20330500D01*
X98923500Y-20330500D01*
X98991621Y-20350502D01*
G37*
%TD.AperFunction*%
%TD*%
M02*
