%TF.GenerationSoftware,KiCad,Pcbnew,8.0.6*%
%TF.CreationDate,2024-12-15T14:25:42+01:00*%
%TF.ProjectId,PCB1_Mainboard,50434231-5f4d-4616-996e-626f6172642e,1.0*%
%TF.SameCoordinates,Original*%
%TF.FileFunction,Legend,Top*%
%TF.FilePolarity,Positive*%
%FSLAX46Y46*%
G04 Gerber Fmt 4.6, Leading zero omitted, Abs format (unit mm)*
G04 Created by KiCad (PCBNEW 8.0.6) date 2024-12-15 14:25:42*
%MOMM*%
%LPD*%
G01*
G04 APERTURE LIST*
G04 Aperture macros list*
%AMRoundRect*
0 Rectangle with rounded corners*
0 $1 Rounding radius*
0 $2 $3 $4 $5 $6 $7 $8 $9 X,Y pos of 4 corners*
0 Add a 4 corners polygon primitive as box body*
4,1,4,$2,$3,$4,$5,$6,$7,$8,$9,$2,$3,0*
0 Add four circle primitives for the rounded corners*
1,1,$1+$1,$2,$3*
1,1,$1+$1,$4,$5*
1,1,$1+$1,$6,$7*
1,1,$1+$1,$8,$9*
0 Add four rect primitives between the rounded corners*
20,1,$1+$1,$2,$3,$4,$5,0*
20,1,$1+$1,$4,$5,$6,$7,0*
20,1,$1+$1,$6,$7,$8,$9,0*
20,1,$1+$1,$8,$9,$2,$3,0*%
G04 Aperture macros list end*
%ADD10C,0.150000*%
%ADD11C,0.120000*%
%ADD12C,0.000000*%
%ADD13C,1.600000*%
%ADD14O,1.600000X1.600000*%
%ADD15R,1.800000X1.800000*%
%ADD16C,1.800000*%
%ADD17RoundRect,0.250000X0.750000X-0.600000X0.750000X0.600000X-0.750000X0.600000X-0.750000X-0.600000X0*%
%ADD18O,2.000000X1.700000*%
%ADD19R,2.200000X2.200000*%
%ADD20O,2.200000X2.200000*%
%ADD21R,1.600000X1.600000*%
%ADD22R,1.500000X1.500000*%
%ADD23C,1.500000*%
%ADD24R,1.700000X1.700000*%
%ADD25O,1.700000X1.700000*%
%ADD26R,2.000000X2.000000*%
%ADD27C,2.000000*%
G04 APERTURE END LIST*
D10*
X93980000Y-29210000D02*
X96520000Y-29210000D01*
X96520000Y-52070000D01*
X93980000Y-52070000D01*
X93980000Y-29210000D01*
X27940000Y-22225000D02*
X67945000Y-22225000D01*
X67945000Y-40640000D01*
X27940000Y-40640000D01*
X27940000Y-22225000D01*
X22860000Y-27940000D02*
X22860000Y-26670000D01*
X93980000Y-27940000D02*
X93980000Y-26670000D01*
X93980000Y-26670000D02*
X95250000Y-26670000D01*
X67310000Y-22225000D02*
X91440000Y-22225000D01*
X22860000Y-26670000D02*
X24130000Y-26670000D01*
X27940000Y-55880000D02*
X91440000Y-55880000D01*
X27940000Y-40640000D02*
X27940000Y-55880000D01*
X91440000Y-22225000D02*
X91440000Y-55880000D01*
X22860000Y-29210000D02*
X25400000Y-29210000D01*
X25400000Y-39370000D01*
X22860000Y-39370000D01*
X22860000Y-29210000D01*
X50165000Y-40640000D02*
X50165000Y-55880000D01*
X58224819Y-52729635D02*
X57224819Y-52729635D01*
X57224819Y-52729635D02*
X57939104Y-52396302D01*
X57939104Y-52396302D02*
X57224819Y-52062969D01*
X57224819Y-52062969D02*
X58224819Y-52062969D01*
X57224819Y-51396302D02*
X57224819Y-51205826D01*
X57224819Y-51205826D02*
X57272438Y-51110588D01*
X57272438Y-51110588D02*
X57367676Y-51015350D01*
X57367676Y-51015350D02*
X57558152Y-50967731D01*
X57558152Y-50967731D02*
X57891485Y-50967731D01*
X57891485Y-50967731D02*
X58081961Y-51015350D01*
X58081961Y-51015350D02*
X58177200Y-51110588D01*
X58177200Y-51110588D02*
X58224819Y-51205826D01*
X58224819Y-51205826D02*
X58224819Y-51396302D01*
X58224819Y-51396302D02*
X58177200Y-51491540D01*
X58177200Y-51491540D02*
X58081961Y-51586778D01*
X58081961Y-51586778D02*
X57891485Y-51634397D01*
X57891485Y-51634397D02*
X57558152Y-51634397D01*
X57558152Y-51634397D02*
X57367676Y-51586778D01*
X57367676Y-51586778D02*
X57272438Y-51491540D01*
X57272438Y-51491540D02*
X57224819Y-51396302D01*
X58177200Y-50586778D02*
X58224819Y-50443921D01*
X58224819Y-50443921D02*
X58224819Y-50205826D01*
X58224819Y-50205826D02*
X58177200Y-50110588D01*
X58177200Y-50110588D02*
X58129580Y-50062969D01*
X58129580Y-50062969D02*
X58034342Y-50015350D01*
X58034342Y-50015350D02*
X57939104Y-50015350D01*
X57939104Y-50015350D02*
X57843866Y-50062969D01*
X57843866Y-50062969D02*
X57796247Y-50110588D01*
X57796247Y-50110588D02*
X57748628Y-50205826D01*
X57748628Y-50205826D02*
X57701009Y-50396302D01*
X57701009Y-50396302D02*
X57653390Y-50491540D01*
X57653390Y-50491540D02*
X57605771Y-50539159D01*
X57605771Y-50539159D02*
X57510533Y-50586778D01*
X57510533Y-50586778D02*
X57415295Y-50586778D01*
X57415295Y-50586778D02*
X57320057Y-50539159D01*
X57320057Y-50539159D02*
X57272438Y-50491540D01*
X57272438Y-50491540D02*
X57224819Y-50396302D01*
X57224819Y-50396302D02*
X57224819Y-50158207D01*
X57224819Y-50158207D02*
X57272438Y-50015350D01*
X58224819Y-49586778D02*
X57224819Y-49586778D01*
X54732438Y-51634398D02*
X54684819Y-51729636D01*
X54684819Y-51729636D02*
X54684819Y-51872493D01*
X54684819Y-51872493D02*
X54732438Y-52015350D01*
X54732438Y-52015350D02*
X54827676Y-52110588D01*
X54827676Y-52110588D02*
X54922914Y-52158207D01*
X54922914Y-52158207D02*
X55113390Y-52205826D01*
X55113390Y-52205826D02*
X55256247Y-52205826D01*
X55256247Y-52205826D02*
X55446723Y-52158207D01*
X55446723Y-52158207D02*
X55541961Y-52110588D01*
X55541961Y-52110588D02*
X55637200Y-52015350D01*
X55637200Y-52015350D02*
X55684819Y-51872493D01*
X55684819Y-51872493D02*
X55684819Y-51777255D01*
X55684819Y-51777255D02*
X55637200Y-51634398D01*
X55637200Y-51634398D02*
X55589580Y-51586779D01*
X55589580Y-51586779D02*
X55256247Y-51586779D01*
X55256247Y-51586779D02*
X55256247Y-51777255D01*
X55684819Y-51158207D02*
X54684819Y-51158207D01*
X54684819Y-51158207D02*
X55684819Y-50586779D01*
X55684819Y-50586779D02*
X54684819Y-50586779D01*
X55684819Y-50110588D02*
X54684819Y-50110588D01*
X54684819Y-50110588D02*
X54684819Y-49872493D01*
X54684819Y-49872493D02*
X54732438Y-49729636D01*
X54732438Y-49729636D02*
X54827676Y-49634398D01*
X54827676Y-49634398D02*
X54922914Y-49586779D01*
X54922914Y-49586779D02*
X55113390Y-49539160D01*
X55113390Y-49539160D02*
X55256247Y-49539160D01*
X55256247Y-49539160D02*
X55446723Y-49586779D01*
X55446723Y-49586779D02*
X55541961Y-49634398D01*
X55541961Y-49634398D02*
X55637200Y-49729636D01*
X55637200Y-49729636D02*
X55684819Y-49872493D01*
X55684819Y-49872493D02*
X55684819Y-50110588D01*
X59824819Y-52110588D02*
X60824819Y-51777255D01*
X60824819Y-51777255D02*
X59824819Y-51443922D01*
X60729580Y-50539160D02*
X60777200Y-50586779D01*
X60777200Y-50586779D02*
X60824819Y-50729636D01*
X60824819Y-50729636D02*
X60824819Y-50824874D01*
X60824819Y-50824874D02*
X60777200Y-50967731D01*
X60777200Y-50967731D02*
X60681961Y-51062969D01*
X60681961Y-51062969D02*
X60586723Y-51110588D01*
X60586723Y-51110588D02*
X60396247Y-51158207D01*
X60396247Y-51158207D02*
X60253390Y-51158207D01*
X60253390Y-51158207D02*
X60062914Y-51110588D01*
X60062914Y-51110588D02*
X59967676Y-51062969D01*
X59967676Y-51062969D02*
X59872438Y-50967731D01*
X59872438Y-50967731D02*
X59824819Y-50824874D01*
X59824819Y-50824874D02*
X59824819Y-50729636D01*
X59824819Y-50729636D02*
X59872438Y-50586779D01*
X59872438Y-50586779D02*
X59920057Y-50539160D01*
X60729580Y-49539160D02*
X60777200Y-49586779D01*
X60777200Y-49586779D02*
X60824819Y-49729636D01*
X60824819Y-49729636D02*
X60824819Y-49824874D01*
X60824819Y-49824874D02*
X60777200Y-49967731D01*
X60777200Y-49967731D02*
X60681961Y-50062969D01*
X60681961Y-50062969D02*
X60586723Y-50110588D01*
X60586723Y-50110588D02*
X60396247Y-50158207D01*
X60396247Y-50158207D02*
X60253390Y-50158207D01*
X60253390Y-50158207D02*
X60062914Y-50110588D01*
X60062914Y-50110588D02*
X59967676Y-50062969D01*
X59967676Y-50062969D02*
X59872438Y-49967731D01*
X59872438Y-49967731D02*
X59824819Y-49824874D01*
X59824819Y-49824874D02*
X59824819Y-49729636D01*
X59824819Y-49729636D02*
X59872438Y-49586779D01*
X59872438Y-49586779D02*
X59920057Y-49539160D01*
X78178819Y-28180969D02*
X77178819Y-28180969D01*
X77178819Y-28180969D02*
X77178819Y-27942874D01*
X77178819Y-27942874D02*
X77226438Y-27800017D01*
X77226438Y-27800017D02*
X77321676Y-27704779D01*
X77321676Y-27704779D02*
X77416914Y-27657160D01*
X77416914Y-27657160D02*
X77607390Y-27609541D01*
X77607390Y-27609541D02*
X77750247Y-27609541D01*
X77750247Y-27609541D02*
X77940723Y-27657160D01*
X77940723Y-27657160D02*
X78035961Y-27704779D01*
X78035961Y-27704779D02*
X78131200Y-27800017D01*
X78131200Y-27800017D02*
X78178819Y-27942874D01*
X78178819Y-27942874D02*
X78178819Y-28180969D01*
X77655009Y-27180969D02*
X77655009Y-26847636D01*
X78178819Y-26704779D02*
X78178819Y-27180969D01*
X78178819Y-27180969D02*
X77178819Y-27180969D01*
X77178819Y-27180969D02*
X77178819Y-26704779D01*
X77655009Y-25942874D02*
X77702628Y-25800017D01*
X77702628Y-25800017D02*
X77750247Y-25752398D01*
X77750247Y-25752398D02*
X77845485Y-25704779D01*
X77845485Y-25704779D02*
X77988342Y-25704779D01*
X77988342Y-25704779D02*
X78083580Y-25752398D01*
X78083580Y-25752398D02*
X78131200Y-25800017D01*
X78131200Y-25800017D02*
X78178819Y-25895255D01*
X78178819Y-25895255D02*
X78178819Y-26276207D01*
X78178819Y-26276207D02*
X77178819Y-26276207D01*
X77178819Y-26276207D02*
X77178819Y-25942874D01*
X77178819Y-25942874D02*
X77226438Y-25847636D01*
X77226438Y-25847636D02*
X77274057Y-25800017D01*
X77274057Y-25800017D02*
X77369295Y-25752398D01*
X77369295Y-25752398D02*
X77464533Y-25752398D01*
X77464533Y-25752398D02*
X77559771Y-25800017D01*
X77559771Y-25800017D02*
X77607390Y-25847636D01*
X77607390Y-25847636D02*
X77655009Y-25942874D01*
X77655009Y-25942874D02*
X77655009Y-26276207D01*
X77178819Y-25276207D02*
X77988342Y-25276207D01*
X77988342Y-25276207D02*
X78083580Y-25228588D01*
X78083580Y-25228588D02*
X78131200Y-25180969D01*
X78131200Y-25180969D02*
X78178819Y-25085731D01*
X78178819Y-25085731D02*
X78178819Y-24895255D01*
X78178819Y-24895255D02*
X78131200Y-24800017D01*
X78131200Y-24800017D02*
X78083580Y-24752398D01*
X78083580Y-24752398D02*
X77988342Y-24704779D01*
X77988342Y-24704779D02*
X77178819Y-24704779D01*
X77226438Y-23704779D02*
X77178819Y-23800017D01*
X77178819Y-23800017D02*
X77178819Y-23942874D01*
X77178819Y-23942874D02*
X77226438Y-24085731D01*
X77226438Y-24085731D02*
X77321676Y-24180969D01*
X77321676Y-24180969D02*
X77416914Y-24228588D01*
X77416914Y-24228588D02*
X77607390Y-24276207D01*
X77607390Y-24276207D02*
X77750247Y-24276207D01*
X77750247Y-24276207D02*
X77940723Y-24228588D01*
X77940723Y-24228588D02*
X78035961Y-24180969D01*
X78035961Y-24180969D02*
X78131200Y-24085731D01*
X78131200Y-24085731D02*
X78178819Y-23942874D01*
X78178819Y-23942874D02*
X78178819Y-23847636D01*
X78178819Y-23847636D02*
X78131200Y-23704779D01*
X78131200Y-23704779D02*
X78083580Y-23657160D01*
X78083580Y-23657160D02*
X77750247Y-23657160D01*
X77750247Y-23657160D02*
X77750247Y-23847636D01*
X74432438Y-28701904D02*
X74384819Y-28797142D01*
X74384819Y-28797142D02*
X74384819Y-28939999D01*
X74384819Y-28939999D02*
X74432438Y-29082856D01*
X74432438Y-29082856D02*
X74527676Y-29178094D01*
X74527676Y-29178094D02*
X74622914Y-29225713D01*
X74622914Y-29225713D02*
X74813390Y-29273332D01*
X74813390Y-29273332D02*
X74956247Y-29273332D01*
X74956247Y-29273332D02*
X75146723Y-29225713D01*
X75146723Y-29225713D02*
X75241961Y-29178094D01*
X75241961Y-29178094D02*
X75337200Y-29082856D01*
X75337200Y-29082856D02*
X75384819Y-28939999D01*
X75384819Y-28939999D02*
X75384819Y-28844761D01*
X75384819Y-28844761D02*
X75337200Y-28701904D01*
X75337200Y-28701904D02*
X75289580Y-28654285D01*
X75289580Y-28654285D02*
X74956247Y-28654285D01*
X74956247Y-28654285D02*
X74956247Y-28844761D01*
X75384819Y-28225713D02*
X74384819Y-28225713D01*
X74384819Y-28225713D02*
X75384819Y-27654285D01*
X75384819Y-27654285D02*
X74384819Y-27654285D01*
X75384819Y-27178094D02*
X74384819Y-27178094D01*
X74384819Y-27178094D02*
X74384819Y-26939999D01*
X74384819Y-26939999D02*
X74432438Y-26797142D01*
X74432438Y-26797142D02*
X74527676Y-26701904D01*
X74527676Y-26701904D02*
X74622914Y-26654285D01*
X74622914Y-26654285D02*
X74813390Y-26606666D01*
X74813390Y-26606666D02*
X74956247Y-26606666D01*
X74956247Y-26606666D02*
X75146723Y-26654285D01*
X75146723Y-26654285D02*
X75241961Y-26701904D01*
X75241961Y-26701904D02*
X75337200Y-26797142D01*
X75337200Y-26797142D02*
X75384819Y-26939999D01*
X75384819Y-26939999D02*
X75384819Y-27178094D01*
X70304819Y-29178094D02*
X69304819Y-29178094D01*
X69304819Y-29178094D02*
X69304819Y-28797142D01*
X69304819Y-28797142D02*
X69352438Y-28701904D01*
X69352438Y-28701904D02*
X69400057Y-28654285D01*
X69400057Y-28654285D02*
X69495295Y-28606666D01*
X69495295Y-28606666D02*
X69638152Y-28606666D01*
X69638152Y-28606666D02*
X69733390Y-28654285D01*
X69733390Y-28654285D02*
X69781009Y-28701904D01*
X69781009Y-28701904D02*
X69828628Y-28797142D01*
X69828628Y-28797142D02*
X69828628Y-29178094D01*
X70304819Y-28178094D02*
X69304819Y-28178094D01*
X69304819Y-28178094D02*
X69304819Y-27939999D01*
X69304819Y-27939999D02*
X69352438Y-27797142D01*
X69352438Y-27797142D02*
X69447676Y-27701904D01*
X69447676Y-27701904D02*
X69542914Y-27654285D01*
X69542914Y-27654285D02*
X69733390Y-27606666D01*
X69733390Y-27606666D02*
X69876247Y-27606666D01*
X69876247Y-27606666D02*
X70066723Y-27654285D01*
X70066723Y-27654285D02*
X70161961Y-27701904D01*
X70161961Y-27701904D02*
X70257200Y-27797142D01*
X70257200Y-27797142D02*
X70304819Y-27939999D01*
X70304819Y-27939999D02*
X70304819Y-28178094D01*
X69304819Y-26701904D02*
X69304819Y-27178094D01*
X69304819Y-27178094D02*
X69781009Y-27225713D01*
X69781009Y-27225713D02*
X69733390Y-27178094D01*
X69733390Y-27178094D02*
X69685771Y-27082856D01*
X69685771Y-27082856D02*
X69685771Y-26844761D01*
X69685771Y-26844761D02*
X69733390Y-26749523D01*
X69733390Y-26749523D02*
X69781009Y-26701904D01*
X69781009Y-26701904D02*
X69876247Y-26654285D01*
X69876247Y-26654285D02*
X70114342Y-26654285D01*
X70114342Y-26654285D02*
X70209580Y-26701904D01*
X70209580Y-26701904D02*
X70257200Y-26749523D01*
X70257200Y-26749523D02*
X70304819Y-26844761D01*
X70304819Y-26844761D02*
X70304819Y-27082856D01*
X70304819Y-27082856D02*
X70257200Y-27178094D01*
X70257200Y-27178094D02*
X70209580Y-27225713D01*
X72844819Y-29178094D02*
X71844819Y-29178094D01*
X71844819Y-29178094D02*
X71844819Y-28797142D01*
X71844819Y-28797142D02*
X71892438Y-28701904D01*
X71892438Y-28701904D02*
X71940057Y-28654285D01*
X71940057Y-28654285D02*
X72035295Y-28606666D01*
X72035295Y-28606666D02*
X72178152Y-28606666D01*
X72178152Y-28606666D02*
X72273390Y-28654285D01*
X72273390Y-28654285D02*
X72321009Y-28701904D01*
X72321009Y-28701904D02*
X72368628Y-28797142D01*
X72368628Y-28797142D02*
X72368628Y-29178094D01*
X72844819Y-28178094D02*
X71844819Y-28178094D01*
X71844819Y-28178094D02*
X71844819Y-27939999D01*
X71844819Y-27939999D02*
X71892438Y-27797142D01*
X71892438Y-27797142D02*
X71987676Y-27701904D01*
X71987676Y-27701904D02*
X72082914Y-27654285D01*
X72082914Y-27654285D02*
X72273390Y-27606666D01*
X72273390Y-27606666D02*
X72416247Y-27606666D01*
X72416247Y-27606666D02*
X72606723Y-27654285D01*
X72606723Y-27654285D02*
X72701961Y-27701904D01*
X72701961Y-27701904D02*
X72797200Y-27797142D01*
X72797200Y-27797142D02*
X72844819Y-27939999D01*
X72844819Y-27939999D02*
X72844819Y-28178094D01*
X71844819Y-26749523D02*
X71844819Y-26939999D01*
X71844819Y-26939999D02*
X71892438Y-27035237D01*
X71892438Y-27035237D02*
X71940057Y-27082856D01*
X71940057Y-27082856D02*
X72082914Y-27178094D01*
X72082914Y-27178094D02*
X72273390Y-27225713D01*
X72273390Y-27225713D02*
X72654342Y-27225713D01*
X72654342Y-27225713D02*
X72749580Y-27178094D01*
X72749580Y-27178094D02*
X72797200Y-27130475D01*
X72797200Y-27130475D02*
X72844819Y-27035237D01*
X72844819Y-27035237D02*
X72844819Y-26844761D01*
X72844819Y-26844761D02*
X72797200Y-26749523D01*
X72797200Y-26749523D02*
X72749580Y-26701904D01*
X72749580Y-26701904D02*
X72654342Y-26654285D01*
X72654342Y-26654285D02*
X72416247Y-26654285D01*
X72416247Y-26654285D02*
X72321009Y-26701904D01*
X72321009Y-26701904D02*
X72273390Y-26749523D01*
X72273390Y-26749523D02*
X72225771Y-26844761D01*
X72225771Y-26844761D02*
X72225771Y-27035237D01*
X72225771Y-27035237D02*
X72273390Y-27130475D01*
X72273390Y-27130475D02*
X72321009Y-27178094D01*
X72321009Y-27178094D02*
X72416247Y-27225713D01*
X94789666Y-24854819D02*
X94789666Y-25569104D01*
X94789666Y-25569104D02*
X94742047Y-25711961D01*
X94742047Y-25711961D02*
X94646809Y-25807200D01*
X94646809Y-25807200D02*
X94503952Y-25854819D01*
X94503952Y-25854819D02*
X94408714Y-25854819D01*
X95694428Y-25188152D02*
X95694428Y-25854819D01*
X95456333Y-24807200D02*
X95218238Y-25521485D01*
X95218238Y-25521485D02*
X95837285Y-25521485D01*
X23796666Y-40094819D02*
X23796666Y-40809104D01*
X23796666Y-40809104D02*
X23749047Y-40951961D01*
X23749047Y-40951961D02*
X23653809Y-41047200D01*
X23653809Y-41047200D02*
X23510952Y-41094819D01*
X23510952Y-41094819D02*
X23415714Y-41094819D01*
X24749047Y-40094819D02*
X24272857Y-40094819D01*
X24272857Y-40094819D02*
X24225238Y-40571009D01*
X24225238Y-40571009D02*
X24272857Y-40523390D01*
X24272857Y-40523390D02*
X24368095Y-40475771D01*
X24368095Y-40475771D02*
X24606190Y-40475771D01*
X24606190Y-40475771D02*
X24701428Y-40523390D01*
X24701428Y-40523390D02*
X24749047Y-40571009D01*
X24749047Y-40571009D02*
X24796666Y-40666247D01*
X24796666Y-40666247D02*
X24796666Y-40904342D01*
X24796666Y-40904342D02*
X24749047Y-40999580D01*
X24749047Y-40999580D02*
X24701428Y-41047200D01*
X24701428Y-41047200D02*
X24606190Y-41094819D01*
X24606190Y-41094819D02*
X24368095Y-41094819D01*
X24368095Y-41094819D02*
X24272857Y-41047200D01*
X24272857Y-41047200D02*
X24225238Y-40999580D01*
X24301554Y-44904819D02*
X24301554Y-43904819D01*
X24301554Y-43904819D02*
X24682506Y-43904819D01*
X24682506Y-43904819D02*
X24777744Y-43952438D01*
X24777744Y-43952438D02*
X24825363Y-44000057D01*
X24825363Y-44000057D02*
X24872982Y-44095295D01*
X24872982Y-44095295D02*
X24872982Y-44238152D01*
X24872982Y-44238152D02*
X24825363Y-44333390D01*
X24825363Y-44333390D02*
X24777744Y-44381009D01*
X24777744Y-44381009D02*
X24682506Y-44428628D01*
X24682506Y-44428628D02*
X24301554Y-44428628D01*
X25206316Y-43904819D02*
X25444411Y-44904819D01*
X25444411Y-44904819D02*
X25634887Y-44190533D01*
X25634887Y-44190533D02*
X25825363Y-44904819D01*
X25825363Y-44904819D02*
X26063459Y-43904819D01*
X27015839Y-44904819D02*
X26682506Y-44428628D01*
X26444411Y-44904819D02*
X26444411Y-43904819D01*
X26444411Y-43904819D02*
X26825363Y-43904819D01*
X26825363Y-43904819D02*
X26920601Y-43952438D01*
X26920601Y-43952438D02*
X26968220Y-44000057D01*
X26968220Y-44000057D02*
X27015839Y-44095295D01*
X27015839Y-44095295D02*
X27015839Y-44238152D01*
X27015839Y-44238152D02*
X26968220Y-44333390D01*
X26968220Y-44333390D02*
X26920601Y-44381009D01*
X26920601Y-44381009D02*
X26825363Y-44428628D01*
X26825363Y-44428628D02*
X26444411Y-44428628D01*
X52778819Y-55035220D02*
X51778819Y-55035220D01*
X52731200Y-54606649D02*
X52778819Y-54463792D01*
X52778819Y-54463792D02*
X52778819Y-54225697D01*
X52778819Y-54225697D02*
X52731200Y-54130459D01*
X52731200Y-54130459D02*
X52683580Y-54082840D01*
X52683580Y-54082840D02*
X52588342Y-54035221D01*
X52588342Y-54035221D02*
X52493104Y-54035221D01*
X52493104Y-54035221D02*
X52397866Y-54082840D01*
X52397866Y-54082840D02*
X52350247Y-54130459D01*
X52350247Y-54130459D02*
X52302628Y-54225697D01*
X52302628Y-54225697D02*
X52255009Y-54416173D01*
X52255009Y-54416173D02*
X52207390Y-54511411D01*
X52207390Y-54511411D02*
X52159771Y-54559030D01*
X52159771Y-54559030D02*
X52064533Y-54606649D01*
X52064533Y-54606649D02*
X51969295Y-54606649D01*
X51969295Y-54606649D02*
X51874057Y-54559030D01*
X51874057Y-54559030D02*
X51826438Y-54511411D01*
X51826438Y-54511411D02*
X51778819Y-54416173D01*
X51778819Y-54416173D02*
X51778819Y-54178078D01*
X51778819Y-54178078D02*
X51826438Y-54035221D01*
X52778819Y-53606649D02*
X51778819Y-53606649D01*
X51778819Y-53606649D02*
X51778819Y-53225697D01*
X51778819Y-53225697D02*
X51826438Y-53130459D01*
X51826438Y-53130459D02*
X51874057Y-53082840D01*
X51874057Y-53082840D02*
X51969295Y-53035221D01*
X51969295Y-53035221D02*
X52112152Y-53035221D01*
X52112152Y-53035221D02*
X52207390Y-53082840D01*
X52207390Y-53082840D02*
X52255009Y-53130459D01*
X52255009Y-53130459D02*
X52302628Y-53225697D01*
X52302628Y-53225697D02*
X52302628Y-53606649D01*
X51731200Y-51892364D02*
X53016914Y-52749506D01*
X52778819Y-51130459D02*
X51778819Y-51130459D01*
X52731200Y-51130459D02*
X52778819Y-51225697D01*
X52778819Y-51225697D02*
X52778819Y-51416173D01*
X52778819Y-51416173D02*
X52731200Y-51511411D01*
X52731200Y-51511411D02*
X52683580Y-51559030D01*
X52683580Y-51559030D02*
X52588342Y-51606649D01*
X52588342Y-51606649D02*
X52302628Y-51606649D01*
X52302628Y-51606649D02*
X52207390Y-51559030D01*
X52207390Y-51559030D02*
X52159771Y-51511411D01*
X52159771Y-51511411D02*
X52112152Y-51416173D01*
X52112152Y-51416173D02*
X52112152Y-51225697D01*
X52112152Y-51225697D02*
X52159771Y-51130459D01*
X51778819Y-50749506D02*
X52778819Y-50511411D01*
X52778819Y-50511411D02*
X52064533Y-50320935D01*
X52064533Y-50320935D02*
X52778819Y-50130459D01*
X52778819Y-50130459D02*
X51778819Y-49892364D01*
X24920601Y-54112438D02*
X24825363Y-54064819D01*
X24825363Y-54064819D02*
X24682506Y-54064819D01*
X24682506Y-54064819D02*
X24539649Y-54112438D01*
X24539649Y-54112438D02*
X24444411Y-54207676D01*
X24444411Y-54207676D02*
X24396792Y-54302914D01*
X24396792Y-54302914D02*
X24349173Y-54493390D01*
X24349173Y-54493390D02*
X24349173Y-54636247D01*
X24349173Y-54636247D02*
X24396792Y-54826723D01*
X24396792Y-54826723D02*
X24444411Y-54921961D01*
X24444411Y-54921961D02*
X24539649Y-55017200D01*
X24539649Y-55017200D02*
X24682506Y-55064819D01*
X24682506Y-55064819D02*
X24777744Y-55064819D01*
X24777744Y-55064819D02*
X24920601Y-55017200D01*
X24920601Y-55017200D02*
X24968220Y-54969580D01*
X24968220Y-54969580D02*
X24968220Y-54636247D01*
X24968220Y-54636247D02*
X24777744Y-54636247D01*
X25396792Y-55064819D02*
X25396792Y-54064819D01*
X25396792Y-54064819D02*
X25968220Y-55064819D01*
X25968220Y-55064819D02*
X25968220Y-54064819D01*
X26444411Y-55064819D02*
X26444411Y-54064819D01*
X26444411Y-54064819D02*
X26682506Y-54064819D01*
X26682506Y-54064819D02*
X26825363Y-54112438D01*
X26825363Y-54112438D02*
X26920601Y-54207676D01*
X26920601Y-54207676D02*
X26968220Y-54302914D01*
X26968220Y-54302914D02*
X27015839Y-54493390D01*
X27015839Y-54493390D02*
X27015839Y-54636247D01*
X27015839Y-54636247D02*
X26968220Y-54826723D01*
X26968220Y-54826723D02*
X26920601Y-54921961D01*
X26920601Y-54921961D02*
X26825363Y-55017200D01*
X26825363Y-55017200D02*
X26682506Y-55064819D01*
X26682506Y-55064819D02*
X26444411Y-55064819D01*
X76019819Y-48426666D02*
X75543628Y-48759999D01*
X76019819Y-48998094D02*
X75019819Y-48998094D01*
X75019819Y-48998094D02*
X75019819Y-48617142D01*
X75019819Y-48617142D02*
X75067438Y-48521904D01*
X75067438Y-48521904D02*
X75115057Y-48474285D01*
X75115057Y-48474285D02*
X75210295Y-48426666D01*
X75210295Y-48426666D02*
X75353152Y-48426666D01*
X75353152Y-48426666D02*
X75448390Y-48474285D01*
X75448390Y-48474285D02*
X75496009Y-48521904D01*
X75496009Y-48521904D02*
X75543628Y-48617142D01*
X75543628Y-48617142D02*
X75543628Y-48998094D01*
X75019819Y-48093332D02*
X75019819Y-47426666D01*
X75019819Y-47426666D02*
X76019819Y-47855237D01*
X62761905Y-40078819D02*
X62761905Y-39078819D01*
X62761905Y-39078819D02*
X63000000Y-39078819D01*
X63000000Y-39078819D02*
X63142857Y-39126438D01*
X63142857Y-39126438D02*
X63238095Y-39221676D01*
X63238095Y-39221676D02*
X63285714Y-39316914D01*
X63285714Y-39316914D02*
X63333333Y-39507390D01*
X63333333Y-39507390D02*
X63333333Y-39650247D01*
X63333333Y-39650247D02*
X63285714Y-39840723D01*
X63285714Y-39840723D02*
X63238095Y-39935961D01*
X63238095Y-39935961D02*
X63142857Y-40031200D01*
X63142857Y-40031200D02*
X63000000Y-40078819D01*
X63000000Y-40078819D02*
X62761905Y-40078819D01*
X64190476Y-39412152D02*
X64190476Y-40078819D01*
X63952381Y-39031200D02*
X63714286Y-39745485D01*
X63714286Y-39745485D02*
X64333333Y-39745485D01*
X21891666Y-54104819D02*
X21891666Y-54819104D01*
X21891666Y-54819104D02*
X21844047Y-54961961D01*
X21844047Y-54961961D02*
X21748809Y-55057200D01*
X21748809Y-55057200D02*
X21605952Y-55104819D01*
X21605952Y-55104819D02*
X21510714Y-55104819D01*
X22891666Y-55104819D02*
X22320238Y-55104819D01*
X22605952Y-55104819D02*
X22605952Y-54104819D01*
X22605952Y-54104819D02*
X22510714Y-54247676D01*
X22510714Y-54247676D02*
X22415476Y-54342914D01*
X22415476Y-54342914D02*
X22320238Y-54390533D01*
X30299819Y-34393094D02*
X29299819Y-34393094D01*
X29299819Y-34393094D02*
X29299819Y-34154999D01*
X29299819Y-34154999D02*
X29347438Y-34012142D01*
X29347438Y-34012142D02*
X29442676Y-33916904D01*
X29442676Y-33916904D02*
X29537914Y-33869285D01*
X29537914Y-33869285D02*
X29728390Y-33821666D01*
X29728390Y-33821666D02*
X29871247Y-33821666D01*
X29871247Y-33821666D02*
X30061723Y-33869285D01*
X30061723Y-33869285D02*
X30156961Y-33916904D01*
X30156961Y-33916904D02*
X30252200Y-34012142D01*
X30252200Y-34012142D02*
X30299819Y-34154999D01*
X30299819Y-34154999D02*
X30299819Y-34393094D01*
X30299819Y-32869285D02*
X30299819Y-33440713D01*
X30299819Y-33154999D02*
X29299819Y-33154999D01*
X29299819Y-33154999D02*
X29442676Y-33250237D01*
X29442676Y-33250237D02*
X29537914Y-33345475D01*
X29537914Y-33345475D02*
X29585533Y-33440713D01*
X78128905Y-41602819D02*
X78128905Y-40602819D01*
X78128905Y-40602819D02*
X78367000Y-40602819D01*
X78367000Y-40602819D02*
X78509857Y-40650438D01*
X78509857Y-40650438D02*
X78605095Y-40745676D01*
X78605095Y-40745676D02*
X78652714Y-40840914D01*
X78652714Y-40840914D02*
X78700333Y-41031390D01*
X78700333Y-41031390D02*
X78700333Y-41174247D01*
X78700333Y-41174247D02*
X78652714Y-41364723D01*
X78652714Y-41364723D02*
X78605095Y-41459961D01*
X78605095Y-41459961D02*
X78509857Y-41555200D01*
X78509857Y-41555200D02*
X78367000Y-41602819D01*
X78367000Y-41602819D02*
X78128905Y-41602819D01*
X79271762Y-41031390D02*
X79176524Y-40983771D01*
X79176524Y-40983771D02*
X79128905Y-40936152D01*
X79128905Y-40936152D02*
X79081286Y-40840914D01*
X79081286Y-40840914D02*
X79081286Y-40793295D01*
X79081286Y-40793295D02*
X79128905Y-40698057D01*
X79128905Y-40698057D02*
X79176524Y-40650438D01*
X79176524Y-40650438D02*
X79271762Y-40602819D01*
X79271762Y-40602819D02*
X79462238Y-40602819D01*
X79462238Y-40602819D02*
X79557476Y-40650438D01*
X79557476Y-40650438D02*
X79605095Y-40698057D01*
X79605095Y-40698057D02*
X79652714Y-40793295D01*
X79652714Y-40793295D02*
X79652714Y-40840914D01*
X79652714Y-40840914D02*
X79605095Y-40936152D01*
X79605095Y-40936152D02*
X79557476Y-40983771D01*
X79557476Y-40983771D02*
X79462238Y-41031390D01*
X79462238Y-41031390D02*
X79271762Y-41031390D01*
X79271762Y-41031390D02*
X79176524Y-41079009D01*
X79176524Y-41079009D02*
X79128905Y-41126628D01*
X79128905Y-41126628D02*
X79081286Y-41221866D01*
X79081286Y-41221866D02*
X79081286Y-41412342D01*
X79081286Y-41412342D02*
X79128905Y-41507580D01*
X79128905Y-41507580D02*
X79176524Y-41555200D01*
X79176524Y-41555200D02*
X79271762Y-41602819D01*
X79271762Y-41602819D02*
X79462238Y-41602819D01*
X79462238Y-41602819D02*
X79557476Y-41555200D01*
X79557476Y-41555200D02*
X79605095Y-41507580D01*
X79605095Y-41507580D02*
X79652714Y-41412342D01*
X79652714Y-41412342D02*
X79652714Y-41221866D01*
X79652714Y-41221866D02*
X79605095Y-41126628D01*
X79605095Y-41126628D02*
X79557476Y-41079009D01*
X79557476Y-41079009D02*
X79462238Y-41031390D01*
X86233333Y-27029580D02*
X86185714Y-27077200D01*
X86185714Y-27077200D02*
X86042857Y-27124819D01*
X86042857Y-27124819D02*
X85947619Y-27124819D01*
X85947619Y-27124819D02*
X85804762Y-27077200D01*
X85804762Y-27077200D02*
X85709524Y-26981961D01*
X85709524Y-26981961D02*
X85661905Y-26886723D01*
X85661905Y-26886723D02*
X85614286Y-26696247D01*
X85614286Y-26696247D02*
X85614286Y-26553390D01*
X85614286Y-26553390D02*
X85661905Y-26362914D01*
X85661905Y-26362914D02*
X85709524Y-26267676D01*
X85709524Y-26267676D02*
X85804762Y-26172438D01*
X85804762Y-26172438D02*
X85947619Y-26124819D01*
X85947619Y-26124819D02*
X86042857Y-26124819D01*
X86042857Y-26124819D02*
X86185714Y-26172438D01*
X86185714Y-26172438D02*
X86233333Y-26220057D01*
X87090476Y-26124819D02*
X86900000Y-26124819D01*
X86900000Y-26124819D02*
X86804762Y-26172438D01*
X86804762Y-26172438D02*
X86757143Y-26220057D01*
X86757143Y-26220057D02*
X86661905Y-26362914D01*
X86661905Y-26362914D02*
X86614286Y-26553390D01*
X86614286Y-26553390D02*
X86614286Y-26934342D01*
X86614286Y-26934342D02*
X86661905Y-27029580D01*
X86661905Y-27029580D02*
X86709524Y-27077200D01*
X86709524Y-27077200D02*
X86804762Y-27124819D01*
X86804762Y-27124819D02*
X86995238Y-27124819D01*
X86995238Y-27124819D02*
X87090476Y-27077200D01*
X87090476Y-27077200D02*
X87138095Y-27029580D01*
X87138095Y-27029580D02*
X87185714Y-26934342D01*
X87185714Y-26934342D02*
X87185714Y-26696247D01*
X87185714Y-26696247D02*
X87138095Y-26601009D01*
X87138095Y-26601009D02*
X87090476Y-26553390D01*
X87090476Y-26553390D02*
X86995238Y-26505771D01*
X86995238Y-26505771D02*
X86804762Y-26505771D01*
X86804762Y-26505771D02*
X86709524Y-26553390D01*
X86709524Y-26553390D02*
X86661905Y-26601009D01*
X86661905Y-26601009D02*
X86614286Y-26696247D01*
X66277580Y-30519666D02*
X66325200Y-30567285D01*
X66325200Y-30567285D02*
X66372819Y-30710142D01*
X66372819Y-30710142D02*
X66372819Y-30805380D01*
X66372819Y-30805380D02*
X66325200Y-30948237D01*
X66325200Y-30948237D02*
X66229961Y-31043475D01*
X66229961Y-31043475D02*
X66134723Y-31091094D01*
X66134723Y-31091094D02*
X65944247Y-31138713D01*
X65944247Y-31138713D02*
X65801390Y-31138713D01*
X65801390Y-31138713D02*
X65610914Y-31091094D01*
X65610914Y-31091094D02*
X65515676Y-31043475D01*
X65515676Y-31043475D02*
X65420438Y-30948237D01*
X65420438Y-30948237D02*
X65372819Y-30805380D01*
X65372819Y-30805380D02*
X65372819Y-30710142D01*
X65372819Y-30710142D02*
X65420438Y-30567285D01*
X65420438Y-30567285D02*
X65468057Y-30519666D01*
X65706152Y-29662523D02*
X66372819Y-29662523D01*
X65325200Y-29900618D02*
X66039485Y-30138713D01*
X66039485Y-30138713D02*
X66039485Y-29519666D01*
X65224819Y-48426666D02*
X64748628Y-48759999D01*
X65224819Y-48998094D02*
X64224819Y-48998094D01*
X64224819Y-48998094D02*
X64224819Y-48617142D01*
X64224819Y-48617142D02*
X64272438Y-48521904D01*
X64272438Y-48521904D02*
X64320057Y-48474285D01*
X64320057Y-48474285D02*
X64415295Y-48426666D01*
X64415295Y-48426666D02*
X64558152Y-48426666D01*
X64558152Y-48426666D02*
X64653390Y-48474285D01*
X64653390Y-48474285D02*
X64701009Y-48521904D01*
X64701009Y-48521904D02*
X64748628Y-48617142D01*
X64748628Y-48617142D02*
X64748628Y-48998094D01*
X64224819Y-47521904D02*
X64224819Y-47998094D01*
X64224819Y-47998094D02*
X64701009Y-48045713D01*
X64701009Y-48045713D02*
X64653390Y-47998094D01*
X64653390Y-47998094D02*
X64605771Y-47902856D01*
X64605771Y-47902856D02*
X64605771Y-47664761D01*
X64605771Y-47664761D02*
X64653390Y-47569523D01*
X64653390Y-47569523D02*
X64701009Y-47521904D01*
X64701009Y-47521904D02*
X64796247Y-47474285D01*
X64796247Y-47474285D02*
X65034342Y-47474285D01*
X65034342Y-47474285D02*
X65129580Y-47521904D01*
X65129580Y-47521904D02*
X65177200Y-47569523D01*
X65177200Y-47569523D02*
X65224819Y-47664761D01*
X65224819Y-47664761D02*
X65224819Y-47902856D01*
X65224819Y-47902856D02*
X65177200Y-47998094D01*
X65177200Y-47998094D02*
X65129580Y-48045713D01*
X52543333Y-38554819D02*
X52210000Y-38078628D01*
X51971905Y-38554819D02*
X51971905Y-37554819D01*
X51971905Y-37554819D02*
X52352857Y-37554819D01*
X52352857Y-37554819D02*
X52448095Y-37602438D01*
X52448095Y-37602438D02*
X52495714Y-37650057D01*
X52495714Y-37650057D02*
X52543333Y-37745295D01*
X52543333Y-37745295D02*
X52543333Y-37888152D01*
X52543333Y-37888152D02*
X52495714Y-37983390D01*
X52495714Y-37983390D02*
X52448095Y-38031009D01*
X52448095Y-38031009D02*
X52352857Y-38078628D01*
X52352857Y-38078628D02*
X51971905Y-38078628D01*
X52924286Y-37650057D02*
X52971905Y-37602438D01*
X52971905Y-37602438D02*
X53067143Y-37554819D01*
X53067143Y-37554819D02*
X53305238Y-37554819D01*
X53305238Y-37554819D02*
X53400476Y-37602438D01*
X53400476Y-37602438D02*
X53448095Y-37650057D01*
X53448095Y-37650057D02*
X53495714Y-37745295D01*
X53495714Y-37745295D02*
X53495714Y-37840533D01*
X53495714Y-37840533D02*
X53448095Y-37983390D01*
X53448095Y-37983390D02*
X52876667Y-38554819D01*
X52876667Y-38554819D02*
X53495714Y-38554819D01*
X47989580Y-31956666D02*
X48037200Y-32004285D01*
X48037200Y-32004285D02*
X48084819Y-32147142D01*
X48084819Y-32147142D02*
X48084819Y-32242380D01*
X48084819Y-32242380D02*
X48037200Y-32385237D01*
X48037200Y-32385237D02*
X47941961Y-32480475D01*
X47941961Y-32480475D02*
X47846723Y-32528094D01*
X47846723Y-32528094D02*
X47656247Y-32575713D01*
X47656247Y-32575713D02*
X47513390Y-32575713D01*
X47513390Y-32575713D02*
X47322914Y-32528094D01*
X47322914Y-32528094D02*
X47227676Y-32480475D01*
X47227676Y-32480475D02*
X47132438Y-32385237D01*
X47132438Y-32385237D02*
X47084819Y-32242380D01*
X47084819Y-32242380D02*
X47084819Y-32147142D01*
X47084819Y-32147142D02*
X47132438Y-32004285D01*
X47132438Y-32004285D02*
X47180057Y-31956666D01*
X47180057Y-31575713D02*
X47132438Y-31528094D01*
X47132438Y-31528094D02*
X47084819Y-31432856D01*
X47084819Y-31432856D02*
X47084819Y-31194761D01*
X47084819Y-31194761D02*
X47132438Y-31099523D01*
X47132438Y-31099523D02*
X47180057Y-31051904D01*
X47180057Y-31051904D02*
X47275295Y-31004285D01*
X47275295Y-31004285D02*
X47370533Y-31004285D01*
X47370533Y-31004285D02*
X47513390Y-31051904D01*
X47513390Y-31051904D02*
X48084819Y-31623332D01*
X48084819Y-31623332D02*
X48084819Y-31004285D01*
X37996905Y-25219819D02*
X37996905Y-24219819D01*
X37996905Y-24219819D02*
X38235000Y-24219819D01*
X38235000Y-24219819D02*
X38377857Y-24267438D01*
X38377857Y-24267438D02*
X38473095Y-24362676D01*
X38473095Y-24362676D02*
X38520714Y-24457914D01*
X38520714Y-24457914D02*
X38568333Y-24648390D01*
X38568333Y-24648390D02*
X38568333Y-24791247D01*
X38568333Y-24791247D02*
X38520714Y-24981723D01*
X38520714Y-24981723D02*
X38473095Y-25076961D01*
X38473095Y-25076961D02*
X38377857Y-25172200D01*
X38377857Y-25172200D02*
X38235000Y-25219819D01*
X38235000Y-25219819D02*
X37996905Y-25219819D01*
X38949286Y-24315057D02*
X38996905Y-24267438D01*
X38996905Y-24267438D02*
X39092143Y-24219819D01*
X39092143Y-24219819D02*
X39330238Y-24219819D01*
X39330238Y-24219819D02*
X39425476Y-24267438D01*
X39425476Y-24267438D02*
X39473095Y-24315057D01*
X39473095Y-24315057D02*
X39520714Y-24410295D01*
X39520714Y-24410295D02*
X39520714Y-24505533D01*
X39520714Y-24505533D02*
X39473095Y-24648390D01*
X39473095Y-24648390D02*
X38901667Y-25219819D01*
X38901667Y-25219819D02*
X39520714Y-25219819D01*
X36014819Y-48426666D02*
X35538628Y-48759999D01*
X36014819Y-48998094D02*
X35014819Y-48998094D01*
X35014819Y-48998094D02*
X35014819Y-48617142D01*
X35014819Y-48617142D02*
X35062438Y-48521904D01*
X35062438Y-48521904D02*
X35110057Y-48474285D01*
X35110057Y-48474285D02*
X35205295Y-48426666D01*
X35205295Y-48426666D02*
X35348152Y-48426666D01*
X35348152Y-48426666D02*
X35443390Y-48474285D01*
X35443390Y-48474285D02*
X35491009Y-48521904D01*
X35491009Y-48521904D02*
X35538628Y-48617142D01*
X35538628Y-48617142D02*
X35538628Y-48998094D01*
X35014819Y-48093332D02*
X35014819Y-47474285D01*
X35014819Y-47474285D02*
X35395771Y-47807618D01*
X35395771Y-47807618D02*
X35395771Y-47664761D01*
X35395771Y-47664761D02*
X35443390Y-47569523D01*
X35443390Y-47569523D02*
X35491009Y-47521904D01*
X35491009Y-47521904D02*
X35586247Y-47474285D01*
X35586247Y-47474285D02*
X35824342Y-47474285D01*
X35824342Y-47474285D02*
X35919580Y-47521904D01*
X35919580Y-47521904D02*
X35967200Y-47569523D01*
X35967200Y-47569523D02*
X36014819Y-47664761D01*
X36014819Y-47664761D02*
X36014819Y-47950475D01*
X36014819Y-47950475D02*
X35967200Y-48045713D01*
X35967200Y-48045713D02*
X35919580Y-48093332D01*
X70304819Y-48426666D02*
X69828628Y-48759999D01*
X70304819Y-48998094D02*
X69304819Y-48998094D01*
X69304819Y-48998094D02*
X69304819Y-48617142D01*
X69304819Y-48617142D02*
X69352438Y-48521904D01*
X69352438Y-48521904D02*
X69400057Y-48474285D01*
X69400057Y-48474285D02*
X69495295Y-48426666D01*
X69495295Y-48426666D02*
X69638152Y-48426666D01*
X69638152Y-48426666D02*
X69733390Y-48474285D01*
X69733390Y-48474285D02*
X69781009Y-48521904D01*
X69781009Y-48521904D02*
X69828628Y-48617142D01*
X69828628Y-48617142D02*
X69828628Y-48998094D01*
X69304819Y-47569523D02*
X69304819Y-47759999D01*
X69304819Y-47759999D02*
X69352438Y-47855237D01*
X69352438Y-47855237D02*
X69400057Y-47902856D01*
X69400057Y-47902856D02*
X69542914Y-47998094D01*
X69542914Y-47998094D02*
X69733390Y-48045713D01*
X69733390Y-48045713D02*
X70114342Y-48045713D01*
X70114342Y-48045713D02*
X70209580Y-47998094D01*
X70209580Y-47998094D02*
X70257200Y-47950475D01*
X70257200Y-47950475D02*
X70304819Y-47855237D01*
X70304819Y-47855237D02*
X70304819Y-47664761D01*
X70304819Y-47664761D02*
X70257200Y-47569523D01*
X70257200Y-47569523D02*
X70209580Y-47521904D01*
X70209580Y-47521904D02*
X70114342Y-47474285D01*
X70114342Y-47474285D02*
X69876247Y-47474285D01*
X69876247Y-47474285D02*
X69781009Y-47521904D01*
X69781009Y-47521904D02*
X69733390Y-47569523D01*
X69733390Y-47569523D02*
X69685771Y-47664761D01*
X69685771Y-47664761D02*
X69685771Y-47855237D01*
X69685771Y-47855237D02*
X69733390Y-47950475D01*
X69733390Y-47950475D02*
X69781009Y-47998094D01*
X69781009Y-47998094D02*
X69876247Y-48045713D01*
X52573095Y-34164819D02*
X52573095Y-34974342D01*
X52573095Y-34974342D02*
X52620714Y-35069580D01*
X52620714Y-35069580D02*
X52668333Y-35117200D01*
X52668333Y-35117200D02*
X52763571Y-35164819D01*
X52763571Y-35164819D02*
X52954047Y-35164819D01*
X52954047Y-35164819D02*
X53049285Y-35117200D01*
X53049285Y-35117200D02*
X53096904Y-35069580D01*
X53096904Y-35069580D02*
X53144523Y-34974342D01*
X53144523Y-34974342D02*
X53144523Y-34164819D01*
X54144523Y-35164819D02*
X53573095Y-35164819D01*
X53858809Y-35164819D02*
X53858809Y-34164819D01*
X53858809Y-34164819D02*
X53763571Y-34307676D01*
X53763571Y-34307676D02*
X53668333Y-34402914D01*
X53668333Y-34402914D02*
X53573095Y-34450533D01*
X59419580Y-31916666D02*
X59467200Y-31964285D01*
X59467200Y-31964285D02*
X59514819Y-32107142D01*
X59514819Y-32107142D02*
X59514819Y-32202380D01*
X59514819Y-32202380D02*
X59467200Y-32345237D01*
X59467200Y-32345237D02*
X59371961Y-32440475D01*
X59371961Y-32440475D02*
X59276723Y-32488094D01*
X59276723Y-32488094D02*
X59086247Y-32535713D01*
X59086247Y-32535713D02*
X58943390Y-32535713D01*
X58943390Y-32535713D02*
X58752914Y-32488094D01*
X58752914Y-32488094D02*
X58657676Y-32440475D01*
X58657676Y-32440475D02*
X58562438Y-32345237D01*
X58562438Y-32345237D02*
X58514819Y-32202380D01*
X58514819Y-32202380D02*
X58514819Y-32107142D01*
X58514819Y-32107142D02*
X58562438Y-31964285D01*
X58562438Y-31964285D02*
X58610057Y-31916666D01*
X58514819Y-31583332D02*
X58514819Y-30964285D01*
X58514819Y-30964285D02*
X58895771Y-31297618D01*
X58895771Y-31297618D02*
X58895771Y-31154761D01*
X58895771Y-31154761D02*
X58943390Y-31059523D01*
X58943390Y-31059523D02*
X58991009Y-31011904D01*
X58991009Y-31011904D02*
X59086247Y-30964285D01*
X59086247Y-30964285D02*
X59324342Y-30964285D01*
X59324342Y-30964285D02*
X59419580Y-31011904D01*
X59419580Y-31011904D02*
X59467200Y-31059523D01*
X59467200Y-31059523D02*
X59514819Y-31154761D01*
X59514819Y-31154761D02*
X59514819Y-31440475D01*
X59514819Y-31440475D02*
X59467200Y-31535713D01*
X59467200Y-31535713D02*
X59419580Y-31583332D01*
X55141905Y-25219819D02*
X55141905Y-24219819D01*
X55141905Y-24219819D02*
X55380000Y-24219819D01*
X55380000Y-24219819D02*
X55522857Y-24267438D01*
X55522857Y-24267438D02*
X55618095Y-24362676D01*
X55618095Y-24362676D02*
X55665714Y-24457914D01*
X55665714Y-24457914D02*
X55713333Y-24648390D01*
X55713333Y-24648390D02*
X55713333Y-24791247D01*
X55713333Y-24791247D02*
X55665714Y-24981723D01*
X55665714Y-24981723D02*
X55618095Y-25076961D01*
X55618095Y-25076961D02*
X55522857Y-25172200D01*
X55522857Y-25172200D02*
X55380000Y-25219819D01*
X55380000Y-25219819D02*
X55141905Y-25219819D01*
X56046667Y-24219819D02*
X56665714Y-24219819D01*
X56665714Y-24219819D02*
X56332381Y-24600771D01*
X56332381Y-24600771D02*
X56475238Y-24600771D01*
X56475238Y-24600771D02*
X56570476Y-24648390D01*
X56570476Y-24648390D02*
X56618095Y-24696009D01*
X56618095Y-24696009D02*
X56665714Y-24791247D01*
X56665714Y-24791247D02*
X56665714Y-25029342D01*
X56665714Y-25029342D02*
X56618095Y-25124580D01*
X56618095Y-25124580D02*
X56570476Y-25172200D01*
X56570476Y-25172200D02*
X56475238Y-25219819D01*
X56475238Y-25219819D02*
X56189524Y-25219819D01*
X56189524Y-25219819D02*
X56094286Y-25172200D01*
X56094286Y-25172200D02*
X56046667Y-25124580D01*
X39824819Y-48426666D02*
X39348628Y-48759999D01*
X39824819Y-48998094D02*
X38824819Y-48998094D01*
X38824819Y-48998094D02*
X38824819Y-48617142D01*
X38824819Y-48617142D02*
X38872438Y-48521904D01*
X38872438Y-48521904D02*
X38920057Y-48474285D01*
X38920057Y-48474285D02*
X39015295Y-48426666D01*
X39015295Y-48426666D02*
X39158152Y-48426666D01*
X39158152Y-48426666D02*
X39253390Y-48474285D01*
X39253390Y-48474285D02*
X39301009Y-48521904D01*
X39301009Y-48521904D02*
X39348628Y-48617142D01*
X39348628Y-48617142D02*
X39348628Y-48998094D01*
X39158152Y-47569523D02*
X39824819Y-47569523D01*
X38777200Y-47807618D02*
X39491485Y-48045713D01*
X39491485Y-48045713D02*
X39491485Y-47426666D01*
X72286905Y-41729819D02*
X72286905Y-40729819D01*
X72286905Y-40729819D02*
X72525000Y-40729819D01*
X72525000Y-40729819D02*
X72667857Y-40777438D01*
X72667857Y-40777438D02*
X72763095Y-40872676D01*
X72763095Y-40872676D02*
X72810714Y-40967914D01*
X72810714Y-40967914D02*
X72858333Y-41158390D01*
X72858333Y-41158390D02*
X72858333Y-41301247D01*
X72858333Y-41301247D02*
X72810714Y-41491723D01*
X72810714Y-41491723D02*
X72763095Y-41586961D01*
X72763095Y-41586961D02*
X72667857Y-41682200D01*
X72667857Y-41682200D02*
X72525000Y-41729819D01*
X72525000Y-41729819D02*
X72286905Y-41729819D01*
X73191667Y-40729819D02*
X73858333Y-40729819D01*
X73858333Y-40729819D02*
X73429762Y-41729819D01*
X32204819Y-48998094D02*
X31204819Y-48998094D01*
X31204819Y-48998094D02*
X31204819Y-48759999D01*
X31204819Y-48759999D02*
X31252438Y-48617142D01*
X31252438Y-48617142D02*
X31347676Y-48521904D01*
X31347676Y-48521904D02*
X31442914Y-48474285D01*
X31442914Y-48474285D02*
X31633390Y-48426666D01*
X31633390Y-48426666D02*
X31776247Y-48426666D01*
X31776247Y-48426666D02*
X31966723Y-48474285D01*
X31966723Y-48474285D02*
X32061961Y-48521904D01*
X32061961Y-48521904D02*
X32157200Y-48617142D01*
X32157200Y-48617142D02*
X32204819Y-48759999D01*
X32204819Y-48759999D02*
X32204819Y-48998094D01*
X31204819Y-47521904D02*
X31204819Y-47998094D01*
X31204819Y-47998094D02*
X31681009Y-48045713D01*
X31681009Y-48045713D02*
X31633390Y-47998094D01*
X31633390Y-47998094D02*
X31585771Y-47902856D01*
X31585771Y-47902856D02*
X31585771Y-47664761D01*
X31585771Y-47664761D02*
X31633390Y-47569523D01*
X31633390Y-47569523D02*
X31681009Y-47521904D01*
X31681009Y-47521904D02*
X31776247Y-47474285D01*
X31776247Y-47474285D02*
X32014342Y-47474285D01*
X32014342Y-47474285D02*
X32109580Y-47521904D01*
X32109580Y-47521904D02*
X32157200Y-47569523D01*
X32157200Y-47569523D02*
X32204819Y-47664761D01*
X32204819Y-47664761D02*
X32204819Y-47902856D01*
X32204819Y-47902856D02*
X32157200Y-47998094D01*
X32157200Y-47998094D02*
X32109580Y-48045713D01*
X84338095Y-41364819D02*
X84338095Y-42174342D01*
X84338095Y-42174342D02*
X84385714Y-42269580D01*
X84385714Y-42269580D02*
X84433333Y-42317200D01*
X84433333Y-42317200D02*
X84528571Y-42364819D01*
X84528571Y-42364819D02*
X84719047Y-42364819D01*
X84719047Y-42364819D02*
X84814285Y-42317200D01*
X84814285Y-42317200D02*
X84861904Y-42269580D01*
X84861904Y-42269580D02*
X84909523Y-42174342D01*
X84909523Y-42174342D02*
X84909523Y-41364819D01*
X85338095Y-41460057D02*
X85385714Y-41412438D01*
X85385714Y-41412438D02*
X85480952Y-41364819D01*
X85480952Y-41364819D02*
X85719047Y-41364819D01*
X85719047Y-41364819D02*
X85814285Y-41412438D01*
X85814285Y-41412438D02*
X85861904Y-41460057D01*
X85861904Y-41460057D02*
X85909523Y-41555295D01*
X85909523Y-41555295D02*
X85909523Y-41650533D01*
X85909523Y-41650533D02*
X85861904Y-41793390D01*
X85861904Y-41793390D02*
X85290476Y-42364819D01*
X85290476Y-42364819D02*
X85909523Y-42364819D01*
X69304819Y-24657160D02*
X70019104Y-24657160D01*
X70019104Y-24657160D02*
X70161961Y-24704779D01*
X70161961Y-24704779D02*
X70257200Y-24800017D01*
X70257200Y-24800017D02*
X70304819Y-24942874D01*
X70304819Y-24942874D02*
X70304819Y-25038112D01*
X69304819Y-24276207D02*
X69304819Y-23657160D01*
X69304819Y-23657160D02*
X69685771Y-23990493D01*
X69685771Y-23990493D02*
X69685771Y-23847636D01*
X69685771Y-23847636D02*
X69733390Y-23752398D01*
X69733390Y-23752398D02*
X69781009Y-23704779D01*
X69781009Y-23704779D02*
X69876247Y-23657160D01*
X69876247Y-23657160D02*
X70114342Y-23657160D01*
X70114342Y-23657160D02*
X70209580Y-23704779D01*
X70209580Y-23704779D02*
X70257200Y-23752398D01*
X70257200Y-23752398D02*
X70304819Y-23847636D01*
X70304819Y-23847636D02*
X70304819Y-24133350D01*
X70304819Y-24133350D02*
X70257200Y-24228588D01*
X70257200Y-24228588D02*
X70209580Y-24276207D01*
X43539580Y-50966666D02*
X43587200Y-51014285D01*
X43587200Y-51014285D02*
X43634819Y-51157142D01*
X43634819Y-51157142D02*
X43634819Y-51252380D01*
X43634819Y-51252380D02*
X43587200Y-51395237D01*
X43587200Y-51395237D02*
X43491961Y-51490475D01*
X43491961Y-51490475D02*
X43396723Y-51538094D01*
X43396723Y-51538094D02*
X43206247Y-51585713D01*
X43206247Y-51585713D02*
X43063390Y-51585713D01*
X43063390Y-51585713D02*
X42872914Y-51538094D01*
X42872914Y-51538094D02*
X42777676Y-51490475D01*
X42777676Y-51490475D02*
X42682438Y-51395237D01*
X42682438Y-51395237D02*
X42634819Y-51252380D01*
X42634819Y-51252380D02*
X42634819Y-51157142D01*
X42634819Y-51157142D02*
X42682438Y-51014285D01*
X42682438Y-51014285D02*
X42730057Y-50966666D01*
X42634819Y-50061904D02*
X42634819Y-50538094D01*
X42634819Y-50538094D02*
X43111009Y-50585713D01*
X43111009Y-50585713D02*
X43063390Y-50538094D01*
X43063390Y-50538094D02*
X43015771Y-50442856D01*
X43015771Y-50442856D02*
X43015771Y-50204761D01*
X43015771Y-50204761D02*
X43063390Y-50109523D01*
X43063390Y-50109523D02*
X43111009Y-50061904D01*
X43111009Y-50061904D02*
X43206247Y-50014285D01*
X43206247Y-50014285D02*
X43444342Y-50014285D01*
X43444342Y-50014285D02*
X43539580Y-50061904D01*
X43539580Y-50061904D02*
X43587200Y-50109523D01*
X43587200Y-50109523D02*
X43634819Y-50204761D01*
X43634819Y-50204761D02*
X43634819Y-50442856D01*
X43634819Y-50442856D02*
X43587200Y-50538094D01*
X43587200Y-50538094D02*
X43539580Y-50585713D01*
X43648333Y-39094580D02*
X43600714Y-39142200D01*
X43600714Y-39142200D02*
X43457857Y-39189819D01*
X43457857Y-39189819D02*
X43362619Y-39189819D01*
X43362619Y-39189819D02*
X43219762Y-39142200D01*
X43219762Y-39142200D02*
X43124524Y-39046961D01*
X43124524Y-39046961D02*
X43076905Y-38951723D01*
X43076905Y-38951723D02*
X43029286Y-38761247D01*
X43029286Y-38761247D02*
X43029286Y-38618390D01*
X43029286Y-38618390D02*
X43076905Y-38427914D01*
X43076905Y-38427914D02*
X43124524Y-38332676D01*
X43124524Y-38332676D02*
X43219762Y-38237438D01*
X43219762Y-38237438D02*
X43362619Y-38189819D01*
X43362619Y-38189819D02*
X43457857Y-38189819D01*
X43457857Y-38189819D02*
X43600714Y-38237438D01*
X43600714Y-38237438D02*
X43648333Y-38285057D01*
X44600714Y-39189819D02*
X44029286Y-39189819D01*
X44315000Y-39189819D02*
X44315000Y-38189819D01*
X44315000Y-38189819D02*
X44219762Y-38332676D01*
X44219762Y-38332676D02*
X44124524Y-38427914D01*
X44124524Y-38427914D02*
X44029286Y-38475533D01*
X34109819Y-33821666D02*
X33633628Y-34154999D01*
X34109819Y-34393094D02*
X33109819Y-34393094D01*
X33109819Y-34393094D02*
X33109819Y-34012142D01*
X33109819Y-34012142D02*
X33157438Y-33916904D01*
X33157438Y-33916904D02*
X33205057Y-33869285D01*
X33205057Y-33869285D02*
X33300295Y-33821666D01*
X33300295Y-33821666D02*
X33443152Y-33821666D01*
X33443152Y-33821666D02*
X33538390Y-33869285D01*
X33538390Y-33869285D02*
X33586009Y-33916904D01*
X33586009Y-33916904D02*
X33633628Y-34012142D01*
X33633628Y-34012142D02*
X33633628Y-34393094D01*
X34109819Y-32869285D02*
X34109819Y-33440713D01*
X34109819Y-33154999D02*
X33109819Y-33154999D01*
X33109819Y-33154999D02*
X33252676Y-33250237D01*
X33252676Y-33250237D02*
X33347914Y-33345475D01*
X33347914Y-33345475D02*
X33395533Y-33440713D01*
X59779819Y-54684506D02*
X60494104Y-54684506D01*
X60494104Y-54684506D02*
X60636961Y-54732125D01*
X60636961Y-54732125D02*
X60732200Y-54827363D01*
X60732200Y-54827363D02*
X60779819Y-54970220D01*
X60779819Y-54970220D02*
X60779819Y-55065458D01*
X59875057Y-54255934D02*
X59827438Y-54208315D01*
X59827438Y-54208315D02*
X59779819Y-54113077D01*
X59779819Y-54113077D02*
X59779819Y-53874982D01*
X59779819Y-53874982D02*
X59827438Y-53779744D01*
X59827438Y-53779744D02*
X59875057Y-53732125D01*
X59875057Y-53732125D02*
X59970295Y-53684506D01*
X59970295Y-53684506D02*
X60065533Y-53684506D01*
X60065533Y-53684506D02*
X60208390Y-53732125D01*
X60208390Y-53732125D02*
X60779819Y-54303553D01*
X60779819Y-54303553D02*
X60779819Y-53684506D01*
X47444819Y-48998094D02*
X46444819Y-48998094D01*
X46444819Y-48998094D02*
X46444819Y-48759999D01*
X46444819Y-48759999D02*
X46492438Y-48617142D01*
X46492438Y-48617142D02*
X46587676Y-48521904D01*
X46587676Y-48521904D02*
X46682914Y-48474285D01*
X46682914Y-48474285D02*
X46873390Y-48426666D01*
X46873390Y-48426666D02*
X47016247Y-48426666D01*
X47016247Y-48426666D02*
X47206723Y-48474285D01*
X47206723Y-48474285D02*
X47301961Y-48521904D01*
X47301961Y-48521904D02*
X47397200Y-48617142D01*
X47397200Y-48617142D02*
X47444819Y-48759999D01*
X47444819Y-48759999D02*
X47444819Y-48998094D01*
X46444819Y-47569523D02*
X46444819Y-47759999D01*
X46444819Y-47759999D02*
X46492438Y-47855237D01*
X46492438Y-47855237D02*
X46540057Y-47902856D01*
X46540057Y-47902856D02*
X46682914Y-47998094D01*
X46682914Y-47998094D02*
X46873390Y-48045713D01*
X46873390Y-48045713D02*
X47254342Y-48045713D01*
X47254342Y-48045713D02*
X47349580Y-47998094D01*
X47349580Y-47998094D02*
X47397200Y-47950475D01*
X47397200Y-47950475D02*
X47444819Y-47855237D01*
X47444819Y-47855237D02*
X47444819Y-47664761D01*
X47444819Y-47664761D02*
X47397200Y-47569523D01*
X47397200Y-47569523D02*
X47349580Y-47521904D01*
X47349580Y-47521904D02*
X47254342Y-47474285D01*
X47254342Y-47474285D02*
X47016247Y-47474285D01*
X47016247Y-47474285D02*
X46921009Y-47521904D01*
X46921009Y-47521904D02*
X46873390Y-47569523D01*
X46873390Y-47569523D02*
X46825771Y-47664761D01*
X46825771Y-47664761D02*
X46825771Y-47855237D01*
X46825771Y-47855237D02*
X46873390Y-47950475D01*
X46873390Y-47950475D02*
X46921009Y-47998094D01*
X46921009Y-47998094D02*
X47016247Y-48045713D01*
D11*
%TO.C,R7*%
X74195000Y-44990000D02*
X74195000Y-51530000D01*
X74195000Y-51530000D02*
X76935000Y-51530000D01*
X75565000Y-44220000D02*
X75565000Y-44990000D01*
X75565000Y-52300000D02*
X75565000Y-51530000D01*
X76935000Y-44990000D02*
X74195000Y-44990000D01*
X76935000Y-51530000D02*
X76935000Y-44990000D01*
%TO.C,D4*%
X65070000Y-35750000D02*
X65070000Y-35594000D01*
X65070000Y-38066000D02*
X65070000Y-37910000D01*
X61837665Y-35751392D02*
G75*
G02*
X65070000Y-35594484I1672335J-1078608D01*
G01*
X62468870Y-35750163D02*
G75*
G02*
X64550961Y-35750000I1041130J-1079837D01*
G01*
X64550961Y-37910000D02*
G75*
G02*
X62468870Y-37909837I-1040961J1080000D01*
G01*
X65070000Y-38065516D02*
G75*
G02*
X61837665Y-37908608I-1560000J1235516D01*
G01*
%TO.C,J1*%
X21380000Y-52400000D02*
X21380000Y-53650000D01*
X21380000Y-53650000D02*
X22630000Y-53650000D01*
X21670000Y-45740000D02*
X21670000Y-53360000D01*
X21670000Y-53360000D02*
X27640000Y-53360000D01*
X21680000Y-45750000D02*
X21680000Y-47550000D01*
X21680000Y-47550000D02*
X22430000Y-47550000D01*
X21680000Y-49050000D02*
X21680000Y-50050000D01*
X21680000Y-50050000D02*
X22430000Y-50050000D01*
X21680000Y-51550000D02*
X21680000Y-53350000D01*
X21680000Y-53350000D02*
X22430000Y-53350000D01*
X22430000Y-45750000D02*
X21680000Y-45750000D01*
X22430000Y-47550000D02*
X22430000Y-45750000D01*
X22430000Y-49050000D02*
X21680000Y-49050000D01*
X22430000Y-50050000D02*
X22430000Y-49050000D01*
X22430000Y-51550000D02*
X21680000Y-51550000D01*
X22430000Y-53350000D02*
X22430000Y-51550000D01*
X23930000Y-45750000D02*
X23930000Y-46500000D01*
X23930000Y-46500000D02*
X26880000Y-46500000D01*
X23930000Y-52600000D02*
X26880000Y-52600000D01*
X23930000Y-53350000D02*
X23930000Y-52600000D01*
X26880000Y-46500000D02*
X26880000Y-49550000D01*
X26880000Y-52600000D02*
X26880000Y-49550000D01*
X27640000Y-45740000D02*
X21670000Y-45740000D01*
X27640000Y-53360000D02*
X27640000Y-45740000D01*
%TO.C,D1*%
X28375000Y-30935000D02*
X28375000Y-36375000D01*
X28375000Y-35355000D02*
X31315000Y-35355000D01*
X28375000Y-35475000D02*
X31315000Y-35475000D01*
X28375000Y-35595000D02*
X31315000Y-35595000D01*
X28375000Y-36375000D02*
X31315000Y-36375000D01*
X29845000Y-29915000D02*
X29845000Y-30935000D01*
X29845000Y-37395000D02*
X29845000Y-36375000D01*
X31315000Y-30935000D02*
X28375000Y-30935000D01*
X31315000Y-36375000D02*
X31315000Y-30935000D01*
%TO.C,D8*%
X75270000Y-37499000D02*
X75270000Y-37655000D01*
X75270000Y-39815000D02*
X75270000Y-39971000D01*
X75270000Y-37499484D02*
G75*
G02*
X78502335Y-37656392I1560000J-1235516D01*
G01*
X75789039Y-37655000D02*
G75*
G02*
X77871130Y-37655163I1040961J-1080000D01*
G01*
X77871130Y-39814837D02*
G75*
G02*
X75789039Y-39815000I-1041130J1079837D01*
G01*
X78502335Y-39813608D02*
G75*
G02*
X75270000Y-39970516I-1672335J1078608D01*
G01*
%TO.C,C6*%
X83780000Y-25615000D02*
X83780000Y-25300000D01*
X83780000Y-28040000D02*
X83780000Y-27725000D01*
X89020000Y-25300000D02*
X83780000Y-25300000D01*
X89020000Y-25615000D02*
X89020000Y-25300000D01*
X89020000Y-28040000D02*
X83780000Y-28040000D01*
X89020000Y-28040000D02*
X89020000Y-27725000D01*
%TO.C,C4*%
X65755000Y-27427738D02*
X65755000Y-27977738D01*
X66030000Y-27702738D02*
X65480000Y-27702738D01*
X67010000Y-30500000D02*
G75*
G02*
X61270000Y-30500000I-2870000J0D01*
G01*
X61270000Y-30500000D02*
G75*
G02*
X67010000Y-30500000I2870000J0D01*
G01*
%TO.C,R5*%
X63400000Y-44990000D02*
X63400000Y-51530000D01*
X63400000Y-51530000D02*
X66140000Y-51530000D01*
X64770000Y-44220000D02*
X64770000Y-44990000D01*
X64770000Y-52300000D02*
X64770000Y-51530000D01*
X66140000Y-44990000D02*
X63400000Y-44990000D01*
X66140000Y-51530000D02*
X66140000Y-44990000D01*
%TO.C,R2*%
X48670000Y-38100000D02*
X49440000Y-38100000D01*
X49440000Y-36730000D02*
X49440000Y-39470000D01*
X49440000Y-39470000D02*
X55980000Y-39470000D01*
X55980000Y-36730000D02*
X49440000Y-36730000D01*
X55980000Y-39470000D02*
X55980000Y-36730000D01*
X56750000Y-38100000D02*
X55980000Y-38100000D01*
%TO.C,C2*%
X46260000Y-28070000D02*
X46260000Y-35510000D01*
X49000000Y-28070000D02*
X46260000Y-28070000D01*
X49000000Y-28070000D02*
X49000000Y-35510000D01*
X49000000Y-35510000D02*
X46260000Y-35510000D01*
%TO.C,D2*%
X34995000Y-24765000D02*
X36015000Y-24765000D01*
X36015000Y-23295000D02*
X36015000Y-26235000D01*
X36015000Y-26235000D02*
X41455000Y-26235000D01*
X36795000Y-23295000D02*
X36795000Y-26235000D01*
X36915000Y-23295000D02*
X36915000Y-26235000D01*
X37035000Y-23295000D02*
X37035000Y-26235000D01*
X41455000Y-23295000D02*
X36015000Y-23295000D01*
X41455000Y-26235000D02*
X41455000Y-23295000D01*
X42475000Y-24765000D02*
X41455000Y-24765000D01*
%TO.C,R3*%
X34190000Y-44990000D02*
X34190000Y-51530000D01*
X34190000Y-51530000D02*
X36930000Y-51530000D01*
X35560000Y-44220000D02*
X35560000Y-44990000D01*
X35560000Y-52300000D02*
X35560000Y-51530000D01*
X36930000Y-44990000D02*
X34190000Y-44990000D01*
X36930000Y-51530000D02*
X36930000Y-44990000D01*
%TO.C,R6*%
X68480000Y-44990000D02*
X68480000Y-51530000D01*
X68480000Y-51530000D02*
X71220000Y-51530000D01*
X69850000Y-44220000D02*
X69850000Y-44990000D01*
X69850000Y-52300000D02*
X69850000Y-51530000D01*
X71220000Y-44990000D02*
X68480000Y-44990000D01*
X71220000Y-51530000D02*
X71220000Y-44990000D01*
%TO.C,U1*%
X55145000Y-28670000D02*
X51545000Y-28670000D01*
X51020816Y-29397205D02*
G75*
G02*
X51545000Y-28670000I2324184J-1122795D01*
G01*
X52235000Y-32870000D02*
G75*
G02*
X50989542Y-31618371I1110000J2350000D01*
G01*
X55145000Y-28670000D02*
G75*
G02*
X55669184Y-29397205I-1800000J-1850000D01*
G01*
X55712199Y-31623842D02*
G75*
G02*
X54485000Y-32870000I-2367199J1103842D01*
G01*
%TO.C,C3*%
X57690000Y-28030000D02*
X57690000Y-35470000D01*
X60430000Y-28030000D02*
X57690000Y-28030000D01*
X60430000Y-28030000D02*
X60430000Y-35470000D01*
X60430000Y-35470000D02*
X57690000Y-35470000D01*
%TO.C,D3*%
X52140000Y-24765000D02*
X53160000Y-24765000D01*
X53160000Y-23295000D02*
X53160000Y-26235000D01*
X53160000Y-26235000D02*
X58600000Y-26235000D01*
X53940000Y-23295000D02*
X53940000Y-26235000D01*
X54060000Y-23295000D02*
X54060000Y-26235000D01*
X54180000Y-23295000D02*
X54180000Y-26235000D01*
X58600000Y-23295000D02*
X53160000Y-23295000D01*
X58600000Y-26235000D02*
X58600000Y-23295000D01*
X59620000Y-24765000D02*
X58600000Y-24765000D01*
%TO.C,R4*%
X38000000Y-44990000D02*
X38000000Y-51530000D01*
X38000000Y-51530000D02*
X40740000Y-51530000D01*
X39370000Y-44220000D02*
X39370000Y-44990000D01*
X39370000Y-52300000D02*
X39370000Y-51530000D01*
X40740000Y-44990000D02*
X38000000Y-44990000D01*
X40740000Y-51530000D02*
X40740000Y-44990000D01*
%TO.C,D7*%
X69555000Y-37499000D02*
X69555000Y-37655000D01*
X69555000Y-39815000D02*
X69555000Y-39971000D01*
X69555000Y-37499484D02*
G75*
G02*
X72787335Y-37656392I1560000J-1235516D01*
G01*
X70074039Y-37655000D02*
G75*
G02*
X72156130Y-37655163I1040961J-1080000D01*
G01*
X72156130Y-39814837D02*
G75*
G02*
X70074039Y-39815000I-1041130J1079837D01*
G01*
X72787335Y-39813608D02*
G75*
G02*
X69555000Y-39970516I-1672335J1078608D01*
G01*
%TO.C,D5*%
X30630000Y-46140000D02*
X30630000Y-50380000D01*
X30630000Y-49540000D02*
X32870000Y-49540000D01*
X30630000Y-49660000D02*
X32870000Y-49660000D01*
X30630000Y-49780000D02*
X32870000Y-49780000D01*
X30630000Y-50380000D02*
X32870000Y-50380000D01*
X31750000Y-44220000D02*
X31750000Y-46140000D01*
X31750000Y-52300000D02*
X31750000Y-50380000D01*
X32870000Y-46140000D02*
X30630000Y-46140000D01*
X32870000Y-50380000D02*
X32870000Y-46140000D01*
%TO.C,U2*%
X82450000Y-29155000D02*
X82450000Y-54675000D01*
X82450000Y-54675000D02*
X87750000Y-54675000D01*
X84100000Y-29155000D02*
X82450000Y-29155000D01*
X87750000Y-29155000D02*
X86100000Y-29155000D01*
X87750000Y-54675000D02*
X87750000Y-29155000D01*
X86100000Y-29155000D02*
G75*
G02*
X84100000Y-29155000I-1000000J0D01*
G01*
%TO.C,J3*%
X69805000Y-29485000D02*
X69805000Y-32145000D01*
X69805000Y-32145000D02*
X77545000Y-32145000D01*
X69865000Y-34855000D02*
X69865000Y-33585000D01*
X70755000Y-23485000D02*
X71515000Y-23485000D01*
X70755000Y-29485000D02*
X70755000Y-23485000D01*
X70755000Y-32475000D02*
X70755000Y-32145000D01*
X70815000Y-29485000D02*
X70815000Y-23485000D01*
X70935000Y-29485000D02*
X70935000Y-23485000D01*
X71055000Y-29485000D02*
X71055000Y-23485000D01*
X71135000Y-34855000D02*
X69865000Y-34855000D01*
X71175000Y-29485000D02*
X71175000Y-23485000D01*
X71295000Y-29485000D02*
X71295000Y-23485000D01*
X71415000Y-29485000D02*
X71415000Y-23485000D01*
X71515000Y-23485000D02*
X71515000Y-29485000D01*
X71515000Y-32475000D02*
X71515000Y-32145000D01*
X72405000Y-32145000D02*
X72405000Y-29485000D01*
X73295000Y-23485000D02*
X74055000Y-23485000D01*
X73295000Y-29485000D02*
X73295000Y-23485000D01*
X73295000Y-32542071D02*
X73295000Y-32145000D01*
X74055000Y-23485000D02*
X74055000Y-29485000D01*
X74055000Y-32542071D02*
X74055000Y-32145000D01*
X74945000Y-32145000D02*
X74945000Y-29485000D01*
X75835000Y-23485000D02*
X76595000Y-23485000D01*
X75835000Y-29485000D02*
X75835000Y-23485000D01*
X75835000Y-32542071D02*
X75835000Y-32145000D01*
X76595000Y-23485000D02*
X76595000Y-29485000D01*
X76595000Y-32542071D02*
X76595000Y-32145000D01*
X77545000Y-29485000D02*
X69805000Y-29485000D01*
X77545000Y-32145000D02*
X77545000Y-29485000D01*
%TO.C,C5*%
X41810000Y-48140000D02*
X42125000Y-48140000D01*
X41810000Y-53380000D02*
X41810000Y-48140000D01*
X41810000Y-53380000D02*
X42125000Y-53380000D01*
X44235000Y-48140000D02*
X44550000Y-48140000D01*
X44235000Y-53380000D02*
X44550000Y-53380000D01*
X44550000Y-53380000D02*
X44550000Y-48140000D01*
%TO.C,C1*%
X39399000Y-34293323D02*
X35722000Y-34293323D01*
X39399000Y-34333323D02*
X35733000Y-34333323D01*
X39399000Y-34373323D02*
X35743000Y-34373323D01*
X39399000Y-34413323D02*
X35755000Y-34413323D01*
X39399000Y-34453323D02*
X35766000Y-34453323D01*
X39399000Y-34493323D02*
X35778000Y-34493323D01*
X39399000Y-34533323D02*
X35790000Y-34533323D01*
X39399000Y-34573323D02*
X35803000Y-34573323D01*
X39399000Y-34613323D02*
X35816000Y-34613323D01*
X39399000Y-34653323D02*
X35829000Y-34653323D01*
X39399000Y-34693323D02*
X35843000Y-34693323D01*
X39399000Y-34733323D02*
X35857000Y-34733323D01*
X39399000Y-34773323D02*
X35872000Y-34773323D01*
X39399000Y-34813323D02*
X35886000Y-34813323D01*
X39399000Y-34853323D02*
X35902000Y-34853323D01*
X39399000Y-34893323D02*
X35917000Y-34893323D01*
X39399000Y-34933323D02*
X35933000Y-34933323D01*
X39399000Y-34973323D02*
X35950000Y-34973323D01*
X39399000Y-35013323D02*
X35966000Y-35013323D01*
X39399000Y-35053323D02*
X35983000Y-35053323D01*
X39399000Y-35093323D02*
X36001000Y-35093323D01*
X39399000Y-35133323D02*
X36019000Y-35133323D01*
X39399000Y-35173323D02*
X36037000Y-35173323D01*
X39399000Y-35213323D02*
X36056000Y-35213323D01*
X39399000Y-35253323D02*
X36076000Y-35253323D01*
X39399000Y-35293323D02*
X36095000Y-35293323D01*
X39399000Y-35333323D02*
X36115000Y-35333323D01*
X39399000Y-35373323D02*
X36136000Y-35373323D01*
X39399000Y-35413323D02*
X36157000Y-35413323D01*
X39399000Y-35453323D02*
X36178000Y-35453323D01*
X39399000Y-35493323D02*
X36200000Y-35493323D01*
X39399000Y-35533323D02*
X36223000Y-35533323D01*
X39399000Y-35573323D02*
X36245000Y-35573323D01*
X39399000Y-35613323D02*
X36269000Y-35613323D01*
X39399000Y-35653323D02*
X36293000Y-35653323D01*
X39399000Y-35693323D02*
X36317000Y-35693323D01*
X39399000Y-35733323D02*
X36342000Y-35733323D01*
X39399000Y-35773323D02*
X36367000Y-35773323D01*
X39399000Y-35813323D02*
X36393000Y-35813323D01*
X39399000Y-35853323D02*
X36419000Y-35853323D01*
X39399000Y-35893323D02*
X36446000Y-35893323D01*
X39399000Y-35933323D02*
X36474000Y-35933323D01*
X39399000Y-35973323D02*
X36502000Y-35973323D01*
X39399000Y-36013323D02*
X36530000Y-36013323D01*
X39399000Y-36053323D02*
X36560000Y-36053323D01*
X39399000Y-36093323D02*
X36590000Y-36093323D01*
X39399000Y-36133323D02*
X36620000Y-36133323D01*
X39399000Y-36173323D02*
X36651000Y-36173323D01*
X39399000Y-36213323D02*
X36683000Y-36213323D01*
X39399000Y-36253323D02*
X36715000Y-36253323D01*
X39399000Y-36293323D02*
X36748000Y-36293323D01*
X39399000Y-36333323D02*
X36782000Y-36333323D01*
X39399000Y-36373323D02*
X36816000Y-36373323D01*
X39399000Y-36413323D02*
X36851000Y-36413323D01*
X39399000Y-36453323D02*
X36887000Y-36453323D01*
X39399000Y-36493323D02*
X36924000Y-36493323D01*
X39399000Y-36533323D02*
X36961000Y-36533323D01*
X39399000Y-36573323D02*
X37000000Y-36573323D01*
X39399000Y-36613323D02*
X37039000Y-36613323D01*
X39399000Y-36653323D02*
X37079000Y-36653323D01*
X39399000Y-36693323D02*
X37120000Y-36693323D01*
X39399000Y-36733323D02*
X37162000Y-36733323D01*
X41239000Y-38093323D02*
X40041000Y-38093323D01*
X41502000Y-38053323D02*
X39778000Y-38053323D01*
X41702000Y-38013323D02*
X39578000Y-38013323D01*
X41870000Y-37973323D02*
X39410000Y-37973323D01*
X42018000Y-37933323D02*
X39262000Y-37933323D01*
X42150000Y-37893323D02*
X39130000Y-37893323D01*
X42270000Y-37853323D02*
X39010000Y-37853323D01*
X42382000Y-37813323D02*
X38898000Y-37813323D01*
X42486000Y-37773323D02*
X38794000Y-37773323D01*
X42584000Y-37733323D02*
X38696000Y-37733323D01*
X42677000Y-37693323D02*
X38603000Y-37693323D01*
X42765000Y-37653323D02*
X38515000Y-37653323D01*
X42849000Y-37613323D02*
X38431000Y-37613323D01*
X42929000Y-37573323D02*
X38351000Y-37573323D01*
X43005000Y-37533323D02*
X38275000Y-37533323D01*
X43079000Y-37493323D02*
X38201000Y-37493323D01*
X43150000Y-37453323D02*
X38130000Y-37453323D01*
X43219000Y-37413323D02*
X38061000Y-37413323D01*
X43285000Y-37373323D02*
X37995000Y-37373323D01*
X43349000Y-37333323D02*
X37931000Y-37333323D01*
X43410000Y-37293323D02*
X37870000Y-37293323D01*
X43470000Y-37253323D02*
X37810000Y-37253323D01*
X43515000Y-27532677D02*
X43515000Y-28532677D01*
X43529000Y-37213323D02*
X37751000Y-37213323D01*
X43585000Y-37173323D02*
X37695000Y-37173323D01*
X43640000Y-37133323D02*
X37640000Y-37133323D01*
X43694000Y-37093323D02*
X37586000Y-37093323D01*
X43746000Y-37053323D02*
X37534000Y-37053323D01*
X43796000Y-37013323D02*
X37484000Y-37013323D01*
X43846000Y-36973323D02*
X37434000Y-36973323D01*
X43894000Y-36933323D02*
X37386000Y-36933323D01*
X43941000Y-36893323D02*
X37339000Y-36893323D01*
X43987000Y-36853323D02*
X37293000Y-36853323D01*
X44015000Y-28032677D02*
X43015000Y-28032677D01*
X44032000Y-36813323D02*
X37248000Y-36813323D01*
X44076000Y-36773323D02*
X37204000Y-36773323D01*
X44118000Y-36733323D02*
X41881000Y-36733323D01*
X44160000Y-36693323D02*
X41881000Y-36693323D01*
X44201000Y-36653323D02*
X41881000Y-36653323D01*
X44241000Y-36613323D02*
X41881000Y-36613323D01*
X44280000Y-36573323D02*
X41881000Y-36573323D01*
X44319000Y-36533323D02*
X41881000Y-36533323D01*
X44356000Y-36493323D02*
X41881000Y-36493323D01*
X44393000Y-36453323D02*
X41881000Y-36453323D01*
X44429000Y-36413323D02*
X41881000Y-36413323D01*
X44464000Y-36373323D02*
X41881000Y-36373323D01*
X44498000Y-36333323D02*
X41881000Y-36333323D01*
X44532000Y-36293323D02*
X41881000Y-36293323D01*
X44565000Y-36253323D02*
X41881000Y-36253323D01*
X44597000Y-36213323D02*
X41881000Y-36213323D01*
X44629000Y-36173323D02*
X41881000Y-36173323D01*
X44660000Y-36133323D02*
X41881000Y-36133323D01*
X44690000Y-36093323D02*
X41881000Y-36093323D01*
X44720000Y-36053323D02*
X41881000Y-36053323D01*
X44750000Y-36013323D02*
X41881000Y-36013323D01*
X44778000Y-35973323D02*
X41881000Y-35973323D01*
X44806000Y-35933323D02*
X41881000Y-35933323D01*
X44834000Y-35893323D02*
X41881000Y-35893323D01*
X44861000Y-35853323D02*
X41881000Y-35853323D01*
X44887000Y-35813323D02*
X41881000Y-35813323D01*
X44913000Y-35773323D02*
X41881000Y-35773323D01*
X44938000Y-35733323D02*
X41881000Y-35733323D01*
X44963000Y-35693323D02*
X41881000Y-35693323D01*
X44987000Y-35653323D02*
X41881000Y-35653323D01*
X45011000Y-35613323D02*
X41881000Y-35613323D01*
X45035000Y-35573323D02*
X41881000Y-35573323D01*
X45057000Y-35533323D02*
X41881000Y-35533323D01*
X45080000Y-35493323D02*
X41881000Y-35493323D01*
X45102000Y-35453323D02*
X41881000Y-35453323D01*
X45123000Y-35413323D02*
X41881000Y-35413323D01*
X45144000Y-35373323D02*
X41881000Y-35373323D01*
X45165000Y-35333323D02*
X41881000Y-35333323D01*
X45185000Y-35293323D02*
X41881000Y-35293323D01*
X45204000Y-35253323D02*
X41881000Y-35253323D01*
X45224000Y-35213323D02*
X41881000Y-35213323D01*
X45243000Y-35173323D02*
X41881000Y-35173323D01*
X45261000Y-35133323D02*
X41881000Y-35133323D01*
X45279000Y-35093323D02*
X41881000Y-35093323D01*
X45297000Y-35053323D02*
X41881000Y-35053323D01*
X45314000Y-35013323D02*
X41881000Y-35013323D01*
X45330000Y-34973323D02*
X41881000Y-34973323D01*
X45347000Y-34933323D02*
X41881000Y-34933323D01*
X45363000Y-34893323D02*
X41881000Y-34893323D01*
X45378000Y-34853323D02*
X41881000Y-34853323D01*
X45394000Y-34813323D02*
X41881000Y-34813323D01*
X45408000Y-34773323D02*
X41881000Y-34773323D01*
X45423000Y-34733323D02*
X41881000Y-34733323D01*
X45437000Y-34693323D02*
X41881000Y-34693323D01*
X45451000Y-34653323D02*
X41881000Y-34653323D01*
X45464000Y-34613323D02*
X41881000Y-34613323D01*
X45477000Y-34573323D02*
X41881000Y-34573323D01*
X45490000Y-34533323D02*
X41881000Y-34533323D01*
X45502000Y-34493323D02*
X41881000Y-34493323D01*
X45514000Y-34453323D02*
X41881000Y-34453323D01*
X45525000Y-34413323D02*
X41881000Y-34413323D01*
X45537000Y-34373323D02*
X41881000Y-34373323D01*
X45547000Y-34333323D02*
X41881000Y-34333323D01*
X45558000Y-34293323D02*
X41881000Y-34293323D01*
X45568000Y-34253323D02*
X35712000Y-34253323D01*
X45578000Y-34213323D02*
X35702000Y-34213323D01*
X45587000Y-34173323D02*
X35693000Y-34173323D01*
X45596000Y-34133323D02*
X35684000Y-34133323D01*
X45605000Y-34093323D02*
X35675000Y-34093323D01*
X45614000Y-34053323D02*
X35666000Y-34053323D01*
X45622000Y-34013323D02*
X35658000Y-34013323D01*
X45630000Y-33973323D02*
X35650000Y-33973323D01*
X45637000Y-33933323D02*
X35643000Y-33933323D01*
X45644000Y-33893323D02*
X35636000Y-33893323D01*
X45651000Y-33853323D02*
X35629000Y-33853323D01*
X45658000Y-33813323D02*
X35622000Y-33813323D01*
X45664000Y-33773323D02*
X35616000Y-33773323D01*
X45670000Y-33733323D02*
X35610000Y-33733323D01*
X45675000Y-33692323D02*
X35605000Y-33692323D01*
X45680000Y-33652323D02*
X35600000Y-33652323D01*
X45685000Y-33612323D02*
X35595000Y-33612323D01*
X45690000Y-33572323D02*
X35590000Y-33572323D01*
X45694000Y-33532323D02*
X35586000Y-33532323D01*
X45698000Y-33492323D02*
X35582000Y-33492323D01*
X45702000Y-33452323D02*
X35578000Y-33452323D01*
X45705000Y-33412323D02*
X35575000Y-33412323D01*
X45708000Y-33372323D02*
X35572000Y-33372323D01*
X45710000Y-33332323D02*
X35570000Y-33332323D01*
X45713000Y-33292323D02*
X35567000Y-33292323D01*
X45715000Y-33252323D02*
X35565000Y-33252323D01*
X45717000Y-33212323D02*
X35563000Y-33212323D01*
X45718000Y-33172323D02*
X35562000Y-33172323D01*
X45719000Y-33132323D02*
X35561000Y-33132323D01*
X45720000Y-33012323D02*
X35560000Y-33012323D01*
X45720000Y-33052323D02*
X35560000Y-33052323D01*
X45720000Y-33092323D02*
X35560000Y-33092323D01*
X45760000Y-33012323D02*
G75*
G02*
X35520000Y-33012323I-5120000J0D01*
G01*
X35520000Y-33012323D02*
G75*
G02*
X45760000Y-33012323I5120000J0D01*
G01*
%TO.C,R1*%
X32285000Y-30385000D02*
X32285000Y-36925000D01*
X32285000Y-36925000D02*
X35025000Y-36925000D01*
X33655000Y-29615000D02*
X33655000Y-30385000D01*
X33655000Y-37695000D02*
X33655000Y-36925000D01*
X35025000Y-30385000D02*
X32285000Y-30385000D01*
X35025000Y-36925000D02*
X35025000Y-30385000D01*
%TO.C,J2*%
X52630000Y-46525000D02*
X52630000Y-49185000D01*
X52630000Y-49185000D02*
X60370000Y-49185000D01*
X53580000Y-43587929D02*
X53580000Y-44042071D01*
X53580000Y-46127929D02*
X53580000Y-46525000D01*
X53580000Y-55185000D02*
X53580000Y-49185000D01*
X54340000Y-43587929D02*
X54340000Y-44042071D01*
X54340000Y-46127929D02*
X54340000Y-46525000D01*
X54340000Y-49185000D02*
X54340000Y-55185000D01*
X54340000Y-55185000D02*
X53580000Y-55185000D01*
X55230000Y-46525000D02*
X55230000Y-49185000D01*
X56120000Y-43587929D02*
X56120000Y-44042071D01*
X56120000Y-46127929D02*
X56120000Y-46525000D01*
X56120000Y-55185000D02*
X56120000Y-49185000D01*
X56880000Y-43587929D02*
X56880000Y-44042071D01*
X56880000Y-46127929D02*
X56880000Y-46525000D01*
X56880000Y-49185000D02*
X56880000Y-55185000D01*
X56880000Y-55185000D02*
X56120000Y-55185000D01*
X57770000Y-46525000D02*
X57770000Y-49185000D01*
X58660000Y-43655000D02*
X58660000Y-44042071D01*
X58660000Y-46127929D02*
X58660000Y-46525000D01*
X58660000Y-55185000D02*
X58660000Y-49185000D01*
X58760000Y-49185000D02*
X58760000Y-55185000D01*
X58880000Y-49185000D02*
X58880000Y-55185000D01*
X59000000Y-49185000D02*
X59000000Y-55185000D01*
X59040000Y-41275000D02*
X60310000Y-41275000D01*
X59120000Y-49185000D02*
X59120000Y-55185000D01*
X59240000Y-49185000D02*
X59240000Y-55185000D01*
X59360000Y-49185000D02*
X59360000Y-55185000D01*
X59420000Y-43655000D02*
X59420000Y-44042071D01*
X59420000Y-46127929D02*
X59420000Y-46525000D01*
X59420000Y-49185000D02*
X59420000Y-55185000D01*
X59420000Y-55185000D02*
X58660000Y-55185000D01*
X60310000Y-41275000D02*
X60310000Y-42545000D01*
X60370000Y-46525000D02*
X52630000Y-46525000D01*
X60370000Y-49185000D02*
X60370000Y-46525000D01*
%TO.C,D6*%
X45870000Y-46140000D02*
X45870000Y-50380000D01*
X45870000Y-49540000D02*
X48110000Y-49540000D01*
X45870000Y-49660000D02*
X48110000Y-49660000D01*
X45870000Y-49780000D02*
X48110000Y-49780000D01*
X45870000Y-50380000D02*
X48110000Y-50380000D01*
X46990000Y-44220000D02*
X46990000Y-46140000D01*
X46990000Y-52300000D02*
X46990000Y-50380000D01*
X48110000Y-46140000D02*
X45870000Y-46140000D01*
X48110000Y-50380000D02*
X48110000Y-46140000D01*
%TD*%
%LPC*%
D10*
X28451901Y-57557200D02*
X28594758Y-57604819D01*
X28594758Y-57604819D02*
X28832853Y-57604819D01*
X28832853Y-57604819D02*
X28928091Y-57557200D01*
X28928091Y-57557200D02*
X28975710Y-57509580D01*
X28975710Y-57509580D02*
X29023329Y-57414342D01*
X29023329Y-57414342D02*
X29023329Y-57319104D01*
X29023329Y-57319104D02*
X28975710Y-57223866D01*
X28975710Y-57223866D02*
X28928091Y-57176247D01*
X28928091Y-57176247D02*
X28832853Y-57128628D01*
X28832853Y-57128628D02*
X28642377Y-57081009D01*
X28642377Y-57081009D02*
X28547139Y-57033390D01*
X28547139Y-57033390D02*
X28499520Y-56985771D01*
X28499520Y-56985771D02*
X28451901Y-56890533D01*
X28451901Y-56890533D02*
X28451901Y-56795295D01*
X28451901Y-56795295D02*
X28499520Y-56700057D01*
X28499520Y-56700057D02*
X28547139Y-56652438D01*
X28547139Y-56652438D02*
X28642377Y-56604819D01*
X28642377Y-56604819D02*
X28880472Y-56604819D01*
X28880472Y-56604819D02*
X29023329Y-56652438D01*
X29309044Y-56938152D02*
X29689996Y-56938152D01*
X29451901Y-56604819D02*
X29451901Y-57461961D01*
X29451901Y-57461961D02*
X29499520Y-57557200D01*
X29499520Y-57557200D02*
X29594758Y-57604819D01*
X29594758Y-57604819D02*
X29689996Y-57604819D01*
X30451901Y-57604819D02*
X30451901Y-57081009D01*
X30451901Y-57081009D02*
X30404282Y-56985771D01*
X30404282Y-56985771D02*
X30309044Y-56938152D01*
X30309044Y-56938152D02*
X30118568Y-56938152D01*
X30118568Y-56938152D02*
X30023330Y-56985771D01*
X30451901Y-57557200D02*
X30356663Y-57604819D01*
X30356663Y-57604819D02*
X30118568Y-57604819D01*
X30118568Y-57604819D02*
X30023330Y-57557200D01*
X30023330Y-57557200D02*
X29975711Y-57461961D01*
X29975711Y-57461961D02*
X29975711Y-57366723D01*
X29975711Y-57366723D02*
X30023330Y-57271485D01*
X30023330Y-57271485D02*
X30118568Y-57223866D01*
X30118568Y-57223866D02*
X30356663Y-57223866D01*
X30356663Y-57223866D02*
X30451901Y-57176247D01*
X30928092Y-57604819D02*
X30928092Y-56938152D01*
X30928092Y-57128628D02*
X30975711Y-57033390D01*
X30975711Y-57033390D02*
X31023330Y-56985771D01*
X31023330Y-56985771D02*
X31118568Y-56938152D01*
X31118568Y-56938152D02*
X31213806Y-56938152D01*
X31404283Y-56938152D02*
X31785235Y-56938152D01*
X31547140Y-56604819D02*
X31547140Y-57461961D01*
X31547140Y-57461961D02*
X31594759Y-57557200D01*
X31594759Y-57557200D02*
X31689997Y-57604819D01*
X31689997Y-57604819D02*
X31785235Y-57604819D01*
X32261426Y-57604819D02*
X32166188Y-57557200D01*
X32166188Y-57557200D02*
X32118569Y-57461961D01*
X32118569Y-57461961D02*
X32118569Y-56604819D01*
X32642379Y-57604819D02*
X32642379Y-56938152D01*
X32642379Y-56604819D02*
X32594760Y-56652438D01*
X32594760Y-56652438D02*
X32642379Y-56700057D01*
X32642379Y-56700057D02*
X32689998Y-56652438D01*
X32689998Y-56652438D02*
X32642379Y-56604819D01*
X32642379Y-56604819D02*
X32642379Y-56700057D01*
X33547140Y-56938152D02*
X33547140Y-57747676D01*
X33547140Y-57747676D02*
X33499521Y-57842914D01*
X33499521Y-57842914D02*
X33451902Y-57890533D01*
X33451902Y-57890533D02*
X33356664Y-57938152D01*
X33356664Y-57938152D02*
X33213807Y-57938152D01*
X33213807Y-57938152D02*
X33118569Y-57890533D01*
X33547140Y-57557200D02*
X33451902Y-57604819D01*
X33451902Y-57604819D02*
X33261426Y-57604819D01*
X33261426Y-57604819D02*
X33166188Y-57557200D01*
X33166188Y-57557200D02*
X33118569Y-57509580D01*
X33118569Y-57509580D02*
X33070950Y-57414342D01*
X33070950Y-57414342D02*
X33070950Y-57128628D01*
X33070950Y-57128628D02*
X33118569Y-57033390D01*
X33118569Y-57033390D02*
X33166188Y-56985771D01*
X33166188Y-56985771D02*
X33261426Y-56938152D01*
X33261426Y-56938152D02*
X33451902Y-56938152D01*
X33451902Y-56938152D02*
X33547140Y-56985771D01*
X34023331Y-57604819D02*
X34023331Y-56604819D01*
X34451902Y-57604819D02*
X34451902Y-57081009D01*
X34451902Y-57081009D02*
X34404283Y-56985771D01*
X34404283Y-56985771D02*
X34309045Y-56938152D01*
X34309045Y-56938152D02*
X34166188Y-56938152D01*
X34166188Y-56938152D02*
X34070950Y-56985771D01*
X34070950Y-56985771D02*
X34023331Y-57033390D01*
X34785236Y-56938152D02*
X35166188Y-56938152D01*
X34928093Y-56604819D02*
X34928093Y-57461961D01*
X34928093Y-57461961D02*
X34975712Y-57557200D01*
X34975712Y-57557200D02*
X35070950Y-57604819D01*
X35070950Y-57604819D02*
X35166188Y-57604819D01*
X35451903Y-57557200D02*
X35547141Y-57604819D01*
X35547141Y-57604819D02*
X35737617Y-57604819D01*
X35737617Y-57604819D02*
X35832855Y-57557200D01*
X35832855Y-57557200D02*
X35880474Y-57461961D01*
X35880474Y-57461961D02*
X35880474Y-57414342D01*
X35880474Y-57414342D02*
X35832855Y-57319104D01*
X35832855Y-57319104D02*
X35737617Y-57271485D01*
X35737617Y-57271485D02*
X35594760Y-57271485D01*
X35594760Y-57271485D02*
X35499522Y-57223866D01*
X35499522Y-57223866D02*
X35451903Y-57128628D01*
X35451903Y-57128628D02*
X35451903Y-57081009D01*
X35451903Y-57081009D02*
X35499522Y-56985771D01*
X35499522Y-56985771D02*
X35594760Y-56938152D01*
X35594760Y-56938152D02*
X35737617Y-56938152D01*
X35737617Y-56938152D02*
X35832855Y-56985771D01*
X37023332Y-56604819D02*
X37023332Y-56795295D01*
X37404284Y-56604819D02*
X37404284Y-56795295D01*
X38166189Y-57081009D02*
X38309046Y-57128628D01*
X38309046Y-57128628D02*
X38356665Y-57176247D01*
X38356665Y-57176247D02*
X38404284Y-57271485D01*
X38404284Y-57271485D02*
X38404284Y-57414342D01*
X38404284Y-57414342D02*
X38356665Y-57509580D01*
X38356665Y-57509580D02*
X38309046Y-57557200D01*
X38309046Y-57557200D02*
X38213808Y-57604819D01*
X38213808Y-57604819D02*
X37832856Y-57604819D01*
X37832856Y-57604819D02*
X37832856Y-56604819D01*
X37832856Y-56604819D02*
X38166189Y-56604819D01*
X38166189Y-56604819D02*
X38261427Y-56652438D01*
X38261427Y-56652438D02*
X38309046Y-56700057D01*
X38309046Y-56700057D02*
X38356665Y-56795295D01*
X38356665Y-56795295D02*
X38356665Y-56890533D01*
X38356665Y-56890533D02*
X38309046Y-56985771D01*
X38309046Y-56985771D02*
X38261427Y-57033390D01*
X38261427Y-57033390D02*
X38166189Y-57081009D01*
X38166189Y-57081009D02*
X37832856Y-57081009D01*
X39261427Y-57604819D02*
X39261427Y-57081009D01*
X39261427Y-57081009D02*
X39213808Y-56985771D01*
X39213808Y-56985771D02*
X39118570Y-56938152D01*
X39118570Y-56938152D02*
X38928094Y-56938152D01*
X38928094Y-56938152D02*
X38832856Y-56985771D01*
X39261427Y-57557200D02*
X39166189Y-57604819D01*
X39166189Y-57604819D02*
X38928094Y-57604819D01*
X38928094Y-57604819D02*
X38832856Y-57557200D01*
X38832856Y-57557200D02*
X38785237Y-57461961D01*
X38785237Y-57461961D02*
X38785237Y-57366723D01*
X38785237Y-57366723D02*
X38832856Y-57271485D01*
X38832856Y-57271485D02*
X38928094Y-57223866D01*
X38928094Y-57223866D02*
X39166189Y-57223866D01*
X39166189Y-57223866D02*
X39261427Y-57176247D01*
X38832856Y-56604819D02*
X38880475Y-56652438D01*
X38880475Y-56652438D02*
X38832856Y-56700057D01*
X38832856Y-56700057D02*
X38785237Y-56652438D01*
X38785237Y-56652438D02*
X38832856Y-56604819D01*
X38832856Y-56604819D02*
X38832856Y-56700057D01*
X39213808Y-56604819D02*
X39261427Y-56652438D01*
X39261427Y-56652438D02*
X39213808Y-56700057D01*
X39213808Y-56700057D02*
X39166189Y-56652438D01*
X39166189Y-56652438D02*
X39213808Y-56604819D01*
X39213808Y-56604819D02*
X39213808Y-56700057D01*
X39737618Y-57604819D02*
X39737618Y-56938152D01*
X39737618Y-57128628D02*
X39785237Y-57033390D01*
X39785237Y-57033390D02*
X39832856Y-56985771D01*
X39832856Y-56985771D02*
X39928094Y-56938152D01*
X39928094Y-56938152D02*
X40023332Y-56938152D01*
X40737618Y-57557200D02*
X40642380Y-57604819D01*
X40642380Y-57604819D02*
X40451904Y-57604819D01*
X40451904Y-57604819D02*
X40356666Y-57557200D01*
X40356666Y-57557200D02*
X40309047Y-57461961D01*
X40309047Y-57461961D02*
X40309047Y-57081009D01*
X40309047Y-57081009D02*
X40356666Y-56985771D01*
X40356666Y-56985771D02*
X40451904Y-56938152D01*
X40451904Y-56938152D02*
X40642380Y-56938152D01*
X40642380Y-56938152D02*
X40737618Y-56985771D01*
X40737618Y-56985771D02*
X40785237Y-57081009D01*
X40785237Y-57081009D02*
X40785237Y-57176247D01*
X40785237Y-57176247D02*
X40309047Y-57271485D01*
X41213809Y-56938152D02*
X41213809Y-57604819D01*
X41213809Y-57033390D02*
X41261428Y-56985771D01*
X41261428Y-56985771D02*
X41356666Y-56938152D01*
X41356666Y-56938152D02*
X41499523Y-56938152D01*
X41499523Y-56938152D02*
X41594761Y-56985771D01*
X41594761Y-56985771D02*
X41642380Y-57081009D01*
X41642380Y-57081009D02*
X41642380Y-57604819D01*
X42404285Y-57985771D02*
X42356666Y-57938152D01*
X42356666Y-57938152D02*
X42261428Y-57795295D01*
X42261428Y-57795295D02*
X42213809Y-57700057D01*
X42213809Y-57700057D02*
X42166190Y-57557200D01*
X42166190Y-57557200D02*
X42118571Y-57319104D01*
X42118571Y-57319104D02*
X42118571Y-57128628D01*
X42118571Y-57128628D02*
X42166190Y-56890533D01*
X42166190Y-56890533D02*
X42213809Y-56747676D01*
X42213809Y-56747676D02*
X42261428Y-56652438D01*
X42261428Y-56652438D02*
X42356666Y-56509580D01*
X42356666Y-56509580D02*
X42404285Y-56461961D01*
X42785238Y-56938152D02*
X42785238Y-57604819D01*
X42785238Y-57033390D02*
X42832857Y-56985771D01*
X42832857Y-56985771D02*
X42928095Y-56938152D01*
X42928095Y-56938152D02*
X43070952Y-56938152D01*
X43070952Y-56938152D02*
X43166190Y-56985771D01*
X43166190Y-56985771D02*
X43213809Y-57081009D01*
X43213809Y-57081009D02*
X43213809Y-57604819D01*
X43594762Y-57985771D02*
X43642381Y-57938152D01*
X43642381Y-57938152D02*
X43737619Y-57795295D01*
X43737619Y-57795295D02*
X43785238Y-57700057D01*
X43785238Y-57700057D02*
X43832857Y-57557200D01*
X43832857Y-57557200D02*
X43880476Y-57319104D01*
X43880476Y-57319104D02*
X43880476Y-57128628D01*
X43880476Y-57128628D02*
X43832857Y-56890533D01*
X43832857Y-56890533D02*
X43785238Y-56747676D01*
X43785238Y-56747676D02*
X43737619Y-56652438D01*
X43737619Y-56652438D02*
X43642381Y-56509580D01*
X43642381Y-56509580D02*
X43594762Y-56461961D01*
X44356667Y-57604819D02*
X44356667Y-56604819D01*
X44451905Y-57223866D02*
X44737619Y-57604819D01*
X44737619Y-56938152D02*
X44356667Y-57319104D01*
X45547143Y-57557200D02*
X45451905Y-57604819D01*
X45451905Y-57604819D02*
X45261429Y-57604819D01*
X45261429Y-57604819D02*
X45166191Y-57557200D01*
X45166191Y-57557200D02*
X45118572Y-57461961D01*
X45118572Y-57461961D02*
X45118572Y-57081009D01*
X45118572Y-57081009D02*
X45166191Y-56985771D01*
X45166191Y-56985771D02*
X45261429Y-56938152D01*
X45261429Y-56938152D02*
X45451905Y-56938152D01*
X45451905Y-56938152D02*
X45547143Y-56985771D01*
X45547143Y-56985771D02*
X45594762Y-57081009D01*
X45594762Y-57081009D02*
X45594762Y-57176247D01*
X45594762Y-57176247D02*
X45118572Y-57271485D01*
X46166191Y-57604819D02*
X46070953Y-57557200D01*
X46070953Y-57557200D02*
X46023334Y-57461961D01*
X46023334Y-57461961D02*
X46023334Y-56604819D01*
X46690001Y-57604819D02*
X46594763Y-57557200D01*
X46594763Y-57557200D02*
X46547144Y-57461961D01*
X46547144Y-57461961D02*
X46547144Y-56604819D01*
X47451906Y-57557200D02*
X47356668Y-57604819D01*
X47356668Y-57604819D02*
X47166192Y-57604819D01*
X47166192Y-57604819D02*
X47070954Y-57557200D01*
X47070954Y-57557200D02*
X47023335Y-57461961D01*
X47023335Y-57461961D02*
X47023335Y-57081009D01*
X47023335Y-57081009D02*
X47070954Y-56985771D01*
X47070954Y-56985771D02*
X47166192Y-56938152D01*
X47166192Y-56938152D02*
X47356668Y-56938152D01*
X47356668Y-56938152D02*
X47451906Y-56985771D01*
X47451906Y-56985771D02*
X47499525Y-57081009D01*
X47499525Y-57081009D02*
X47499525Y-57176247D01*
X47499525Y-57176247D02*
X47023335Y-57271485D01*
X47928097Y-57604819D02*
X47928097Y-56938152D01*
X47928097Y-57128628D02*
X47975716Y-57033390D01*
X47975716Y-57033390D02*
X48023335Y-56985771D01*
X48023335Y-56985771D02*
X48118573Y-56938152D01*
X48118573Y-56938152D02*
X48213811Y-56938152D01*
X48499526Y-56604819D02*
X48499526Y-56795295D01*
X48880478Y-56604819D02*
X48880478Y-56795295D01*
X50070955Y-57223866D02*
X50832860Y-57223866D01*
X51928098Y-56604819D02*
X52261431Y-57604819D01*
X52261431Y-57604819D02*
X52594764Y-56604819D01*
X53451907Y-57604819D02*
X52880479Y-57604819D01*
X53166193Y-57604819D02*
X53166193Y-56604819D01*
X53166193Y-56604819D02*
X53070955Y-56747676D01*
X53070955Y-56747676D02*
X52975717Y-56842914D01*
X52975717Y-56842914D02*
X52880479Y-56890533D01*
X53880479Y-57509580D02*
X53928098Y-57557200D01*
X53928098Y-57557200D02*
X53880479Y-57604819D01*
X53880479Y-57604819D02*
X53832860Y-57557200D01*
X53832860Y-57557200D02*
X53880479Y-57509580D01*
X53880479Y-57509580D02*
X53880479Y-57604819D01*
X54309050Y-56700057D02*
X54356669Y-56652438D01*
X54356669Y-56652438D02*
X54451907Y-56604819D01*
X54451907Y-56604819D02*
X54690002Y-56604819D01*
X54690002Y-56604819D02*
X54785240Y-56652438D01*
X54785240Y-56652438D02*
X54832859Y-56700057D01*
X54832859Y-56700057D02*
X54880478Y-56795295D01*
X54880478Y-56795295D02*
X54880478Y-56890533D01*
X54880478Y-56890533D02*
X54832859Y-57033390D01*
X54832859Y-57033390D02*
X54261431Y-57604819D01*
X54261431Y-57604819D02*
X54880478Y-57604819D01*
X56070955Y-57223866D02*
X56832860Y-57223866D01*
X58261431Y-56604819D02*
X58356669Y-56604819D01*
X58356669Y-56604819D02*
X58451907Y-56652438D01*
X58451907Y-56652438D02*
X58499526Y-56700057D01*
X58499526Y-56700057D02*
X58547145Y-56795295D01*
X58547145Y-56795295D02*
X58594764Y-56985771D01*
X58594764Y-56985771D02*
X58594764Y-57223866D01*
X58594764Y-57223866D02*
X58547145Y-57414342D01*
X58547145Y-57414342D02*
X58499526Y-57509580D01*
X58499526Y-57509580D02*
X58451907Y-57557200D01*
X58451907Y-57557200D02*
X58356669Y-57604819D01*
X58356669Y-57604819D02*
X58261431Y-57604819D01*
X58261431Y-57604819D02*
X58166193Y-57557200D01*
X58166193Y-57557200D02*
X58118574Y-57509580D01*
X58118574Y-57509580D02*
X58070955Y-57414342D01*
X58070955Y-57414342D02*
X58023336Y-57223866D01*
X58023336Y-57223866D02*
X58023336Y-56985771D01*
X58023336Y-56985771D02*
X58070955Y-56795295D01*
X58070955Y-56795295D02*
X58118574Y-56700057D01*
X58118574Y-56700057D02*
X58166193Y-56652438D01*
X58166193Y-56652438D02*
X58261431Y-56604819D01*
X59166193Y-57033390D02*
X59070955Y-56985771D01*
X59070955Y-56985771D02*
X59023336Y-56938152D01*
X59023336Y-56938152D02*
X58975717Y-56842914D01*
X58975717Y-56842914D02*
X58975717Y-56795295D01*
X58975717Y-56795295D02*
X59023336Y-56700057D01*
X59023336Y-56700057D02*
X59070955Y-56652438D01*
X59070955Y-56652438D02*
X59166193Y-56604819D01*
X59166193Y-56604819D02*
X59356669Y-56604819D01*
X59356669Y-56604819D02*
X59451907Y-56652438D01*
X59451907Y-56652438D02*
X59499526Y-56700057D01*
X59499526Y-56700057D02*
X59547145Y-56795295D01*
X59547145Y-56795295D02*
X59547145Y-56842914D01*
X59547145Y-56842914D02*
X59499526Y-56938152D01*
X59499526Y-56938152D02*
X59451907Y-56985771D01*
X59451907Y-56985771D02*
X59356669Y-57033390D01*
X59356669Y-57033390D02*
X59166193Y-57033390D01*
X59166193Y-57033390D02*
X59070955Y-57081009D01*
X59070955Y-57081009D02*
X59023336Y-57128628D01*
X59023336Y-57128628D02*
X58975717Y-57223866D01*
X58975717Y-57223866D02*
X58975717Y-57414342D01*
X58975717Y-57414342D02*
X59023336Y-57509580D01*
X59023336Y-57509580D02*
X59070955Y-57557200D01*
X59070955Y-57557200D02*
X59166193Y-57604819D01*
X59166193Y-57604819D02*
X59356669Y-57604819D01*
X59356669Y-57604819D02*
X59451907Y-57557200D01*
X59451907Y-57557200D02*
X59499526Y-57509580D01*
X59499526Y-57509580D02*
X59547145Y-57414342D01*
X59547145Y-57414342D02*
X59547145Y-57223866D01*
X59547145Y-57223866D02*
X59499526Y-57128628D01*
X59499526Y-57128628D02*
X59451907Y-57081009D01*
X59451907Y-57081009D02*
X59356669Y-57033390D01*
X60690002Y-56557200D02*
X59832860Y-57842914D01*
X60975717Y-56700057D02*
X61023336Y-56652438D01*
X61023336Y-56652438D02*
X61118574Y-56604819D01*
X61118574Y-56604819D02*
X61356669Y-56604819D01*
X61356669Y-56604819D02*
X61451907Y-56652438D01*
X61451907Y-56652438D02*
X61499526Y-56700057D01*
X61499526Y-56700057D02*
X61547145Y-56795295D01*
X61547145Y-56795295D02*
X61547145Y-56890533D01*
X61547145Y-56890533D02*
X61499526Y-57033390D01*
X61499526Y-57033390D02*
X60928098Y-57604819D01*
X60928098Y-57604819D02*
X61547145Y-57604819D01*
X62166193Y-56604819D02*
X62261431Y-56604819D01*
X62261431Y-56604819D02*
X62356669Y-56652438D01*
X62356669Y-56652438D02*
X62404288Y-56700057D01*
X62404288Y-56700057D02*
X62451907Y-56795295D01*
X62451907Y-56795295D02*
X62499526Y-56985771D01*
X62499526Y-56985771D02*
X62499526Y-57223866D01*
X62499526Y-57223866D02*
X62451907Y-57414342D01*
X62451907Y-57414342D02*
X62404288Y-57509580D01*
X62404288Y-57509580D02*
X62356669Y-57557200D01*
X62356669Y-57557200D02*
X62261431Y-57604819D01*
X62261431Y-57604819D02*
X62166193Y-57604819D01*
X62166193Y-57604819D02*
X62070955Y-57557200D01*
X62070955Y-57557200D02*
X62023336Y-57509580D01*
X62023336Y-57509580D02*
X61975717Y-57414342D01*
X61975717Y-57414342D02*
X61928098Y-57223866D01*
X61928098Y-57223866D02*
X61928098Y-56985771D01*
X61928098Y-56985771D02*
X61975717Y-56795295D01*
X61975717Y-56795295D02*
X62023336Y-56700057D01*
X62023336Y-56700057D02*
X62070955Y-56652438D01*
X62070955Y-56652438D02*
X62166193Y-56604819D01*
X62880479Y-56700057D02*
X62928098Y-56652438D01*
X62928098Y-56652438D02*
X63023336Y-56604819D01*
X63023336Y-56604819D02*
X63261431Y-56604819D01*
X63261431Y-56604819D02*
X63356669Y-56652438D01*
X63356669Y-56652438D02*
X63404288Y-56700057D01*
X63404288Y-56700057D02*
X63451907Y-56795295D01*
X63451907Y-56795295D02*
X63451907Y-56890533D01*
X63451907Y-56890533D02*
X63404288Y-57033390D01*
X63404288Y-57033390D02*
X62832860Y-57604819D01*
X62832860Y-57604819D02*
X63451907Y-57604819D01*
X63785241Y-56604819D02*
X64404288Y-56604819D01*
X64404288Y-56604819D02*
X64070955Y-56985771D01*
X64070955Y-56985771D02*
X64213812Y-56985771D01*
X64213812Y-56985771D02*
X64309050Y-57033390D01*
X64309050Y-57033390D02*
X64356669Y-57081009D01*
X64356669Y-57081009D02*
X64404288Y-57176247D01*
X64404288Y-57176247D02*
X64404288Y-57414342D01*
X64404288Y-57414342D02*
X64356669Y-57509580D01*
X64356669Y-57509580D02*
X64309050Y-57557200D01*
X64309050Y-57557200D02*
X64213812Y-57604819D01*
X64213812Y-57604819D02*
X63928098Y-57604819D01*
X63928098Y-57604819D02*
X63832860Y-57557200D01*
X63832860Y-57557200D02*
X63785241Y-57509580D01*
X65594765Y-57223866D02*
X66356670Y-57223866D01*
X67594765Y-57604819D02*
X67594765Y-56604819D01*
X68023336Y-57604819D02*
X68023336Y-57081009D01*
X68023336Y-57081009D02*
X67975717Y-56985771D01*
X67975717Y-56985771D02*
X67880479Y-56938152D01*
X67880479Y-56938152D02*
X67737622Y-56938152D01*
X67737622Y-56938152D02*
X67642384Y-56985771D01*
X67642384Y-56985771D02*
X67594765Y-57033390D01*
X68356670Y-56938152D02*
X68737622Y-56938152D01*
X68499527Y-56604819D02*
X68499527Y-57461961D01*
X68499527Y-57461961D02*
X68547146Y-57557200D01*
X68547146Y-57557200D02*
X68642384Y-57604819D01*
X68642384Y-57604819D02*
X68737622Y-57604819D01*
X68928099Y-56938152D02*
X69309051Y-56938152D01*
X69070956Y-56604819D02*
X69070956Y-57461961D01*
X69070956Y-57461961D02*
X69118575Y-57557200D01*
X69118575Y-57557200D02*
X69213813Y-57604819D01*
X69213813Y-57604819D02*
X69309051Y-57604819D01*
X69642385Y-56938152D02*
X69642385Y-57938152D01*
X69642385Y-56985771D02*
X69737623Y-56938152D01*
X69737623Y-56938152D02*
X69928099Y-56938152D01*
X69928099Y-56938152D02*
X70023337Y-56985771D01*
X70023337Y-56985771D02*
X70070956Y-57033390D01*
X70070956Y-57033390D02*
X70118575Y-57128628D01*
X70118575Y-57128628D02*
X70118575Y-57414342D01*
X70118575Y-57414342D02*
X70070956Y-57509580D01*
X70070956Y-57509580D02*
X70023337Y-57557200D01*
X70023337Y-57557200D02*
X69928099Y-57604819D01*
X69928099Y-57604819D02*
X69737623Y-57604819D01*
X69737623Y-57604819D02*
X69642385Y-57557200D01*
X70499528Y-57557200D02*
X70594766Y-57604819D01*
X70594766Y-57604819D02*
X70785242Y-57604819D01*
X70785242Y-57604819D02*
X70880480Y-57557200D01*
X70880480Y-57557200D02*
X70928099Y-57461961D01*
X70928099Y-57461961D02*
X70928099Y-57414342D01*
X70928099Y-57414342D02*
X70880480Y-57319104D01*
X70880480Y-57319104D02*
X70785242Y-57271485D01*
X70785242Y-57271485D02*
X70642385Y-57271485D01*
X70642385Y-57271485D02*
X70547147Y-57223866D01*
X70547147Y-57223866D02*
X70499528Y-57128628D01*
X70499528Y-57128628D02*
X70499528Y-57081009D01*
X70499528Y-57081009D02*
X70547147Y-56985771D01*
X70547147Y-56985771D02*
X70642385Y-56938152D01*
X70642385Y-56938152D02*
X70785242Y-56938152D01*
X70785242Y-56938152D02*
X70880480Y-56985771D01*
X71356671Y-57509580D02*
X71404290Y-57557200D01*
X71404290Y-57557200D02*
X71356671Y-57604819D01*
X71356671Y-57604819D02*
X71309052Y-57557200D01*
X71309052Y-57557200D02*
X71356671Y-57509580D01*
X71356671Y-57509580D02*
X71356671Y-57604819D01*
X71356671Y-56985771D02*
X71404290Y-57033390D01*
X71404290Y-57033390D02*
X71356671Y-57081009D01*
X71356671Y-57081009D02*
X71309052Y-57033390D01*
X71309052Y-57033390D02*
X71356671Y-56985771D01*
X71356671Y-56985771D02*
X71356671Y-57081009D01*
X72547146Y-56557200D02*
X71690004Y-57842914D01*
X73594765Y-56557200D02*
X72737623Y-57842914D01*
X73832861Y-56938152D02*
X74023337Y-57604819D01*
X74023337Y-57604819D02*
X74213813Y-57128628D01*
X74213813Y-57128628D02*
X74404289Y-57604819D01*
X74404289Y-57604819D02*
X74594765Y-56938152D01*
X74880480Y-56938152D02*
X75070956Y-57604819D01*
X75070956Y-57604819D02*
X75261432Y-57128628D01*
X75261432Y-57128628D02*
X75451908Y-57604819D01*
X75451908Y-57604819D02*
X75642384Y-56938152D01*
X75928099Y-56938152D02*
X76118575Y-57604819D01*
X76118575Y-57604819D02*
X76309051Y-57128628D01*
X76309051Y-57128628D02*
X76499527Y-57604819D01*
X76499527Y-57604819D02*
X76690003Y-56938152D01*
X77070956Y-57509580D02*
X77118575Y-57557200D01*
X77118575Y-57557200D02*
X77070956Y-57604819D01*
X77070956Y-57604819D02*
X77023337Y-57557200D01*
X77023337Y-57557200D02*
X77070956Y-57509580D01*
X77070956Y-57509580D02*
X77070956Y-57604819D01*
X77975717Y-57604819D02*
X77975717Y-57081009D01*
X77975717Y-57081009D02*
X77928098Y-56985771D01*
X77928098Y-56985771D02*
X77832860Y-56938152D01*
X77832860Y-56938152D02*
X77642384Y-56938152D01*
X77642384Y-56938152D02*
X77547146Y-56985771D01*
X77975717Y-57557200D02*
X77880479Y-57604819D01*
X77880479Y-57604819D02*
X77642384Y-57604819D01*
X77642384Y-57604819D02*
X77547146Y-57557200D01*
X77547146Y-57557200D02*
X77499527Y-57461961D01*
X77499527Y-57461961D02*
X77499527Y-57366723D01*
X77499527Y-57366723D02*
X77547146Y-57271485D01*
X77547146Y-57271485D02*
X77642384Y-57223866D01*
X77642384Y-57223866D02*
X77880479Y-57223866D01*
X77880479Y-57223866D02*
X77975717Y-57176247D01*
X78451908Y-56938152D02*
X78451908Y-57604819D01*
X78451908Y-57033390D02*
X78499527Y-56985771D01*
X78499527Y-56985771D02*
X78594765Y-56938152D01*
X78594765Y-56938152D02*
X78737622Y-56938152D01*
X78737622Y-56938152D02*
X78832860Y-56985771D01*
X78832860Y-56985771D02*
X78880479Y-57081009D01*
X78880479Y-57081009D02*
X78880479Y-57604819D01*
X79785241Y-57604819D02*
X79785241Y-56604819D01*
X79785241Y-57557200D02*
X79690003Y-57604819D01*
X79690003Y-57604819D02*
X79499527Y-57604819D01*
X79499527Y-57604819D02*
X79404289Y-57557200D01*
X79404289Y-57557200D02*
X79356670Y-57509580D01*
X79356670Y-57509580D02*
X79309051Y-57414342D01*
X79309051Y-57414342D02*
X79309051Y-57128628D01*
X79309051Y-57128628D02*
X79356670Y-57033390D01*
X79356670Y-57033390D02*
X79404289Y-56985771D01*
X79404289Y-56985771D02*
X79499527Y-56938152D01*
X79499527Y-56938152D02*
X79690003Y-56938152D01*
X79690003Y-56938152D02*
X79785241Y-56985771D01*
X80261432Y-57604819D02*
X80261432Y-56938152D01*
X80261432Y-57128628D02*
X80309051Y-57033390D01*
X80309051Y-57033390D02*
X80356670Y-56985771D01*
X80356670Y-56985771D02*
X80451908Y-56938152D01*
X80451908Y-56938152D02*
X80547146Y-56938152D01*
X81261432Y-57557200D02*
X81166194Y-57604819D01*
X81166194Y-57604819D02*
X80975718Y-57604819D01*
X80975718Y-57604819D02*
X80880480Y-57557200D01*
X80880480Y-57557200D02*
X80832861Y-57461961D01*
X80832861Y-57461961D02*
X80832861Y-57081009D01*
X80832861Y-57081009D02*
X80880480Y-56985771D01*
X80880480Y-56985771D02*
X80975718Y-56938152D01*
X80975718Y-56938152D02*
X81166194Y-56938152D01*
X81166194Y-56938152D02*
X81261432Y-56985771D01*
X81261432Y-56985771D02*
X81309051Y-57081009D01*
X81309051Y-57081009D02*
X81309051Y-57176247D01*
X81309051Y-57176247D02*
X80832861Y-57271485D01*
X82166194Y-57604819D02*
X82166194Y-57081009D01*
X82166194Y-57081009D02*
X82118575Y-56985771D01*
X82118575Y-56985771D02*
X82023337Y-56938152D01*
X82023337Y-56938152D02*
X81832861Y-56938152D01*
X81832861Y-56938152D02*
X81737623Y-56985771D01*
X82166194Y-57557200D02*
X82070956Y-57604819D01*
X82070956Y-57604819D02*
X81832861Y-57604819D01*
X81832861Y-57604819D02*
X81737623Y-57557200D01*
X81737623Y-57557200D02*
X81690004Y-57461961D01*
X81690004Y-57461961D02*
X81690004Y-57366723D01*
X81690004Y-57366723D02*
X81737623Y-57271485D01*
X81737623Y-57271485D02*
X81832861Y-57223866D01*
X81832861Y-57223866D02*
X82070956Y-57223866D01*
X82070956Y-57223866D02*
X82166194Y-57176247D01*
X82594766Y-57557200D02*
X82690004Y-57604819D01*
X82690004Y-57604819D02*
X82880480Y-57604819D01*
X82880480Y-57604819D02*
X82975718Y-57557200D01*
X82975718Y-57557200D02*
X83023337Y-57461961D01*
X83023337Y-57461961D02*
X83023337Y-57414342D01*
X83023337Y-57414342D02*
X82975718Y-57319104D01*
X82975718Y-57319104D02*
X82880480Y-57271485D01*
X82880480Y-57271485D02*
X82737623Y-57271485D01*
X82737623Y-57271485D02*
X82642385Y-57223866D01*
X82642385Y-57223866D02*
X82594766Y-57128628D01*
X82594766Y-57128628D02*
X82594766Y-57081009D01*
X82594766Y-57081009D02*
X82642385Y-56985771D01*
X82642385Y-56985771D02*
X82737623Y-56938152D01*
X82737623Y-56938152D02*
X82880480Y-56938152D01*
X82880480Y-56938152D02*
X82975718Y-56985771D01*
X83451909Y-57223866D02*
X84213814Y-57223866D01*
X84594766Y-56938152D02*
X84785242Y-57604819D01*
X84785242Y-57604819D02*
X84975718Y-57128628D01*
X84975718Y-57128628D02*
X85166194Y-57604819D01*
X85166194Y-57604819D02*
X85356670Y-56938152D01*
X86166194Y-57604819D02*
X86166194Y-57081009D01*
X86166194Y-57081009D02*
X86118575Y-56985771D01*
X86118575Y-56985771D02*
X86023337Y-56938152D01*
X86023337Y-56938152D02*
X85832861Y-56938152D01*
X85832861Y-56938152D02*
X85737623Y-56985771D01*
X86166194Y-57557200D02*
X86070956Y-57604819D01*
X86070956Y-57604819D02*
X85832861Y-57604819D01*
X85832861Y-57604819D02*
X85737623Y-57557200D01*
X85737623Y-57557200D02*
X85690004Y-57461961D01*
X85690004Y-57461961D02*
X85690004Y-57366723D01*
X85690004Y-57366723D02*
X85737623Y-57271485D01*
X85737623Y-57271485D02*
X85832861Y-57223866D01*
X85832861Y-57223866D02*
X86070956Y-57223866D01*
X86070956Y-57223866D02*
X86166194Y-57176247D01*
X86642385Y-57604819D02*
X86642385Y-56604819D01*
X87070956Y-57604819D02*
X87070956Y-57081009D01*
X87070956Y-57081009D02*
X87023337Y-56985771D01*
X87023337Y-56985771D02*
X86928099Y-56938152D01*
X86928099Y-56938152D02*
X86785242Y-56938152D01*
X86785242Y-56938152D02*
X86690004Y-56985771D01*
X86690004Y-56985771D02*
X86642385Y-57033390D01*
X87690004Y-57604819D02*
X87594766Y-57557200D01*
X87594766Y-57557200D02*
X87547147Y-57461961D01*
X87547147Y-57461961D02*
X87547147Y-56604819D01*
X88070957Y-57509580D02*
X88118576Y-57557200D01*
X88118576Y-57557200D02*
X88070957Y-57604819D01*
X88070957Y-57604819D02*
X88023338Y-57557200D01*
X88023338Y-57557200D02*
X88070957Y-57509580D01*
X88070957Y-57509580D02*
X88070957Y-57604819D01*
X88975718Y-57604819D02*
X88975718Y-56604819D01*
X88975718Y-57557200D02*
X88880480Y-57604819D01*
X88880480Y-57604819D02*
X88690004Y-57604819D01*
X88690004Y-57604819D02*
X88594766Y-57557200D01*
X88594766Y-57557200D02*
X88547147Y-57509580D01*
X88547147Y-57509580D02*
X88499528Y-57414342D01*
X88499528Y-57414342D02*
X88499528Y-57128628D01*
X88499528Y-57128628D02*
X88547147Y-57033390D01*
X88547147Y-57033390D02*
X88594766Y-56985771D01*
X88594766Y-56985771D02*
X88690004Y-56938152D01*
X88690004Y-56938152D02*
X88880480Y-56938152D01*
X88880480Y-56938152D02*
X88975718Y-56985771D01*
X89832861Y-57557200D02*
X89737623Y-57604819D01*
X89737623Y-57604819D02*
X89547147Y-57604819D01*
X89547147Y-57604819D02*
X89451909Y-57557200D01*
X89451909Y-57557200D02*
X89404290Y-57461961D01*
X89404290Y-57461961D02*
X89404290Y-57081009D01*
X89404290Y-57081009D02*
X89451909Y-56985771D01*
X89451909Y-56985771D02*
X89547147Y-56938152D01*
X89547147Y-56938152D02*
X89737623Y-56938152D01*
X89737623Y-56938152D02*
X89832861Y-56985771D01*
X89832861Y-56985771D02*
X89880480Y-57081009D01*
X89880480Y-57081009D02*
X89880480Y-57176247D01*
X89880480Y-57176247D02*
X89404290Y-57271485D01*
X91023337Y-56557200D02*
X90166195Y-57842914D01*
D12*
%TO.C,G\u002A\u002A\u002A*%
G36*
X93387444Y-54293992D02*
G01*
X93399557Y-54298726D01*
X93411306Y-54308649D01*
X93423975Y-54326923D01*
X93438847Y-54356711D01*
X93457207Y-54401177D01*
X93480340Y-54463481D01*
X93509528Y-54546789D01*
X93546058Y-54654261D01*
X93591211Y-54789060D01*
X93603850Y-54826956D01*
X93645450Y-54952584D01*
X93683490Y-55069045D01*
X93716744Y-55172467D01*
X93743989Y-55258980D01*
X93764003Y-55324713D01*
X93775559Y-55365794D01*
X93777964Y-55377711D01*
X93765222Y-55406568D01*
X93736837Y-55433064D01*
X93692342Y-55448767D01*
X93653226Y-55433388D01*
X93618827Y-55386374D01*
X93589281Y-55309826D01*
X93558894Y-55209466D01*
X93413442Y-55207638D01*
X93343731Y-55206807D01*
X93283694Y-55206174D01*
X93243142Y-55205839D01*
X93235088Y-55205810D01*
X93200333Y-55206658D01*
X93187077Y-55207638D01*
X93174712Y-55223003D01*
X93156670Y-55261592D01*
X93136804Y-55315136D01*
X93136327Y-55316565D01*
X93105108Y-55392964D01*
X93071665Y-55438141D01*
X93033905Y-55453772D01*
X92989732Y-55441538D01*
X92984214Y-55438459D01*
X92962074Y-55409868D01*
X92955425Y-55377069D01*
X92960579Y-55348074D01*
X92975030Y-55293766D01*
X92997261Y-55218628D01*
X93025756Y-55127145D01*
X93058998Y-55023802D01*
X93062349Y-55013628D01*
X93240567Y-55013628D01*
X93251016Y-55022477D01*
X93279654Y-55026916D01*
X93332523Y-55028408D01*
X93364497Y-55028507D01*
X93496123Y-55028507D01*
X93439573Y-54859887D01*
X93415416Y-54788320D01*
X93394383Y-54726860D01*
X93379111Y-54683165D01*
X93372998Y-54666590D01*
X93364098Y-54670809D01*
X93347192Y-54703554D01*
X93323485Y-54761764D01*
X93294179Y-54842379D01*
X93260479Y-54942339D01*
X93242266Y-54998907D01*
X93240567Y-55013628D01*
X93062349Y-55013628D01*
X93095471Y-54913082D01*
X93133658Y-54799469D01*
X93172042Y-54687449D01*
X93209107Y-54581505D01*
X93243336Y-54486122D01*
X93273213Y-54405783D01*
X93297221Y-54344974D01*
X93313844Y-54308178D01*
X93319930Y-54299287D01*
X93354368Y-54290913D01*
X93387444Y-54293992D01*
G37*
G36*
X94080596Y-54305860D02*
G01*
X94096938Y-54325237D01*
X94108112Y-54351936D01*
X94125701Y-54405153D01*
X94148096Y-54479499D01*
X94173686Y-54569583D01*
X94200860Y-54670015D01*
X94207581Y-54695603D01*
X94233816Y-54793275D01*
X94257915Y-54877695D01*
X94278532Y-54944568D01*
X94294320Y-54989602D01*
X94303934Y-55008502D01*
X94305581Y-55008168D01*
X94313281Y-54985879D01*
X94327551Y-54937543D01*
X94346753Y-54868974D01*
X94369248Y-54785985D01*
X94385620Y-54724168D01*
X94419170Y-54597256D01*
X94446023Y-54498604D01*
X94467462Y-54424557D01*
X94484768Y-54371455D01*
X94499225Y-54335642D01*
X94512116Y-54313459D01*
X94524724Y-54301249D01*
X94535766Y-54296109D01*
X94584944Y-54292014D01*
X94622765Y-54316305D01*
X94651747Y-54370816D01*
X94656094Y-54383585D01*
X94668795Y-54426237D01*
X94687582Y-54493248D01*
X94710397Y-54577098D01*
X94735184Y-54670268D01*
X94749278Y-54724168D01*
X94772864Y-54813645D01*
X94794335Y-54892618D01*
X94812059Y-54955276D01*
X94824406Y-54995811D01*
X94828899Y-55007776D01*
X94836174Y-54998839D01*
X94850137Y-54962299D01*
X94869429Y-54902458D01*
X94892689Y-54823614D01*
X94918555Y-54730067D01*
X94927823Y-54695211D01*
X94955322Y-54593153D01*
X94981571Y-54500114D01*
X95004955Y-54421485D01*
X95023860Y-54362653D01*
X95036671Y-54329007D01*
X95038685Y-54325237D01*
X95073343Y-54293720D01*
X95113770Y-54288208D01*
X95150245Y-54305679D01*
X95173045Y-54343111D01*
X95176280Y-54367997D01*
X95172172Y-54392744D01*
X95160692Y-54444353D01*
X95143105Y-54517939D01*
X95120674Y-54608616D01*
X95094665Y-54711499D01*
X95066341Y-54821702D01*
X95036967Y-54934340D01*
X95007808Y-55044528D01*
X94980127Y-55147379D01*
X94955190Y-55238009D01*
X94934261Y-55311532D01*
X94919312Y-55360865D01*
X94891479Y-55421060D01*
X94856357Y-55449542D01*
X94813117Y-55446858D01*
X94799087Y-55440406D01*
X94786939Y-55432391D01*
X94775848Y-55419884D01*
X94764566Y-55399167D01*
X94751843Y-55366526D01*
X94736432Y-55318243D01*
X94717084Y-55250602D01*
X94692551Y-55159887D01*
X94661583Y-55042383D01*
X94648276Y-54991493D01*
X94624377Y-54901772D01*
X94602848Y-54824277D01*
X94585188Y-54764139D01*
X94572895Y-54726492D01*
X94567840Y-54716003D01*
X94561356Y-54731183D01*
X94547992Y-54773609D01*
X94529075Y-54838666D01*
X94505937Y-54921739D01*
X94479905Y-55018213D01*
X94469782Y-55056472D01*
X94435699Y-55182905D01*
X94407192Y-55280584D01*
X94382800Y-55352898D01*
X94361062Y-55403232D01*
X94340517Y-55434974D01*
X94319704Y-55451510D01*
X94297338Y-55456228D01*
X94267403Y-55445393D01*
X94247986Y-55430376D01*
X94227505Y-55407574D01*
X94222135Y-55398596D01*
X94218033Y-55381841D01*
X94206416Y-55337204D01*
X94188315Y-55268572D01*
X94164759Y-55179837D01*
X94136781Y-55074887D01*
X94105411Y-54957612D01*
X94090539Y-54902135D01*
X94057743Y-54778561D01*
X94027930Y-54663678D01*
X94002156Y-54561756D01*
X93981474Y-54477062D01*
X93966941Y-54413866D01*
X93959611Y-54376437D01*
X93958932Y-54369654D01*
X93971272Y-54322657D01*
X94001990Y-54294323D01*
X94041595Y-54287706D01*
X94080596Y-54305860D01*
G37*
G36*
X93285923Y-52841723D02*
G01*
X93285365Y-52936427D01*
X93286134Y-53022427D01*
X93288074Y-53093086D01*
X93291028Y-53141769D01*
X93293397Y-53158401D01*
X93301165Y-53181750D01*
X93315081Y-53194944D01*
X93343187Y-53200872D01*
X93393529Y-53202426D01*
X93416047Y-53202471D01*
X93475357Y-53201718D01*
X93509815Y-53197530D01*
X93527465Y-53187017D01*
X93536350Y-53167289D01*
X93538696Y-53158401D01*
X93542221Y-53127405D01*
X93544833Y-53070153D01*
X93546375Y-52993282D01*
X93546690Y-52903429D01*
X93546170Y-52841723D01*
X93542583Y-52569116D01*
X93947541Y-52569116D01*
X93943954Y-52841723D01*
X93943396Y-52936427D01*
X93944165Y-53022427D01*
X93946105Y-53093086D01*
X93949059Y-53141769D01*
X93951428Y-53158401D01*
X93959197Y-53181750D01*
X93973112Y-53194944D01*
X94001218Y-53200872D01*
X94051560Y-53202426D01*
X94074078Y-53202471D01*
X94133388Y-53201718D01*
X94167846Y-53197530D01*
X94185496Y-53187017D01*
X94194381Y-53167289D01*
X94196727Y-53158401D01*
X94200252Y-53127405D01*
X94202864Y-53070153D01*
X94204406Y-52993282D01*
X94204721Y-52903429D01*
X94204201Y-52841723D01*
X94200614Y-52569116D01*
X94605572Y-52569116D01*
X94601985Y-52841723D01*
X94601427Y-52936427D01*
X94602196Y-53022427D01*
X94604136Y-53093086D01*
X94607090Y-53141769D01*
X94609459Y-53158401D01*
X94617228Y-53181750D01*
X94631143Y-53194944D01*
X94659249Y-53200872D01*
X94709591Y-53202426D01*
X94732109Y-53202471D01*
X94791419Y-53201718D01*
X94825877Y-53197530D01*
X94843527Y-53187017D01*
X94852413Y-53167289D01*
X94854758Y-53158401D01*
X94858283Y-53127405D01*
X94860895Y-53070153D01*
X94862437Y-52993282D01*
X94862752Y-52903429D01*
X94862232Y-52841723D01*
X94858645Y-52569116D01*
X95263603Y-52569116D01*
X95260016Y-52841723D01*
X95259458Y-52936427D01*
X95260227Y-53022427D01*
X95262167Y-53093086D01*
X95265121Y-53141769D01*
X95267490Y-53158401D01*
X95278551Y-53202471D01*
X95735606Y-53202471D01*
X95735606Y-53678584D01*
X96052284Y-53677619D01*
X96368961Y-53676655D01*
X96368961Y-54077251D01*
X96052284Y-54076287D01*
X95735606Y-54075322D01*
X95735606Y-54336615D01*
X96052284Y-54335651D01*
X96368961Y-54334686D01*
X96368961Y-54735282D01*
X96052284Y-54734318D01*
X95735606Y-54733353D01*
X95735606Y-54994646D01*
X96052284Y-54993682D01*
X96368961Y-54992717D01*
X96368961Y-55393313D01*
X96052284Y-55392349D01*
X95735606Y-55391384D01*
X95735606Y-55652677D01*
X96052284Y-55651713D01*
X96368961Y-55650748D01*
X96368961Y-56051345D01*
X96052284Y-56050380D01*
X95735606Y-56049415D01*
X95735606Y-56119145D01*
X95734419Y-56147637D01*
X95728473Y-56172627D01*
X95714193Y-56199155D01*
X95688002Y-56232261D01*
X95646323Y-56276985D01*
X95585581Y-56338369D01*
X95566705Y-56357202D01*
X95499100Y-56423841D01*
X95449432Y-56470294D01*
X95412866Y-56500124D01*
X95384566Y-56516892D01*
X95359697Y-56524160D01*
X95338177Y-56525528D01*
X95311119Y-56527133D01*
X95290770Y-56534639D01*
X95276255Y-56552080D01*
X95266701Y-56583494D01*
X95261233Y-56632914D01*
X95258977Y-56704377D01*
X95259058Y-56801918D01*
X95260016Y-56886276D01*
X95263603Y-57158883D01*
X94858645Y-57158883D01*
X94862232Y-56886276D01*
X94862791Y-56791573D01*
X94862021Y-56705573D01*
X94860081Y-56634913D01*
X94857127Y-56586230D01*
X94854758Y-56569598D01*
X94846990Y-56546249D01*
X94833075Y-56533056D01*
X94804968Y-56527127D01*
X94754626Y-56525574D01*
X94732109Y-56525528D01*
X94672798Y-56526282D01*
X94638340Y-56530470D01*
X94620690Y-56540982D01*
X94611805Y-56560710D01*
X94609459Y-56569598D01*
X94605934Y-56600594D01*
X94603322Y-56657846D01*
X94601781Y-56734717D01*
X94601465Y-56824570D01*
X94601985Y-56886276D01*
X94605572Y-57158883D01*
X94200614Y-57158883D01*
X94204201Y-56886276D01*
X94204759Y-56791573D01*
X94203990Y-56705573D01*
X94202050Y-56634913D01*
X94199096Y-56586230D01*
X94196727Y-56569598D01*
X94188959Y-56546249D01*
X94175043Y-56533056D01*
X94146937Y-56527127D01*
X94096595Y-56525574D01*
X94074078Y-56525528D01*
X94014767Y-56526282D01*
X93980309Y-56530470D01*
X93962659Y-56540982D01*
X93953774Y-56560710D01*
X93951428Y-56569598D01*
X93947903Y-56600594D01*
X93945291Y-56657846D01*
X93943749Y-56734717D01*
X93943434Y-56824570D01*
X93943954Y-56886276D01*
X93947541Y-57158883D01*
X93542583Y-57158883D01*
X93546170Y-56886276D01*
X93546728Y-56791573D01*
X93545959Y-56705573D01*
X93544019Y-56634913D01*
X93541065Y-56586230D01*
X93538696Y-56569598D01*
X93530928Y-56546249D01*
X93517012Y-56533056D01*
X93488906Y-56527127D01*
X93438564Y-56525574D01*
X93416047Y-56525528D01*
X93356736Y-56526282D01*
X93322278Y-56530470D01*
X93304628Y-56540982D01*
X93295743Y-56560710D01*
X93293397Y-56569598D01*
X93289873Y-56600594D01*
X93287266Y-56657846D01*
X93285730Y-56734717D01*
X93285422Y-56824569D01*
X93285947Y-56886276D01*
X93289558Y-57158883D01*
X93089590Y-57163502D01*
X93012732Y-57164286D01*
X92949352Y-57163045D01*
X92905812Y-57160042D01*
X92888473Y-57155535D01*
X92888408Y-57155277D01*
X92888132Y-57135228D01*
X92888152Y-57088134D01*
X92888447Y-57019850D01*
X92888994Y-56936231D01*
X92889461Y-56878051D01*
X92889563Y-56784699D01*
X92888365Y-56700026D01*
X92886060Y-56630813D01*
X92882840Y-56583841D01*
X92880665Y-56569598D01*
X92869604Y-56525528D01*
X92396894Y-56525528D01*
X92392854Y-56278766D01*
X92392383Y-56249978D01*
X92387873Y-55974427D01*
X92108210Y-55970861D01*
X92013795Y-55969647D01*
X91929495Y-55968543D01*
X91861409Y-55967632D01*
X91815635Y-55966995D01*
X91799758Y-55966748D01*
X91787639Y-55963498D01*
X91779463Y-55950746D01*
X91774473Y-55923178D01*
X91771910Y-55875477D01*
X91771018Y-55802326D01*
X91770959Y-55764680D01*
X91770949Y-55563158D01*
X92084244Y-55568823D01*
X92397538Y-55574488D01*
X92392706Y-55445442D01*
X92387873Y-55316396D01*
X92108210Y-55312830D01*
X92013795Y-55311616D01*
X91929495Y-55310512D01*
X91861409Y-55309601D01*
X91815635Y-55308964D01*
X91799758Y-55308717D01*
X91787639Y-55305467D01*
X91779463Y-55292715D01*
X91774473Y-55265147D01*
X91771910Y-55217445D01*
X91771018Y-55144294D01*
X91770959Y-55106649D01*
X91770949Y-54905127D01*
X92084244Y-54910792D01*
X92397538Y-54916457D01*
X92392706Y-54787411D01*
X92387873Y-54658365D01*
X92108210Y-54654799D01*
X92013795Y-54653584D01*
X91929495Y-54652481D01*
X91861409Y-54651570D01*
X91815635Y-54650933D01*
X91799758Y-54650686D01*
X91787639Y-54647435D01*
X91779463Y-54634684D01*
X91774473Y-54607116D01*
X91771910Y-54559414D01*
X91771018Y-54486263D01*
X91770959Y-54448618D01*
X91770949Y-54247095D01*
X92084244Y-54252761D01*
X92397538Y-54258426D01*
X92392706Y-54129380D01*
X92387873Y-54000334D01*
X92108210Y-53996768D01*
X92013795Y-53995553D01*
X91929495Y-53994450D01*
X91861409Y-53993539D01*
X91815635Y-53992902D01*
X91799758Y-53992655D01*
X91787639Y-53989404D01*
X91779463Y-53976653D01*
X91774473Y-53949085D01*
X91771910Y-53901383D01*
X91771018Y-53828232D01*
X91770959Y-53790586D01*
X91770949Y-53589064D01*
X92083524Y-53594718D01*
X92396098Y-53600372D01*
X92396098Y-53449233D01*
X92642860Y-53449233D01*
X92642860Y-56278766D01*
X95216719Y-56278766D01*
X95352782Y-56143411D01*
X95488844Y-56008055D01*
X95488844Y-53449233D01*
X92642860Y-53449233D01*
X92396098Y-53449233D01*
X92396098Y-53202471D01*
X92869604Y-53202471D01*
X92880665Y-53158401D01*
X92884190Y-53127405D01*
X92886802Y-53070153D01*
X92888344Y-52993282D01*
X92888659Y-52903429D01*
X92888139Y-52841723D01*
X92884552Y-52569116D01*
X93289510Y-52569116D01*
X93285923Y-52841723D01*
G37*
%TD*%
D13*
%TO.C,R7*%
X75565000Y-53340000D03*
D14*
X75565000Y-43180000D03*
%TD*%
D15*
%TO.C,D4*%
X64780000Y-36830000D03*
D16*
X62240000Y-36830000D03*
%TD*%
D17*
%TO.C,J1*%
X24130000Y-50800000D03*
D18*
X24130000Y-48300000D03*
%TD*%
D19*
%TO.C,D1*%
X29845000Y-38735000D03*
D20*
X29845000Y-28575000D03*
%TD*%
D15*
%TO.C,D8*%
X75560000Y-38735000D03*
D16*
X78100000Y-38735000D03*
%TD*%
D13*
%TO.C,C6*%
X88900000Y-26670000D03*
X83900000Y-26670000D03*
%TD*%
D21*
%TO.C,C4*%
X64140000Y-29250000D03*
D13*
X64140000Y-31750000D03*
%TD*%
%TO.C,R5*%
X64770000Y-53340000D03*
D14*
X64770000Y-43180000D03*
%TD*%
D13*
%TO.C,R2*%
X57790000Y-38100000D03*
D14*
X47630000Y-38100000D03*
%TD*%
D13*
%TO.C,C2*%
X47630000Y-29290000D03*
X47630000Y-34290000D03*
%TD*%
D19*
%TO.C,D2*%
X33655000Y-24765000D03*
D20*
X43815000Y-24765000D03*
%TD*%
D13*
%TO.C,R3*%
X35560000Y-43180000D03*
D14*
X35560000Y-53340000D03*
%TD*%
D13*
%TO.C,R6*%
X69850000Y-43180000D03*
D14*
X69850000Y-53340000D03*
%TD*%
D22*
%TO.C,U1*%
X55885000Y-30520000D03*
D23*
X53345000Y-33060000D03*
X50805000Y-30520000D03*
%TD*%
D13*
%TO.C,C3*%
X59060000Y-29250000D03*
X59060000Y-34250000D03*
%TD*%
D19*
%TO.C,D3*%
X50800000Y-24765000D03*
D20*
X60960000Y-24765000D03*
%TD*%
D13*
%TO.C,R4*%
X39370000Y-53340000D03*
D14*
X39370000Y-43180000D03*
%TD*%
D15*
%TO.C,D7*%
X69845000Y-38735000D03*
D16*
X72385000Y-38735000D03*
%TD*%
D21*
%TO.C,D5*%
X31750000Y-53340000D03*
D14*
X31750000Y-43180000D03*
%TD*%
D21*
%TO.C,U2*%
X81290000Y-30485000D03*
D14*
X81290000Y-33025000D03*
X81290000Y-35565000D03*
X81290000Y-38105000D03*
X81290000Y-40645000D03*
X81290000Y-43185000D03*
X81290000Y-45725000D03*
X81290000Y-48265000D03*
X81290000Y-50805000D03*
X81290000Y-53345000D03*
X88910000Y-53345000D03*
X88910000Y-50805000D03*
X88910000Y-48265000D03*
X88910000Y-45725000D03*
X88910000Y-43185000D03*
X88910000Y-40645000D03*
X88910000Y-38105000D03*
X88910000Y-35565000D03*
X88910000Y-33025000D03*
X88910000Y-30485000D03*
%TD*%
D24*
%TO.C,J3*%
X71135000Y-33585000D03*
D25*
X73675000Y-33585000D03*
X76215000Y-33585000D03*
%TD*%
D13*
%TO.C,C5*%
X43180000Y-53260000D03*
X43180000Y-48260000D03*
%TD*%
D26*
%TO.C,C1*%
X40640000Y-30512323D03*
D27*
X40640000Y-35512323D03*
%TD*%
D13*
%TO.C,R1*%
X33655000Y-38735000D03*
D14*
X33655000Y-28575000D03*
%TD*%
D24*
%TO.C,J2*%
X59040000Y-42545000D03*
D25*
X59040000Y-45085000D03*
X56500000Y-42545000D03*
X56500000Y-45085000D03*
X53960000Y-42545000D03*
X53960000Y-45085000D03*
%TD*%
D21*
%TO.C,D6*%
X46990000Y-53340000D03*
D14*
X46990000Y-43180000D03*
%TD*%
D24*
%TO.C,J4*%
X95250000Y-27940000D03*
D25*
X95250000Y-30480000D03*
X95250000Y-33020000D03*
X95250000Y-35560000D03*
X95250000Y-38100000D03*
X95250000Y-40640000D03*
X95250000Y-43180000D03*
X95250000Y-45720000D03*
X95250000Y-48260000D03*
X95250000Y-50800000D03*
%TD*%
D24*
%TO.C,J5*%
X24130000Y-27940000D03*
D25*
X24130000Y-30480000D03*
X24130000Y-33020000D03*
X24130000Y-35560000D03*
X24130000Y-38100000D03*
%TD*%
%LPD*%
M02*
