M48
INCH
T1C0.0197
T2C0.0315
T3C0.0354
T4C0.0394
T5C0.0433
%
G90
G05
T1
X0.85Y-2.0
X0.875Y-0.875
X0.875Y-2.075
X0.875Y-2.225
X0.95Y-1.675
X0.95Y-2.1
X1.025Y-2.075
X1.05Y-2.0
X1.15Y-1.9
X1.175Y-1.25
X1.325Y-1.25
X1.325Y-1.4
X1.475Y-1.625
X1.475Y-1.775
X1.5Y-1.4
X1.525Y-1.325
X1.525Y-1.475
X1.55Y-1.6
X1.55Y-1.8
X1.6Y-1.3
X1.6Y-1.5
X1.6Y-1.9016
X1.625Y-0.975
X1.625Y-1.625
X1.625Y-1.775
X1.625Y-1.9766
X1.65Y-1.05
X1.65Y-1.7
X1.675Y-1.325
X1.675Y-1.475
X1.7Y-1.4
X1.7Y-2.0016
X1.725Y-1.075
X1.75Y-1.7
X1.775Y-1.625
X1.775Y-1.775
X1.775Y-1.9766
X1.8Y-1.05
X1.8Y-1.9016
X1.825Y-0.975
X1.85Y-1.6
X1.85Y-1.8
X1.925Y-1.625
X1.925Y-1.775
X1.95Y-1.7
X1.9998Y-1.3
X2.0248Y-1.375
X2.025Y-1.775
X2.05Y-1.7
X2.05Y-1.85
X2.0998Y-1.2
X2.0998Y-1.4
X2.125Y-1.875
X2.125Y-2.05
X2.2Y-1.85
X2.325Y-2.05
X2.4252Y-1.25
X2.4502Y-1.325
X2.5252Y-1.35
X2.5502Y-1.0
X2.5752Y-1.575
X2.6002Y-1.325
X2.6252Y-1.2
X2.66Y-1.69
X2.7Y-1.325
X2.85Y-1.425
X2.875Y-2.1
X2.9Y-1.075
X3.025Y-1.425
X3.1Y-2.1
X3.2Y-1.05
X3.225Y-1.125
X3.3Y-1.15
X3.3Y-2.025
X3.3Y-2.1
X3.375Y-1.125
X3.4Y-1.05
X3.625Y-1.05
X3.625Y-1.175
X3.625Y-1.3
X3.825Y-0.875
X3.825Y-2.225
T2
X1.25Y-1.7
X1.25Y-2.1
X1.325Y-1.125
X1.325Y-1.525
X1.4Y-1.7
X1.4Y-2.1
X1.55Y-1.7
X1.55Y-2.1
X1.7Y-1.9
X1.7Y-2.0969
X1.85Y-1.7
X1.85Y-2.1
X1.8752Y-1.1531
X1.8752Y-1.35
X1.8752Y-1.5
X2.0002Y-1.2016
X2.1002Y-1.3016
X2.2002Y-1.2016
X2.2752Y-1.5
X2.3252Y-1.1516
X2.3252Y-1.3484
X2.5252Y-1.1516
X2.5252Y-1.25
X2.55Y-1.7
X2.55Y-2.1
X2.75Y-1.7
X2.75Y-2.1
X2.975Y-1.7
X2.975Y-2.1
X3.2004Y-1.2002
X3.2004Y-1.3002
X3.2004Y-1.4002
X3.2004Y-1.5002
X3.2004Y-1.6002
X3.2004Y-1.7002
X3.2004Y-1.8002
X3.2004Y-1.9002
X3.2004Y-2.0002
X3.2004Y-2.1002
X3.3031Y-1.05
X3.5Y-1.05
X3.5004Y-1.2002
X3.5004Y-1.3002
X3.5004Y-1.4002
X3.5004Y-1.5002
X3.5004Y-1.6002
X3.5004Y-1.7002
X3.5004Y-1.8002
X3.5004Y-1.9002
X3.5004Y-2.0002
X3.5004Y-2.1002
T3
X2.4504Y-1.45
X2.5504Y-1.45
X2.7498Y-1.525
X2.8498Y-1.525
X2.9748Y-1.525
X3.0748Y-1.525
T4
X0.95Y-1.1
X0.95Y-1.2
X0.95Y-1.3
X0.95Y-1.4
X0.95Y-1.5
X0.95Y-1.9016
X0.95Y-2.0
X1.6Y-1.2013
X1.6Y-1.3981
X2.1244Y-1.675
X2.1244Y-1.775
X2.2244Y-1.675
X2.2244Y-1.775
X2.3244Y-1.675
X2.3244Y-1.775
X2.8006Y-1.3222
X2.9006Y-1.3222
X3.0006Y-1.3222
X3.75Y-1.1
X3.75Y-1.2
X3.75Y-1.3
X3.75Y-1.4
X3.75Y-1.5
X3.75Y-1.6
X3.75Y-1.7
X3.75Y-1.8
X3.75Y-1.9
X3.75Y-2.0
T5
X1.175Y-1.125
X1.175Y-1.525
X1.325Y-0.975
X1.725Y-0.975
X2.0Y-0.975
X2.4Y-0.975
M30
