M48
INCH
T1C0.0157
T2C0.0197
T3C0.0315
T4C0.0354
T5C0.0394
T6C0.0433
%
G90
G05
T1
X3.15Y-1.55
T2
X1.05Y-1.2
X1.05Y-1.3
X1.075Y-0.875
X1.075Y-2.225
X1.25Y-1.2
X1.25Y-1.3
X1.3Y-2.1
X1.325Y-2.175
X1.4Y-1.2
X1.4Y-2.2
X1.425Y-1.125
X1.425Y-1.275
X1.475Y-2.175
X1.5Y-1.1
X1.5Y-1.3
X1.5Y-1.4
X1.5Y-1.5
X1.5Y-1.6
X1.5Y-1.7
X1.5Y-1.8
X1.5Y-1.9
X1.5Y-2.0
X1.5Y-2.1
X2.1Y-1.25
X2.1Y-1.85
X2.4Y-1.25
X2.4Y-1.85
X2.7Y-1.25
X2.7Y-1.85
X3.0Y-1.25
X3.0Y-1.85
X3.4Y-1.375
X3.4Y-1.925
X3.55Y-1.375
X3.7Y-1.375
X3.7Y-1.925
X4.025Y-0.875
X4.025Y-2.225
T3
X1.4Y-1.4
X1.4Y-1.5
X1.4Y-1.6
X1.4Y-1.7
X1.4Y-1.8
X1.4Y-1.9
X1.4Y-2.0
X1.4Y-2.1
X1.5016Y-1.2
X1.6Y-1.2
X1.7Y-1.4
X1.7Y-1.5
X1.7Y-1.6
X1.7Y-1.7
X1.7Y-1.8
X1.7Y-1.9
X1.7Y-2.0
X1.7Y-2.1
X3.375Y-1.05
X3.4Y-1.175
X3.4Y-1.575
X3.4Y-1.725
X3.4Y-2.125
X3.5498Y-1.725
X3.5498Y-2.125
X3.55Y-1.175
X3.55Y-1.575
X3.6998Y-1.725
X3.6998Y-2.125
X3.7Y-1.175
X3.7Y-1.575
X3.775Y-1.05
T4
X1.8998Y-1.1
X1.8998Y-1.4
X1.8998Y-1.7
X1.8998Y-2.0
X1.9998Y-1.1
X1.9998Y-1.4
X1.9998Y-1.7
X1.9998Y-2.0
X2.1998Y-1.1
X2.1998Y-1.4
X2.1998Y-1.7
X2.1998Y-2.0
X2.2998Y-1.1
X2.2998Y-1.4
X2.2998Y-1.7
X2.2998Y-2.0
X2.4998Y-1.1
X2.4998Y-1.4
X2.4998Y-1.7
X2.4998Y-2.0
X2.5998Y-1.1
X2.5998Y-1.4
X2.5998Y-1.7
X2.5998Y-2.0
X2.7998Y-1.1
X2.7998Y-1.4
X2.7998Y-1.7
X2.7998Y-2.0
X2.8998Y-1.1
X2.8998Y-1.4
X2.8998Y-1.7
X2.8998Y-2.0
X3.0998Y-1.1
X3.0998Y-1.4
X3.0998Y-1.7
X3.0998Y-2.0
X3.1998Y-1.1
X3.1998Y-1.4
X3.1998Y-1.7
X3.1998Y-2.0
T5
X1.15Y-1.1
X1.15Y-1.2
X1.15Y-1.3
X1.15Y-1.4
X1.15Y-1.5
X1.15Y-1.6
X1.15Y-1.7
X1.15Y-1.8
X1.15Y-1.9
X1.15Y-2.0
X3.95Y-1.1
X3.95Y-1.2
X3.95Y-1.3
X3.95Y-1.4
X3.95Y-1.5
T6
X1.35Y-1.0
X1.65Y-1.0
M30
