%TF.GenerationSoftware,KiCad,Pcbnew,8.0.6*%
%TF.CreationDate,2024-12-15T14:46:51+01:00*%
%TF.ProjectId,PCB2_Display,50434232-5f44-4697-9370-6c61792e6b69,1.0*%
%TF.SameCoordinates,Original*%
%TF.FileFunction,Soldermask,Bot*%
%TF.FilePolarity,Negative*%
%FSLAX46Y46*%
G04 Gerber Fmt 4.6, Leading zero omitted, Abs format (unit mm)*
G04 Created by KiCad (PCBNEW 8.0.6) date 2024-12-15 14:46:51*
%MOMM*%
%LPD*%
G01*
G04 APERTURE LIST*
%ADD10C,0.150000*%
%ADD11C,0.000000*%
%ADD12R,1.800000X1.800000*%
%ADD13C,1.800000*%
%ADD14C,1.600000*%
%ADD15O,1.600000X1.600000*%
%ADD16R,2.200000X2.200000*%
%ADD17O,2.200000X2.200000*%
%ADD18R,1.600000X1.600000*%
%ADD19R,1.700000X1.700000*%
%ADD20O,1.700000X1.700000*%
G04 APERTURE END LIST*
D10*
X97204398Y-57509580D02*
X97252017Y-57557200D01*
X97252017Y-57557200D02*
X97394874Y-57604819D01*
X97394874Y-57604819D02*
X97490112Y-57604819D01*
X97490112Y-57604819D02*
X97632969Y-57557200D01*
X97632969Y-57557200D02*
X97728207Y-57461961D01*
X97728207Y-57461961D02*
X97775826Y-57366723D01*
X97775826Y-57366723D02*
X97823445Y-57176247D01*
X97823445Y-57176247D02*
X97823445Y-57033390D01*
X97823445Y-57033390D02*
X97775826Y-56842914D01*
X97775826Y-56842914D02*
X97728207Y-56747676D01*
X97728207Y-56747676D02*
X97632969Y-56652438D01*
X97632969Y-56652438D02*
X97490112Y-56604819D01*
X97490112Y-56604819D02*
X97394874Y-56604819D01*
X97394874Y-56604819D02*
X97252017Y-56652438D01*
X97252017Y-56652438D02*
X97204398Y-56700057D01*
X96204398Y-57509580D02*
X96252017Y-57557200D01*
X96252017Y-57557200D02*
X96394874Y-57604819D01*
X96394874Y-57604819D02*
X96490112Y-57604819D01*
X96490112Y-57604819D02*
X96632969Y-57557200D01*
X96632969Y-57557200D02*
X96728207Y-57461961D01*
X96728207Y-57461961D02*
X96775826Y-57366723D01*
X96775826Y-57366723D02*
X96823445Y-57176247D01*
X96823445Y-57176247D02*
X96823445Y-57033390D01*
X96823445Y-57033390D02*
X96775826Y-56842914D01*
X96775826Y-56842914D02*
X96728207Y-56747676D01*
X96728207Y-56747676D02*
X96632969Y-56652438D01*
X96632969Y-56652438D02*
X96490112Y-56604819D01*
X96490112Y-56604819D02*
X96394874Y-56604819D01*
X96394874Y-56604819D02*
X96252017Y-56652438D01*
X96252017Y-56652438D02*
X96204398Y-56700057D01*
X94680588Y-57081009D02*
X94537731Y-57128628D01*
X94537731Y-57128628D02*
X94490112Y-57176247D01*
X94490112Y-57176247D02*
X94442493Y-57271485D01*
X94442493Y-57271485D02*
X94442493Y-57414342D01*
X94442493Y-57414342D02*
X94490112Y-57509580D01*
X94490112Y-57509580D02*
X94537731Y-57557200D01*
X94537731Y-57557200D02*
X94632969Y-57604819D01*
X94632969Y-57604819D02*
X95013921Y-57604819D01*
X95013921Y-57604819D02*
X95013921Y-56604819D01*
X95013921Y-56604819D02*
X94680588Y-56604819D01*
X94680588Y-56604819D02*
X94585350Y-56652438D01*
X94585350Y-56652438D02*
X94537731Y-56700057D01*
X94537731Y-56700057D02*
X94490112Y-56795295D01*
X94490112Y-56795295D02*
X94490112Y-56890533D01*
X94490112Y-56890533D02*
X94537731Y-56985771D01*
X94537731Y-56985771D02*
X94585350Y-57033390D01*
X94585350Y-57033390D02*
X94680588Y-57081009D01*
X94680588Y-57081009D02*
X95013921Y-57081009D01*
X93823445Y-57128628D02*
X93823445Y-57604819D01*
X94156778Y-56604819D02*
X93823445Y-57128628D01*
X93823445Y-57128628D02*
X93490112Y-56604819D01*
X93156778Y-57223866D02*
X92394874Y-57223866D01*
X91918683Y-57604819D02*
X91918683Y-56604819D01*
X91918683Y-56604819D02*
X91347255Y-57604819D01*
X91347255Y-57604819D02*
X91347255Y-56604819D01*
X90299636Y-57509580D02*
X90347255Y-57557200D01*
X90347255Y-57557200D02*
X90490112Y-57604819D01*
X90490112Y-57604819D02*
X90585350Y-57604819D01*
X90585350Y-57604819D02*
X90728207Y-57557200D01*
X90728207Y-57557200D02*
X90823445Y-57461961D01*
X90823445Y-57461961D02*
X90871064Y-57366723D01*
X90871064Y-57366723D02*
X90918683Y-57176247D01*
X90918683Y-57176247D02*
X90918683Y-57033390D01*
X90918683Y-57033390D02*
X90871064Y-56842914D01*
X90871064Y-56842914D02*
X90823445Y-56747676D01*
X90823445Y-56747676D02*
X90728207Y-56652438D01*
X90728207Y-56652438D02*
X90585350Y-56604819D01*
X90585350Y-56604819D02*
X90490112Y-56604819D01*
X90490112Y-56604819D02*
X90347255Y-56652438D01*
X90347255Y-56652438D02*
X90299636Y-56700057D01*
X89871064Y-57223866D02*
X89109160Y-57223866D01*
X88680588Y-57557200D02*
X88537731Y-57604819D01*
X88537731Y-57604819D02*
X88299636Y-57604819D01*
X88299636Y-57604819D02*
X88204398Y-57557200D01*
X88204398Y-57557200D02*
X88156779Y-57509580D01*
X88156779Y-57509580D02*
X88109160Y-57414342D01*
X88109160Y-57414342D02*
X88109160Y-57319104D01*
X88109160Y-57319104D02*
X88156779Y-57223866D01*
X88156779Y-57223866D02*
X88204398Y-57176247D01*
X88204398Y-57176247D02*
X88299636Y-57128628D01*
X88299636Y-57128628D02*
X88490112Y-57081009D01*
X88490112Y-57081009D02*
X88585350Y-57033390D01*
X88585350Y-57033390D02*
X88632969Y-56985771D01*
X88632969Y-56985771D02*
X88680588Y-56890533D01*
X88680588Y-56890533D02*
X88680588Y-56795295D01*
X88680588Y-56795295D02*
X88632969Y-56700057D01*
X88632969Y-56700057D02*
X88585350Y-56652438D01*
X88585350Y-56652438D02*
X88490112Y-56604819D01*
X88490112Y-56604819D02*
X88252017Y-56604819D01*
X88252017Y-56604819D02*
X88109160Y-56652438D01*
X87728207Y-57319104D02*
X87252017Y-57319104D01*
X87823445Y-57604819D02*
X87490112Y-56604819D01*
X87490112Y-56604819D02*
X87156779Y-57604819D01*
X85632969Y-56938152D02*
X85632969Y-57604819D01*
X85871064Y-56557200D02*
X86109159Y-57271485D01*
X86109159Y-57271485D02*
X85490112Y-57271485D01*
X85109159Y-57509580D02*
X85061540Y-57557200D01*
X85061540Y-57557200D02*
X85109159Y-57604819D01*
X85109159Y-57604819D02*
X85156778Y-57557200D01*
X85156778Y-57557200D02*
X85109159Y-57509580D01*
X85109159Y-57509580D02*
X85109159Y-57604819D01*
X84442493Y-56604819D02*
X84347255Y-56604819D01*
X84347255Y-56604819D02*
X84252017Y-56652438D01*
X84252017Y-56652438D02*
X84204398Y-56700057D01*
X84204398Y-56700057D02*
X84156779Y-56795295D01*
X84156779Y-56795295D02*
X84109160Y-56985771D01*
X84109160Y-56985771D02*
X84109160Y-57223866D01*
X84109160Y-57223866D02*
X84156779Y-57414342D01*
X84156779Y-57414342D02*
X84204398Y-57509580D01*
X84204398Y-57509580D02*
X84252017Y-57557200D01*
X84252017Y-57557200D02*
X84347255Y-57604819D01*
X84347255Y-57604819D02*
X84442493Y-57604819D01*
X84442493Y-57604819D02*
X84537731Y-57557200D01*
X84537731Y-57557200D02*
X84585350Y-57509580D01*
X84585350Y-57509580D02*
X84632969Y-57414342D01*
X84632969Y-57414342D02*
X84680588Y-57223866D01*
X84680588Y-57223866D02*
X84680588Y-56985771D01*
X84680588Y-56985771D02*
X84632969Y-56795295D01*
X84632969Y-56795295D02*
X84585350Y-56700057D01*
X84585350Y-56700057D02*
X84537731Y-56652438D01*
X84537731Y-56652438D02*
X84442493Y-56604819D01*
D11*
%TO.C,G\u002A\u002A\u002A*%
G36*
X101632002Y-53372802D02*
G01*
X101665244Y-53476145D01*
X101693739Y-53567628D01*
X101715970Y-53642766D01*
X101730421Y-53697074D01*
X101735575Y-53726069D01*
X101728926Y-53758868D01*
X101706786Y-53787459D01*
X101701268Y-53790538D01*
X101657095Y-53802772D01*
X101619335Y-53787141D01*
X101585892Y-53741964D01*
X101554673Y-53665565D01*
X101554196Y-53664136D01*
X101534330Y-53610592D01*
X101516288Y-53572003D01*
X101503923Y-53556638D01*
X101490667Y-53555658D01*
X101455912Y-53554810D01*
X101447858Y-53554839D01*
X101407306Y-53555174D01*
X101347269Y-53555807D01*
X101277558Y-53556638D01*
X101132106Y-53558466D01*
X101101719Y-53658826D01*
X101072173Y-53735374D01*
X101037774Y-53782388D01*
X100998658Y-53797767D01*
X100954163Y-53782064D01*
X100925778Y-53755568D01*
X100913036Y-53726711D01*
X100915441Y-53714794D01*
X100926997Y-53673713D01*
X100947011Y-53607980D01*
X100974256Y-53521467D01*
X101007510Y-53418045D01*
X101020751Y-53377507D01*
X101194877Y-53377507D01*
X101326503Y-53377507D01*
X101358477Y-53377408D01*
X101411346Y-53375916D01*
X101439984Y-53371477D01*
X101450433Y-53362628D01*
X101448734Y-53347907D01*
X101430521Y-53291339D01*
X101396821Y-53191379D01*
X101367515Y-53110764D01*
X101343808Y-53052554D01*
X101326902Y-53019809D01*
X101318002Y-53015590D01*
X101311889Y-53032165D01*
X101296617Y-53075860D01*
X101275584Y-53137320D01*
X101251427Y-53208887D01*
X101194877Y-53377507D01*
X101020751Y-53377507D01*
X101045550Y-53301584D01*
X101087150Y-53175956D01*
X101099789Y-53138060D01*
X101144942Y-53003261D01*
X101181472Y-52895789D01*
X101210660Y-52812481D01*
X101233793Y-52750177D01*
X101252153Y-52705711D01*
X101267025Y-52675923D01*
X101279694Y-52657649D01*
X101291443Y-52647726D01*
X101303556Y-52642992D01*
X101336632Y-52639913D01*
X101371070Y-52648287D01*
X101377156Y-52657178D01*
X101393779Y-52693974D01*
X101417787Y-52754783D01*
X101447664Y-52835122D01*
X101481893Y-52930505D01*
X101518958Y-53036449D01*
X101557342Y-53148469D01*
X101595529Y-53262082D01*
X101628651Y-53362628D01*
X101632002Y-53372802D01*
G37*
G36*
X100689010Y-52643323D02*
G01*
X100719728Y-52671657D01*
X100732068Y-52718654D01*
X100731389Y-52725437D01*
X100724059Y-52762866D01*
X100709526Y-52826062D01*
X100688844Y-52910756D01*
X100663070Y-53012678D01*
X100633257Y-53127561D01*
X100600461Y-53251135D01*
X100585589Y-53306612D01*
X100554219Y-53423887D01*
X100526241Y-53528837D01*
X100502685Y-53617572D01*
X100484584Y-53686204D01*
X100472967Y-53730841D01*
X100468865Y-53747596D01*
X100463495Y-53756574D01*
X100443014Y-53779376D01*
X100423597Y-53794393D01*
X100393662Y-53805228D01*
X100371296Y-53800510D01*
X100350483Y-53783974D01*
X100329938Y-53752232D01*
X100308200Y-53701898D01*
X100283808Y-53629584D01*
X100255301Y-53531905D01*
X100221218Y-53405472D01*
X100211095Y-53367213D01*
X100185063Y-53270739D01*
X100161925Y-53187666D01*
X100143008Y-53122609D01*
X100129644Y-53080183D01*
X100123160Y-53065003D01*
X100118105Y-53075492D01*
X100105812Y-53113139D01*
X100088152Y-53173277D01*
X100066623Y-53250772D01*
X100042724Y-53340493D01*
X100029417Y-53391383D01*
X99998449Y-53508887D01*
X99973916Y-53599602D01*
X99954568Y-53667243D01*
X99939157Y-53715526D01*
X99926434Y-53748167D01*
X99915152Y-53768884D01*
X99904061Y-53781391D01*
X99891913Y-53789406D01*
X99877883Y-53795858D01*
X99834643Y-53798542D01*
X99799521Y-53770060D01*
X99771688Y-53709865D01*
X99756739Y-53660532D01*
X99735810Y-53587009D01*
X99710873Y-53496379D01*
X99683192Y-53393528D01*
X99654033Y-53283340D01*
X99624659Y-53170702D01*
X99596335Y-53060499D01*
X99570326Y-52957616D01*
X99547895Y-52866939D01*
X99530308Y-52793353D01*
X99518828Y-52741744D01*
X99514720Y-52716997D01*
X99517955Y-52692111D01*
X99540755Y-52654679D01*
X99577230Y-52637208D01*
X99617657Y-52642720D01*
X99652315Y-52674237D01*
X99654329Y-52678007D01*
X99667140Y-52711653D01*
X99686045Y-52770485D01*
X99709429Y-52849114D01*
X99735678Y-52942153D01*
X99763177Y-53044211D01*
X99772445Y-53079067D01*
X99798311Y-53172614D01*
X99821571Y-53251458D01*
X99840863Y-53311299D01*
X99854826Y-53347839D01*
X99862101Y-53356776D01*
X99866594Y-53344811D01*
X99878941Y-53304276D01*
X99896665Y-53241618D01*
X99918136Y-53162645D01*
X99941722Y-53073168D01*
X99955816Y-53019268D01*
X99980603Y-52926098D01*
X100003418Y-52842248D01*
X100022205Y-52775237D01*
X100034906Y-52732585D01*
X100039253Y-52719816D01*
X100068235Y-52665305D01*
X100106056Y-52641014D01*
X100155234Y-52645109D01*
X100166276Y-52650249D01*
X100178884Y-52662459D01*
X100191775Y-52684642D01*
X100206232Y-52720455D01*
X100223538Y-52773557D01*
X100244977Y-52847604D01*
X100271830Y-52946256D01*
X100305380Y-53073168D01*
X100321752Y-53134985D01*
X100344247Y-53217974D01*
X100363449Y-53286543D01*
X100377719Y-53334879D01*
X100385419Y-53357168D01*
X100387066Y-53357502D01*
X100396680Y-53338602D01*
X100412468Y-53293568D01*
X100433085Y-53226695D01*
X100457184Y-53142275D01*
X100483419Y-53044603D01*
X100490140Y-53019015D01*
X100517314Y-52918583D01*
X100542904Y-52828499D01*
X100565299Y-52754153D01*
X100582888Y-52700936D01*
X100594062Y-52674237D01*
X100610404Y-52654860D01*
X100649405Y-52636706D01*
X100689010Y-52643323D01*
G37*
G36*
X102294106Y-54874528D02*
G01*
X101821396Y-54874528D01*
X101810335Y-54918598D01*
X101808160Y-54932841D01*
X101804940Y-54979813D01*
X101802635Y-55049026D01*
X101801437Y-55133699D01*
X101801539Y-55227051D01*
X101802006Y-55285231D01*
X101802553Y-55368850D01*
X101802848Y-55437134D01*
X101802868Y-55484228D01*
X101802592Y-55504277D01*
X101802527Y-55504535D01*
X101785188Y-55509042D01*
X101741648Y-55512045D01*
X101678268Y-55513286D01*
X101601410Y-55512502D01*
X101401442Y-55507883D01*
X101405053Y-55235276D01*
X101405578Y-55173569D01*
X101405270Y-55083717D01*
X101403734Y-55006846D01*
X101401127Y-54949594D01*
X101397603Y-54918598D01*
X101395257Y-54909710D01*
X101386372Y-54889982D01*
X101368722Y-54879470D01*
X101334264Y-54875282D01*
X101274953Y-54874528D01*
X101252436Y-54874574D01*
X101202094Y-54876127D01*
X101173988Y-54882056D01*
X101160072Y-54895249D01*
X101152304Y-54918598D01*
X101149935Y-54935230D01*
X101146981Y-54983913D01*
X101145041Y-55054573D01*
X101144272Y-55140573D01*
X101144830Y-55235276D01*
X101148417Y-55507883D01*
X100743459Y-55507883D01*
X100747046Y-55235276D01*
X100747566Y-55173570D01*
X100747251Y-55083717D01*
X100745709Y-55006846D01*
X100743097Y-54949594D01*
X100739572Y-54918598D01*
X100737226Y-54909710D01*
X100728341Y-54889982D01*
X100710691Y-54879470D01*
X100676233Y-54875282D01*
X100616922Y-54874528D01*
X100594405Y-54874574D01*
X100544063Y-54876127D01*
X100515957Y-54882056D01*
X100502041Y-54895249D01*
X100494273Y-54918598D01*
X100491904Y-54935230D01*
X100488950Y-54983913D01*
X100487010Y-55054573D01*
X100486241Y-55140573D01*
X100486799Y-55235276D01*
X100490386Y-55507883D01*
X100085428Y-55507883D01*
X100089015Y-55235276D01*
X100089535Y-55173570D01*
X100089219Y-55083717D01*
X100087678Y-55006846D01*
X100085066Y-54949594D01*
X100081541Y-54918598D01*
X100079195Y-54909710D01*
X100070310Y-54889982D01*
X100052660Y-54879470D01*
X100018202Y-54875282D01*
X99958891Y-54874528D01*
X99936374Y-54874574D01*
X99886032Y-54876127D01*
X99857925Y-54882056D01*
X99844010Y-54895249D01*
X99836242Y-54918598D01*
X99833873Y-54935230D01*
X99830919Y-54983913D01*
X99828979Y-55054573D01*
X99828209Y-55140573D01*
X99828768Y-55235276D01*
X99832355Y-55507883D01*
X99427397Y-55507883D01*
X99430984Y-55235276D01*
X99431942Y-55150918D01*
X99432023Y-55053377D01*
X99429767Y-54981914D01*
X99424299Y-54932494D01*
X99414745Y-54901080D01*
X99400230Y-54883639D01*
X99379881Y-54876133D01*
X99352823Y-54874528D01*
X99331303Y-54873160D01*
X99306434Y-54865892D01*
X99278134Y-54849124D01*
X99241568Y-54819294D01*
X99191900Y-54772841D01*
X99124295Y-54706202D01*
X99105419Y-54687369D01*
X99044677Y-54625985D01*
X99002998Y-54581261D01*
X98976807Y-54548155D01*
X98962527Y-54521627D01*
X98956581Y-54496637D01*
X98955394Y-54468145D01*
X98955394Y-54398415D01*
X98638716Y-54399380D01*
X98322039Y-54400345D01*
X98322039Y-53999748D01*
X98638716Y-54000713D01*
X98955394Y-54001677D01*
X98955394Y-53740384D01*
X98638716Y-53741349D01*
X98322039Y-53742313D01*
X98322039Y-53341717D01*
X98638716Y-53342682D01*
X98955394Y-53343646D01*
X98955394Y-53082353D01*
X98638716Y-53083318D01*
X98322039Y-53084282D01*
X98322039Y-52683686D01*
X98638716Y-52684651D01*
X98955394Y-52685615D01*
X98955394Y-52424322D01*
X98638716Y-52425287D01*
X98322039Y-52426251D01*
X98322039Y-52025655D01*
X98638716Y-52026619D01*
X98955394Y-52027584D01*
X98955394Y-51798233D01*
X99202156Y-51798233D01*
X99202156Y-54357055D01*
X99338218Y-54492411D01*
X99474281Y-54627766D01*
X102048140Y-54627766D01*
X102048140Y-51798233D01*
X99202156Y-51798233D01*
X98955394Y-51798233D01*
X98955394Y-51551471D01*
X99412449Y-51551471D01*
X99423510Y-51507401D01*
X99425879Y-51490769D01*
X99428833Y-51442086D01*
X99430773Y-51371427D01*
X99431542Y-51285427D01*
X99430984Y-51190723D01*
X99427397Y-50918116D01*
X99832355Y-50918116D01*
X99828768Y-51190723D01*
X99828248Y-51252429D01*
X99828563Y-51342282D01*
X99830105Y-51419153D01*
X99832717Y-51476405D01*
X99836242Y-51507401D01*
X99838587Y-51516289D01*
X99847473Y-51536017D01*
X99865123Y-51546530D01*
X99899581Y-51550718D01*
X99958891Y-51551471D01*
X99981409Y-51551426D01*
X100031751Y-51549872D01*
X100059857Y-51543944D01*
X100073772Y-51530750D01*
X100081541Y-51507401D01*
X100083910Y-51490769D01*
X100086864Y-51442086D01*
X100088804Y-51371427D01*
X100089573Y-51285427D01*
X100089015Y-51190723D01*
X100085428Y-50918116D01*
X100490386Y-50918116D01*
X100486799Y-51190723D01*
X100486279Y-51252429D01*
X100486594Y-51342282D01*
X100488136Y-51419153D01*
X100490748Y-51476405D01*
X100494273Y-51507401D01*
X100496619Y-51516289D01*
X100505504Y-51536017D01*
X100523154Y-51546530D01*
X100557612Y-51550718D01*
X100616922Y-51551471D01*
X100639440Y-51551426D01*
X100689782Y-51549872D01*
X100717888Y-51543944D01*
X100731803Y-51530750D01*
X100739572Y-51507401D01*
X100741941Y-51490769D01*
X100744895Y-51442086D01*
X100746835Y-51371427D01*
X100747604Y-51285427D01*
X100747046Y-51190723D01*
X100743459Y-50918116D01*
X101148417Y-50918116D01*
X101144830Y-51190723D01*
X101144310Y-51252429D01*
X101144625Y-51342282D01*
X101146167Y-51419153D01*
X101148779Y-51476405D01*
X101152304Y-51507401D01*
X101154650Y-51516289D01*
X101163535Y-51536017D01*
X101181185Y-51546530D01*
X101215643Y-51550718D01*
X101274953Y-51551471D01*
X101297471Y-51551426D01*
X101347813Y-51549872D01*
X101375919Y-51543944D01*
X101389835Y-51530750D01*
X101397603Y-51507401D01*
X101399972Y-51490769D01*
X101402926Y-51442086D01*
X101404866Y-51371427D01*
X101405635Y-51285427D01*
X101405077Y-51190723D01*
X101401490Y-50918116D01*
X101806448Y-50918116D01*
X101802861Y-51190723D01*
X101802341Y-51252429D01*
X101802656Y-51342282D01*
X101804198Y-51419153D01*
X101806810Y-51476405D01*
X101810335Y-51507401D01*
X101821396Y-51551471D01*
X102294902Y-51551471D01*
X102294902Y-51949372D01*
X102607476Y-51943718D01*
X102920051Y-51938064D01*
X102920041Y-52139586D01*
X102919982Y-52177232D01*
X102919090Y-52250383D01*
X102916527Y-52298085D01*
X102911537Y-52325653D01*
X102903361Y-52338404D01*
X102891242Y-52341655D01*
X102875365Y-52341902D01*
X102829591Y-52342539D01*
X102761505Y-52343450D01*
X102677205Y-52344553D01*
X102582790Y-52345768D01*
X102303127Y-52349334D01*
X102298294Y-52478380D01*
X102293462Y-52607426D01*
X102606756Y-52601761D01*
X102920051Y-52596095D01*
X102920041Y-52797618D01*
X102919982Y-52835263D01*
X102919090Y-52908414D01*
X102916527Y-52956116D01*
X102911537Y-52983684D01*
X102903361Y-52996435D01*
X102891242Y-52999686D01*
X102875365Y-52999933D01*
X102829591Y-53000570D01*
X102761505Y-53001481D01*
X102677205Y-53002584D01*
X102582790Y-53003799D01*
X102303127Y-53007365D01*
X102298294Y-53136411D01*
X102293462Y-53265457D01*
X102606756Y-53259792D01*
X102920051Y-53254127D01*
X102920041Y-53455649D01*
X102919982Y-53493294D01*
X102919090Y-53566445D01*
X102916527Y-53614147D01*
X102911537Y-53641715D01*
X102903361Y-53654467D01*
X102891242Y-53657717D01*
X102875365Y-53657964D01*
X102829591Y-53658601D01*
X102761505Y-53659512D01*
X102677205Y-53660616D01*
X102582790Y-53661830D01*
X102303127Y-53665396D01*
X102298294Y-53794442D01*
X102293462Y-53923488D01*
X102606756Y-53917823D01*
X102920051Y-53912158D01*
X102920041Y-54113680D01*
X102919982Y-54151326D01*
X102919090Y-54224477D01*
X102916527Y-54272178D01*
X102911537Y-54299746D01*
X102903361Y-54312498D01*
X102891242Y-54315748D01*
X102875365Y-54315995D01*
X102829591Y-54316632D01*
X102761505Y-54317543D01*
X102677205Y-54318647D01*
X102582790Y-54319861D01*
X102303127Y-54323427D01*
X102298617Y-54598978D01*
X102298146Y-54627766D01*
X102294106Y-54874528D01*
G37*
%TD*%
D12*
%TO.C,D28*%
X48255000Y-50800000D03*
D13*
X50795000Y-50800000D03*
%TD*%
D12*
%TO.C,D24*%
X78735000Y-50800000D03*
D13*
X81275000Y-50800000D03*
%TD*%
D12*
%TO.C,D27*%
X55875000Y-50800000D03*
D13*
X58415000Y-50800000D03*
%TD*%
D14*
%TO.C,R14*%
X90165000Y-43815000D03*
D15*
X90165000Y-53975000D03*
%TD*%
D14*
%TO.C,R13*%
X86360000Y-43815000D03*
D15*
X86360000Y-53975000D03*
%TD*%
D14*
%TO.C,R11*%
X95885000Y-26670000D03*
D15*
X85725000Y-26670000D03*
%TD*%
D12*
%TO.C,D10*%
X48255000Y-35560000D03*
D13*
X50795000Y-35560000D03*
%TD*%
D12*
%TO.C,D21*%
X63495000Y-43180000D03*
D13*
X66035000Y-43180000D03*
%TD*%
D12*
%TO.C,D9*%
X48255000Y-27940000D03*
D13*
X50795000Y-27940000D03*
%TD*%
D16*
%TO.C,D8*%
X41910000Y-25400000D03*
D17*
X34290000Y-25400000D03*
%TD*%
D12*
%TO.C,D16*%
X71115000Y-35560000D03*
D13*
X73655000Y-35560000D03*
%TD*%
D12*
%TO.C,D12*%
X55875000Y-35560000D03*
D13*
X58415000Y-35560000D03*
%TD*%
D12*
%TO.C,D11*%
X55875000Y-27940000D03*
D13*
X58415000Y-27940000D03*
%TD*%
D14*
%TO.C,R10*%
X86360000Y-40005000D03*
D15*
X86360000Y-29845000D03*
%TD*%
D12*
%TO.C,D26*%
X63495000Y-50800000D03*
D13*
X66035000Y-50800000D03*
%TD*%
D14*
%TO.C,R8*%
X93980000Y-40005000D03*
D15*
X93980000Y-29845000D03*
%TD*%
D12*
%TO.C,D18*%
X78735000Y-35560000D03*
D13*
X81275000Y-35560000D03*
%TD*%
D12*
%TO.C,D20*%
X71115000Y-43180000D03*
D13*
X73655000Y-43180000D03*
%TD*%
D18*
%TO.C,U3*%
X35560000Y-35560000D03*
D15*
X35560000Y-38100000D03*
X35560000Y-40640000D03*
X35560000Y-43180000D03*
X35560000Y-45720000D03*
X35560000Y-48260000D03*
X35560000Y-50800000D03*
X35560000Y-53340000D03*
X43180000Y-53340000D03*
X43180000Y-50800000D03*
X43180000Y-48260000D03*
X43180000Y-45720000D03*
X43180000Y-43180000D03*
X43180000Y-40640000D03*
X43180000Y-38100000D03*
X43180000Y-35560000D03*
%TD*%
D14*
%TO.C,R12*%
X93975000Y-53975000D03*
D15*
X93975000Y-43815000D03*
%TD*%
D12*
%TO.C,D22*%
X55875000Y-43180000D03*
D13*
X58415000Y-43180000D03*
%TD*%
D12*
%TO.C,D17*%
X78735000Y-27940000D03*
D13*
X81275000Y-27940000D03*
%TD*%
D18*
%TO.C,C7*%
X40640000Y-30480000D03*
D14*
X38140000Y-30480000D03*
%TD*%
D12*
%TO.C,D23*%
X48255000Y-43180000D03*
D13*
X50795000Y-43180000D03*
%TD*%
D12*
%TO.C,D15*%
X71115000Y-27940000D03*
D13*
X73655000Y-27940000D03*
%TD*%
D12*
%TO.C,D19*%
X78735000Y-43180000D03*
D13*
X81275000Y-43180000D03*
%TD*%
D12*
%TO.C,D25*%
X71115000Y-50800000D03*
D13*
X73655000Y-50800000D03*
%TD*%
D12*
%TO.C,D13*%
X63495000Y-27940000D03*
D13*
X66035000Y-27940000D03*
%TD*%
D14*
%TO.C,R9*%
X90170000Y-40005000D03*
D15*
X90170000Y-29845000D03*
%TD*%
D12*
%TO.C,D14*%
X63495000Y-35560000D03*
D13*
X66035000Y-35560000D03*
%TD*%
D19*
%TO.C,J7*%
X100330000Y-27940000D03*
D20*
X100330000Y-30480000D03*
X100330000Y-33020000D03*
X100330000Y-35560000D03*
X100330000Y-38100000D03*
%TD*%
D19*
%TO.C,J6*%
X29210000Y-27940000D03*
D20*
X29210000Y-30480000D03*
X29210000Y-33020000D03*
X29210000Y-35560000D03*
X29210000Y-38100000D03*
X29210000Y-40640000D03*
X29210000Y-43180000D03*
X29210000Y-45720000D03*
X29210000Y-48260000D03*
X29210000Y-50800000D03*
%TD*%
M02*
